<svg xmlns="http://www.w3.org/2000/svg" width="1200" height="1500" viewBox="0 0 1200 1500"><g id="large_dark"><path d="M591.49,416.68l52.27-34.55Z" style="fill:#9e9e9e;stroke:#fff;stroke-miterlimit:10;stroke-width:6.935865733847759px;stroke-dasharray:5.945027828216553,5.945027828216553,5.945027828216553,5.945027828216553,5.945027828216553,5.945027828216553"/><path d="M671.23,455.74l3.41-59.88Z" style="fill:#9e9e9e;stroke:#fff;stroke-miterlimit:10;stroke-width:7.475896358372925px;stroke-dasharray:6.40791130065918,6.40791130065918,6.40791130065918,6.40791130065918,6.40791130065918,6.40791130065918"/><line x1="384.06" y1="463.77" x2="383.77" y2="401.54" style="fill:#9e9e9e;stroke:#fff;stroke-miterlimit:10;stroke-width:6.935865733847759px;stroke-dasharray:5.945027828216553,5.945027828216553,5.945027828216553,5.945027828216553,5.945027828216553,5.945027828216553"/><polyline points="462.79 416.6 410.69 382.5 462.79 416.6" style="fill:#9e9e9e;stroke:#fff;stroke-miterlimit:10;stroke-width:6.935865733847759px;stroke-dasharray:5.945027828216553,5.945027828216553,5.945027828216553,5.945027828216553,5.945027828216553,5.945027828216553"/><path d="M816,538.23l52.85-44.33Z" style="fill:#9e9e9e;stroke:#fff;stroke-miterlimit:10;stroke-width:6.935865733847759px;stroke-dasharray:5.945027828216553,5.945027828216553,5.945027828216553,5.945027828216553,5.945027828216553,5.945027828216553"/><path d="M887.31,576.46l.8-79.13Z" style="fill:#9e9e9e;stroke:#fff;stroke-miterlimit:10;stroke-width:6.817976155588075px;stroke-dasharray:5.843979358673096,5.843979358673096,5.843979358673096,5.843979358673096,5.843979358673096,5.843979358673096"/><line x1="310.56" y1="662.92" x2="245.63" y2="597.4" style="fill:#9e9e9e;stroke:#fff;stroke-miterlimit:10;stroke-width:6.935865733847759px;stroke-dasharray:5.945027828216553,5.945027828216553,5.945027828216553,5.945027828216553,5.945027828216553,5.945027828216553"/><polyline points="319.93 566.82 257.47 566.82 319.93 566.82" style="fill:#9e9e9e;stroke:#fff;stroke-miterlimit:10;stroke-width:6.935865733847759px;stroke-dasharray:5.945027828216553,5.945027828216553,5.945027828216553,5.945027828216553,5.945027828216553,5.945027828216553"/><line x1="163.29" y1="918.74" x2="163.29" y2="982.25" style="fill:#9e9e9e;stroke:#fff;stroke-miterlimit:10;stroke-width:6.935865733847759px;stroke-dasharray:5.945027828216553,5.945027828216553,5.945027828216553,5.945027828216553,5.945027828216553,5.945027828216553"/><line x1="184.27" y1="990.07" x2="235.37" y2="954.52" style="fill:#9e9e9e;stroke:#fff;stroke-miterlimit:10;stroke-width:6.935865733847759px;stroke-dasharray:5.945027828216553,5.945027828216553,5.945027828216553,5.945027828216553,5.945027828216553,5.945027828216553"/><line x1="304.89" y1="1084.02" x2="245.86" y2="1116.85" style="fill:#9e9e9e;stroke:#fff;stroke-miterlimit:10;stroke-width:6.935865733847759px;stroke-dasharray:5.945027828216553,5.945027828216553,5.945027828216553,5.945027828216553,5.945027828216553,5.945027828216553"/><line x1="308.19" y1="1169.63" x2="238.94" y2="1153.21" style="fill:#9e9e9e;stroke:#fff;stroke-miterlimit:10;stroke-width:6.935865733847759px;stroke-dasharray:5.945027828216553,5.945027828216553,5.945027828216553,5.945027828216553,5.945027828216553,5.945027828216553"/><line x1="379.51" y1="1290.56" x2="377.31" y2="1348.72" style="fill:#9e9e9e;stroke:#fff;stroke-miterlimit:10;stroke-width:6.935865733847759px;stroke-dasharray:5.945027828216553,5.945027828216553,5.945027828216553,5.945027828216553,5.945027828216553,5.945027828216553"/><polyline points="455.86 1331.44 404.76 1367 455.86 1331.44" style="fill:#9e9e9e;stroke:#fff;stroke-miterlimit:10;stroke-width:6.935865733847759px;stroke-dasharray:5.945027828216553,5.945027828216553,5.945027828216553,5.945027828216553,5.945027828216553,5.945027828216553"/><line x1="598.43" y1="1334.63" x2="650.51" y2="1367.48" style="fill:#9e9e9e;stroke:#fff;stroke-miterlimit:10;stroke-width:6.851683920390034px;stroke-dasharray:5.8728718757629395,5.8728718757629395,5.8728718757629395,5.8728718757629395,5.8728718757629395,5.8728718757629395"/><polyline points="670.65 1296.65 672.63 1358.46 670.65 1296.65" style="fill:#9e9e9e;stroke:#fff;stroke-miterlimit:10;stroke-width:6.851683920390034px;stroke-dasharray:5.8728718757629395,5.8728718757629395,5.8728718757629395,5.8728718757629395,5.8728718757629395,5.8728718757629395"/><line x1="816.04" y1="1294.05" x2="871" y2="1269.82" style="fill:#9e9e9e;stroke:#fff;stroke-miterlimit:10;stroke-width:6.935865733847759px;stroke-dasharray:5.945027828216553,5.945027828216553,5.945027828216553,5.945027828216553,5.945027828216553,5.945027828216553"/><polyline points="816.04 1211.62 872.94 1237.12 816.04 1211.62" style="fill:#9e9e9e;stroke:#fff;stroke-miterlimit:10;stroke-width:6.935865733847759px;stroke-dasharray:5.945027828216553,5.945027828216553,5.945027828216553,5.945027828216553,5.945027828216553,5.945027828216553"/><line x1="893.02" y1="1084.02" x2="945.57" y2="1118.13" style="fill:#9e9e9e;stroke:#fff;stroke-miterlimit:10;stroke-width:6.935865733847759px;stroke-dasharray:5.945027828216553,5.945027828216553,5.945027828216553,5.945027828216553,5.945027828216553,5.945027828216553"/><line x1="958.12" y1="1041.84" x2="976.36" y2="1106.15" style="fill:#9e9e9e;stroke:#fff;stroke-miterlimit:10;stroke-width:6.935865733847759px;stroke-dasharray:5.945027828216553,5.945027828216553,5.945027828216553,5.945027828216553,5.945027828216553,5.945027828216553"/><line x1="955.82" y1="789.16" x2="1023.3" y2="761.72" style="fill:#9e9e9e;stroke:#fff;stroke-miterlimit:10;stroke-width:6.789665833841653px;stroke-dasharray:5.819713592529297,5.819713592529297,5.819713592529297,5.819713592529297,5.819713592529297,5.819713592529297"/><polyline points="956.23 703.46 1017.03 731.62 956.23 703.46" style="fill:#9e9e9e;stroke:#fff;stroke-miterlimit:10;stroke-width:6.789665833841653px;stroke-dasharray:5.819713592529297,5.819713592529297,5.819713592529297,5.819713592529297,5.819713592529297,5.819713592529297"/><rect x="846.54" y="408.58" width="99.57" height="98.6" rx="22.9" style="fill:#f9ead1"/><path d="M877.44,499.34,884.7,491c.51-.59,1.86-2.16,2.33-2.87a5,5,0,0,0,1.11-3,3.76,3.76,0,0,0-4-3.85,3.86,3.86,0,0,0-3.32,1.75,4.33,4.33,0,0,0-.66,2.34H878a6.27,6.27,0,0,1,1.5-4.09,5.94,5.94,0,0,1,4.72-2,5.86,5.86,0,0,1,6.15,5.89,7,7,0,0,1-1.58,4.23c-.84,1.16-1.91,2.37-2.72,3.29l-4.15,4.64h8.42v2Z"/><path d="M896.32,486.77a1.48,1.48,0,1,1-1.49,1.48A1.51,1.51,0,0,1,896.32,486.77Zm0,10a1.48,1.48,0,1,1-1.49,1.48A1.51,1.51,0,0,1,896.32,496.74Z"/><path d="M907.67,481.68h-3.34l1.16-2.07h4.4v19.73h-2.22Z"/><path d="M867.42,439.77,910,418a.71.71,0,0,1,.65,0l15,7c.1,0-.53.32-.62.37L883.48,449.2a.71.71,0,0,1-.69,0L867.41,441A.7.7,0,0,1,867.42,439.77Z" style="fill:#a0d0de"/><path d="M884,447l39.8-22.09a1.43,1.43,0,0,1,2.16,1.2l-.15,15.25a1.35,1.35,0,0,1-.67,1.16l-41,24.92c-1,.58-2.2.21-2.19-.88l1.22-17.14C883.16,448.91,883.58,447.22,884,447Z" style="fill:#8fbcc9"/><path d="M923.27,428.21l-.07,9.22c.2.48-.12.86-1.1,1.42l-27.86,16c-1.24.71-.84-.52-1.08-1.13l0-7.64c-.25-.63.34-1.88,1.68-2.6l26.66-15.15C922.22,427.92,923.13,427.86,923.27,428.21Z" style="fill:#accfd9"/><path d="M914.58,449s-1.66-4.54,1.29-6.54c4.45-3,6.53,1.66,6.53,1.66" style="fill:#1d6c80"/><path d="M889.54,464.1s-.63-.61-.89-3.94a4.41,4.41,0,0,1,2.87-4.17c4.33-1.36,5.89,3.33,5.89,3.33" style="fill:#1d6c80"/><ellipse cx="893" cy="460.23" rx="4.25" ry="4" transform="translate(246.29 1229.01) rotate(-77.19)" style="fill:#292929"/><ellipse cx="893.64" cy="460.74" rx="4.16" ry="3.52" transform="translate(261.38 1242.49) rotate(-78.31)" style="fill:#666"/><ellipse cx="918.6" cy="445.99" rx="4.25" ry="4" transform="translate(280.1 1242.89) rotate(-77.19)" style="fill:#292929"/><ellipse cx="919.24" cy="446.5" rx="4.16" ry="3.52" transform="translate(295.74 1256.21) rotate(-78.31)" style="fill:#666"/><path d="M866.23,458.88v-17.4a1.82,1.82,0,0,1,2.63-1.53L883,446.48a1.7,1.7,0,0,1,1,1.53v17.91a1.83,1.83,0,0,1-2.69,1.51l-14.12-7A1.68,1.68,0,0,1,866.23,458.88Z" style="fill:#7b9ea8"/><path d="M885.16,465.35l-.27-15.23a3.51,3.51,0,0,1,.3-1.53c.4-.54,3.07-1.4,3.2-1.1.71,1.65,1.39,9,1.28,9.09-2.43,1.85-.87,6.78-.87,6.78Z" style="fill:#6c777a"/><polygon points="880.81 438.18 885.21 440.24 884.72 442.9 879.85 443.5 875.12 441.36 875.63 438.56 880.81 438.18" style="fill:#cad9e0"/><polygon points="887.56 434.45 891.96 436.52 891.47 439.18 886.6 439.77 881.87 437.63 882.38 434.84 887.56 434.45" style="fill:#cad9e0"/><polygon points="894.54 430.96 898.94 433.02 898.46 435.69 893.59 436.28 888.85 434.14 889.37 431.35 894.54 430.96" style="fill:#cad9e0"/><polygon points="901.11 427.21 905.5 429.28 905.02 431.94 900.15 432.53 895.42 430.4 895.93 427.6 901.11 427.21" style="fill:#cad9e0"/><polygon points="907.81 423.83 912.21 425.89 911.73 428.55 906.85 429.15 902.12 427.01 902.63 424.21 907.81 423.83" style="fill:#cad9e0"/><polygon points="914.29 420.3 918.68 422.36 918.2 425.02 913.33 425.62 908.6 423.48 909.11 420.68 914.29 420.3" style="fill:#cad9e0"/><path d="M868.26,458.89l11.93,5.94a.53.53,0,0,0,.76-.43l.23-3.35a1.14,1.14,0,0,0-.67-1.12l-11.67-5.39a.39.39,0,0,0-.56.34l-.15,3.78A.22.22,0,0,0,868.26,458.89Z" style="fill:#6c777a"/><line x1="869.13" y1="456.5" x2="879.5" y2="461.28" style="fill:#6c777a;stroke:#000;stroke-linecap:round;stroke-linejoin:round;stroke-width:2.972513885934754px"/><line x1="868.89" y1="458.42" x2="879.26" y2="463.2" style="fill:#6c777a;stroke:#000;stroke-linecap:round;stroke-linejoin:round;stroke-width:2.972513885934754px"/><line x1="868.89" y1="457.3" x2="879.26" y2="462.08" style="fill:#6c777a;stroke:#000;stroke-linecap:round;stroke-miterlimit:10;stroke-width:1.9816759239565027px"/><path d="M866.64,454.2l0,3.39a1,1,0,0,0,.57.88l.68.29.11-4.19a.55.55,0,0,0-.3-.51l-.43-.22A.42.42,0,0,0,866.64,454.2Z" style="fill:#ffffe8;stroke:#e6f9ff;stroke-linecap:round;stroke-linejoin:round;stroke-width:0.9908379619782514px"/><path d="M882.56,461.63l-.17,3.15a.43.43,0,0,1-.58.38l-.63-.21.22-4.07a.24.24,0,0,1,.34-.2l.36.18A.83.83,0,0,1,882.56,461.63Z" style="fill:#ffffe8;stroke:#e6f9ff;stroke-linecap:round;stroke-linejoin:round;stroke-width:0.9908379619782514px"/><path d="M894.23,453.42l-.33-7.75a.2.2,0,0,1,.11-.2l8.85-5.11a.22.22,0,0,1,.33.18l.25,7.41a.23.23,0,0,1-.11.2l-8.76,5.45A.22.22,0,0,1,894.23,453.42Z" style="fill:#8aa4ab;opacity:0.6392156862745098"/><path d="M903.93,448l-.33-7.75a.23.23,0,0,1,.11-.2l8.85-5.11a.23.23,0,0,1,.34.19l.25,7.41a.21.21,0,0,1-.11.19l-8.76,5.45A.23.23,0,0,1,903.93,448Z" style="fill:#8aa4ab;opacity:0.6392156862745098"/><path d="M913.64,442.54l-.33-7.76a.23.23,0,0,1,.11-.2l8.85-5.1a.21.21,0,0,1,.33.18l.25,7.41a.26.26,0,0,1-.1.2L914,442.71A.22.22,0,0,1,913.64,442.54Z" style="fill:#8aa4ab;opacity:0.6392156862745098"/><path d="M894,448s3.34-.45,5.32-.83a39.43,39.43,0,0,0,8.06-3.09c5.86-2.76,12-5.84,15.4-6.77.54-.72-2.37-.34-3.87.39-9.15,4.44-15.21,7.81-20.53,7.4a19,19,0,0,0-4.49.87Z" style="fill:#fff;stroke:#fff;stroke-miterlimit:10;stroke-width:0.9908379619782514px;opacity:0.4392156862745098"/><polygon points="913.12 441.98 912.99 439.8 913.5 439.77 913.63 441.94 913.12 441.98" style="fill:#fff;stroke:#fff;stroke-miterlimit:10;stroke-width:0.9908379619782514px"/><polygon points="903.42 446.01 903.28 443.84 903.79 443.81 903.93 445.98 903.42 446.01" style="fill:#fff;stroke:#fff;stroke-miterlimit:10;stroke-width:0.9908379619782514px"/><path d="M867.2,443.27l-.16,8.37a1.27,1.27,0,0,0,.77,1.19l12.68,5.51a.92.92,0,0,0,1.3-.81l.15-7.3a2.17,2.17,0,0,0-1.05-1.9l-12.95-5.55A.54.54,0,0,0,867.2,443.27Z" style="fill:#e8e8e8;opacity:0.3686274509803922"/><path d="M871.12,454.17a19.18,19.18,0,0,1,6.83-.5,8.43,8.43,0,0,0,3.92-.4l0,1.64s-1.78.7-5.58-.15a6.14,6.14,0,0,0-3.54.16Z" style="fill:#accfd9;opacity:0.5411764705882353"/><path d="M878,447.1a7.43,7.43,0,0,1-5.82.41c-1.92-.5-5.16,1.84-5.16,1.84v1.74a16.45,16.45,0,0,1,3.5-1c1.05,0,2.66.8,4,1.18a54.71,54.71,0,0,0,7.38.69,8.21,8.21,0,0,0-.18-2.63c-.21-.3-.31-.7-.66-.87C879.78,447.85,879.09,447.53,878,447.1Z" style="fill:#accfd9;opacity:0.7019607843137254"/><rect x="319.93" y="314.28" width="99.57" height="98.6" rx="22.9" style="fill:#f9ead1"/><path d="M353.87,386.74a6.07,6.07,0,0,1,.93-2.9,5.69,5.69,0,0,1,10.25,3,4.71,4.71,0,0,1-2.57,4.38,4.71,4.71,0,0,1,2.86,4.76,6.07,6.07,0,1,1-12.13.48h2.21a4.37,4.37,0,0,0,.72,2,3.69,3.69,0,0,0,3.08,1.48,3.94,3.94,0,0,0,3.91-4,3.5,3.5,0,0,0-2-3.31,5.25,5.25,0,0,0-2.27-.41v-2a4.4,4.4,0,0,0,2.27-.41,3.38,3.38,0,0,0-1.73-6.3,3.05,3.05,0,0,0-2.57,1.12,4,4,0,0,0-.78,2.07Z"/><path d="M371.67,389a1.48,1.48,0,1,1-1.49,1.48A1.51,1.51,0,0,1,371.67,389Zm0,10a1.48,1.48,0,1,1-1.49,1.48A1.51,1.51,0,0,1,371.67,399Z"/><path d="M383,383.93h-3.35l1.17-2.07h4.39V401.6H383Z"/><path d="M377.89,336.18c0-3.81-2.4-6.91-7.05-6.91a11.17,11.17,0,0,0-8.29,4.1l-3.49-3.09a16.41,16.41,0,0,1,12.51-6c7.34,0,12.21,4.39,12.21,11.51,0,9.43-11.71,13.25-10.54,23.25h-5.31C366.33,347.91,377.89,343.81,377.89,336.18ZM366.4,369.72a4.32,4.32,0,0,1,4.29-4.6,4.58,4.58,0,0,1,0,9.14A4.3,4.3,0,0,1,366.4,369.72Z"/><rect x="174.15" y="514.88" width="99.57" height="98.6" rx="22.9" style="fill:#f9ead1"/><path d="M203.28,565.41s-.12,7.39,21.64,8.62c13.32.75,19.67-7.21,19.67-7.21L241.27,555l-34.46-.71Z" style="fill:#050505"/><path d="M187.18,545.22l35.68-21.06a2.61,2.61,0,0,1,2.63,0L261.31,545a.58.58,0,0,1,0,1l-36.71,20.67a1.23,1.23,0,0,1-1.23,0l-36.17-20.5A.54.54,0,0,1,187.18,545.22Z" style="fill:#524e4e"/><ellipse cx="224.16" cy="542.95" rx="3.92" ry="1.55" style="fill:#252529"/><path d="M244.64,572.61l.38-17.06a.66.66,0,0,0-.3-.57L227.09,543.9a.7.7,0,0,0-.6-.06l-.66.26a.18.18,0,0,0,0,.32l17.43,11.4a.52.52,0,0,1,.24.45l-.3,16.24Z" style="fill:#ffd942"/><path d="M243.23,573.62l-2.56,7.27a.52.52,0,0,0,.48.69l5,.22a.67.67,0,0,0,.67-.9l-2.58-7.31Z" style="fill:#ffd942"/><ellipse cx="243.92" cy="573.37" rx="1.3" ry="1.28" style="fill:#ffd117"/><path d="M205.05,604.62l7.26-8.31c.51-.59,1.86-2.16,2.33-2.87a5,5,0,0,0,1.11-3,3.75,3.75,0,0,0-4-3.84,3.85,3.85,0,0,0-3.32,1.74,4.33,4.33,0,0,0-.66,2.34h-2.21a6.22,6.22,0,0,1,1.5-4.08A6.28,6.28,0,0,1,218,590.45a6.94,6.94,0,0,1-1.58,4.23c-.84,1.16-1.91,2.37-2.72,3.29l-4.15,4.64h8.42v2Z"/><path d="M223.93,592.05a1.48,1.48,0,1,1-1.49,1.48A1.51,1.51,0,0,1,223.93,592.05Zm0,10a1.48,1.48,0,1,1-1.49,1.48A1.51,1.51,0,0,1,223.93,602Z"/><path d="M235.28,587h-3.34l1.16-2.07h4.4v19.73h-2.22Z"/><rect x="99.44" y="958.25" width="99.57" height="98.6" rx="22.9" style="fill:#f9ead1"/><path d="M133.38,1030.71a6,6,0,0,1,.93-2.9,5.69,5.69,0,0,1,10.25,3,5.21,5.21,0,0,0,.3,9.15,6.18,6.18,0,0,1-11.69,2.54,5.92,5.92,0,0,1-.44-2.07h2.21a4.36,4.36,0,0,0,.71,2,3.71,3.71,0,0,0,3.08,1.48,3.93,3.93,0,0,0,3.91-4,3.49,3.49,0,0,0-2-3.32,5.22,5.22,0,0,0-2.27-.41v-2a4.38,4.38,0,0,0,2.27-.42,3.38,3.38,0,0,0-1.73-6.3,3.05,3.05,0,0,0-2.57,1.12,4,4,0,0,0-.78,2.08Z"/><path d="M151.19,1033a1.48,1.48,0,1,1-1.5,1.48A1.51,1.51,0,0,1,151.19,1033Zm0,10a1.48,1.48,0,1,1-1.5,1.48A1.52,1.52,0,0,1,151.19,1043Z"/><path d="M162.54,1027.9h-3.35l1.17-2.08h4.39v19.74h-2.21Z"/><path d="M157.4,980.14c0-3.81-2.4-6.9-7.05-6.9a11.15,11.15,0,0,0-8.29,4.1l-3.49-3.1a16.44,16.44,0,0,1,12.51-6c7.34,0,12.21,4.39,12.21,11.51,0,9.43-11.7,13.25-10.54,23.25h-5.31C145.84,991.88,157.4,987.77,157.4,980.14Zm-11.48,33.55a4.32,4.32,0,0,1,4.29-4.61,4.58,4.58,0,0,1,0,9.14A4.3,4.3,0,0,1,145.92,1013.69Z"/><rect x="150.16" y="1095.59" width="99.57" height="98.6" rx="22.9" style="fill:#f9ead1"/><path d="M181.07,1187.64l7.26-8.32c.51-.59,1.85-2.16,2.33-2.87a5,5,0,0,0,1.11-3,3.76,3.76,0,0,0-4-3.85,3.82,3.82,0,0,0-3.31,1.75,4.32,4.32,0,0,0-.66,2.33h-2.21a6.29,6.29,0,0,1,1.49-4.08,5.92,5.92,0,0,1,4.72-2,5.86,5.86,0,0,1,6.16,5.89,6.91,6.91,0,0,1-1.59,4.23c-.83,1.15-1.91,2.36-2.71,3.28l-4.16,4.65H194v2Z"/><path d="M200,1175.06a1.48,1.48,0,1,1-1.49,1.48A1.5,1.5,0,0,1,200,1175.06Zm0,10a1.48,1.48,0,1,1-1.49,1.48A1.51,1.51,0,0,1,200,1185Z"/><path d="M211.3,1170H208l1.16-2.08h4.39v19.74H211.3Z"/><path d="M194.78,1102.36l-10.64,6.22c-.1.07-.23.22-.12.28l23,13.2s.08-.23.13-.26l11.49-6c.11-.06,0-.18-.12-.24l-23.58-13.25A.15.15,0,0,0,194.78,1102.36Z" style="fill:#424242"/><path d="M218.9,1116l0,39.22a.41.41,0,0,1-.23.37l-11.73,5.74c-.15.07-.93.15-.93,0l.93-39.34a.28.28,0,0,1,.16-.25l11.53-5.9A.2.2,0,0,1,218.9,1116Z" style="fill:#262626"/><path d="M183.78,1109.12l-.11,39.24a.77.77,0,0,0,.39.67L206,1161.44a.41.41,0,0,0,.62-.35l.32-39.18a.33.33,0,0,0-.18-.31l-22.52-12.73A.29.29,0,0,0,183.78,1109.12Z" style="fill:#2b2b2b"/><line x1="185.97" y1="1114.42" x2="204.35" y2="1124.74" style="fill:#424242;stroke:#7f0;stroke-linecap:round;stroke-linejoin:round;stroke-width:0.9908379619782514px"/><line x1="185.97" y1="1120.08" x2="204.35" y2="1130.4" style="fill:#424242;stroke:#7f0;stroke-linecap:round;stroke-linejoin:round;stroke-width:0.9908379619782514px"/><line x1="185.97" y1="1124.46" x2="204.35" y2="1134.78" style="fill:#424242;stroke:#7f0;stroke-linecap:round;stroke-linejoin:round;stroke-width:0.9908379619782514px"/><line x1="185.97" y1="1129.34" x2="204.35" y2="1139.66" style="fill:#424242;stroke:#7f0;stroke-linecap:round;stroke-linejoin:round;stroke-width:0.9908379619782514px"/><line x1="185.97" y1="1135.2" x2="204.35" y2="1145.52" style="fill:#424242;stroke:#7f0;stroke-linecap:round;stroke-linejoin:round;stroke-width:0.9908379619782514px"/><line x1="185.97" y1="1140.36" x2="204.35" y2="1150.68" style="fill:#424242;stroke:#7f0;stroke-linecap:round;stroke-linejoin:round;stroke-width:0.9908379619782514px"/><line x1="185.97" y1="1145.52" x2="204.35" y2="1155.84" style="fill:#424242;stroke:#7f0;stroke-linecap:round;stroke-linejoin:round;stroke-width:0.9908379619782514px"/><line x1="185.97" y1="1117.07" x2="204.35" y2="1127.39" style="fill:#424242;stroke:#0084ff;stroke-linecap:round;stroke-linejoin:round;stroke-width:0.9908379619782514px"/><line x1="185.97" y1="1122.23" x2="204.35" y2="1132.55" style="fill:#424242;stroke:#0084ff;stroke-linecap:round;stroke-linejoin:round;stroke-width:0.9908379619782514px"/><line x1="186.11" y1="1127" x2="204.48" y2="1137.32" style="fill:#424242;stroke:#0084ff;stroke-linecap:round;stroke-linejoin:round;stroke-width:0.9908379619782514px"/><line x1="185.97" y1="1132.16" x2="204.35" y2="1142.48" style="fill:#424242;stroke:#0084ff;stroke-linecap:round;stroke-linejoin:round;stroke-width:0.9908379619782514px"/><line x1="185.97" y1="1137.69" x2="204.35" y2="1148.01" style="fill:#424242;stroke:#0084ff;stroke-linecap:round;stroke-linejoin:round;stroke-width:0.9908379619782514px"/><line x1="185.97" y1="1142.85" x2="204.35" y2="1153.17" style="fill:#424242;stroke:#0084ff;stroke-linecap:round;stroke-linejoin:round;stroke-width:0.9908379619782514px"/><rect x="319.93" y="1337.67" width="99.57" height="98.6" rx="22.9" style="fill:#f9ead1"/><path d="M353.87,1410.13a6.07,6.07,0,0,1,.93-2.9,5.69,5.69,0,0,1,10.25,3,5.21,5.21,0,0,0,.29,9.14,6.07,6.07,0,1,1-12.13.48h2.21a4.37,4.37,0,0,0,.72,2,3.69,3.69,0,0,0,3.08,1.48,3.94,3.94,0,0,0,3.91-4,3.5,3.5,0,0,0-2-3.31,5.25,5.25,0,0,0-2.27-.41v-2a4.4,4.4,0,0,0,2.27-.41,3.38,3.38,0,0,0-1.73-6.3,3.05,3.05,0,0,0-2.57,1.12,4,4,0,0,0-.78,2.07Z"/><path d="M371.67,1412.41a1.48,1.48,0,1,1-1.49,1.48A1.51,1.51,0,0,1,371.67,1412.41Zm0,10a1.48,1.48,0,1,1-1.49,1.48A1.51,1.51,0,0,1,371.67,1422.38Z"/><path d="M383,1407.32h-3.35l1.17-2.07h4.39V1425H383Z"/><path d="M377.89,1359.57c0-3.81-2.4-6.91-7.05-6.91a11.15,11.15,0,0,0-8.29,4.11l-3.49-3.1a16.44,16.44,0,0,1,12.51-6c7.34,0,12.21,4.39,12.21,11.51,0,9.43-11.71,13.25-10.54,23.25h-5.31C366.33,1371.31,377.89,1367.2,377.89,1359.57Zm-11.49,33.54a4.32,4.32,0,0,1,4.29-4.6,4.58,4.58,0,0,1,0,9.14A4.3,4.3,0,0,1,366.4,1393.11Z"/><rect x="624.47" y="1351.06" width="99.57" height="98.6" rx="22.9" style="fill:#f9ead1"/><path d="M656.45,1427.41a6,6,0,0,1,.93-2.9,5.69,5.69,0,0,1,10.25,3,5.21,5.21,0,0,0,.29,9.14,6.17,6.17,0,0,1-11.68,2.54,5.7,5.7,0,0,1-.44-2.07H658a4.36,4.36,0,0,0,.71,2,3.71,3.71,0,0,0,3.08,1.48,3.93,3.93,0,0,0,3.91-4,3.5,3.5,0,0,0-2-3.32,5.25,5.25,0,0,0-2.27-.41v-2a4.4,4.4,0,0,0,2.27-.42,3.38,3.38,0,0,0-1.73-6.3,3,3,0,0,0-2.57,1.13,3.9,3.9,0,0,0-.78,2.07Z"/><path d="M674.26,1429.69a1.48,1.48,0,1,1-1.5,1.47A1.51,1.51,0,0,1,674.26,1429.69Zm0,10a1.48,1.48,0,1,1-1.5,1.48A1.51,1.51,0,0,1,674.26,1439.66Z"/><path d="M685.61,1424.6h-3.35l1.17-2.07h4.39v19.73h-2.21Z"/><path d="M680.4,1373.58c0-3.81-2.4-6.9-7-6.9a11.14,11.14,0,0,0-8.29,4.1l-3.49-3.1a16.44,16.44,0,0,1,12.51-6c7.34,0,12.21,4.39,12.21,11.52,0,9.42-11.71,13.24-10.54,23.24h-5.31C668.84,1385.32,680.4,1381.21,680.4,1373.58Zm-11.49,33.55a4.32,4.32,0,0,1,4.29-4.61,4.58,4.58,0,0,1,0,9.14A4.3,4.3,0,0,1,668.91,1407.13Z"/><rect x="1011.2" y="690.56" width="99.57" height="98.6" rx="22.9" style="fill:#f9ead1"/><path d="M1045.14,763a6.07,6.07,0,0,1,.93-2.9,5.26,5.26,0,0,1,4.63-2.31,5.21,5.21,0,0,1,5.61,5.33,4.7,4.7,0,0,1-2.57,4.38c.69.26,2.87,1.36,2.87,4.76a6.17,6.17,0,0,1-11.68,2.55,5.72,5.72,0,0,1-.45-2.07h2.21a4.41,4.41,0,0,0,.72,2,3.72,3.72,0,0,0,3.08,1.48,3.94,3.94,0,0,0,3.91-4,3.5,3.5,0,0,0-2-3.31,5.25,5.25,0,0,0-2.27-.42v-2a4.5,4.5,0,0,0,2.27-.41,3.38,3.38,0,0,0-1.73-6.3,3,3,0,0,0-2.57,1.12,3.9,3.9,0,0,0-.78,2.07Z"/><path d="M1062.94,765.3a1.48,1.48,0,1,1-1.49,1.48A1.51,1.51,0,0,1,1062.94,765.3Zm0,10a1.48,1.48,0,1,1-1.49,1.48A1.51,1.51,0,0,1,1062.94,775.27Z"/><path d="M1074.3,760.21H1071l1.16-2.07h4.4v19.73h-2.21Z"/><path d="M1069.16,712.46c0-3.81-2.4-6.91-7.05-6.91a11.14,11.14,0,0,0-8.29,4.1l-3.49-3.09a16.4,16.4,0,0,1,12.5-6c7.35,0,12.22,4.39,12.22,11.52,0,9.43-11.71,13.24-10.54,23.25h-5.31C1057.6,724.19,1069.16,720.09,1069.16,712.46ZM1057.67,746a4.33,4.33,0,0,1,4.29-4.61,4.58,4.58,0,0,1,0,9.14A4.3,4.3,0,0,1,1057.67,746Z"/><rect x="931.25" y="1093.66" width="99.57" height="98.6" rx="22.9" style="fill:#f9ead1"/><path d="M962.16,1187.64l7.26-8.32c.51-.59,1.85-2.16,2.33-2.87a5,5,0,0,0,1.11-3,3.76,3.76,0,0,0-4-3.85,3.83,3.83,0,0,0-3.31,1.74,4.38,4.38,0,0,0-.66,2.34H962.7a6.29,6.29,0,0,1,1.49-4.08,5.92,5.92,0,0,1,4.72-2,5.86,5.86,0,0,1,6.16,5.89,6.91,6.91,0,0,1-1.59,4.23c-.83,1.15-1.91,2.36-2.71,3.28l-4.16,4.65H975v2Z"/><path d="M981,1175.06a1.48,1.48,0,1,1-1.49,1.48A1.5,1.5,0,0,1,981,1175.06Zm0,10a1.48,1.48,0,1,1-1.49,1.48A1.5,1.5,0,0,1,981,1185Z"/><path d="M992.39,1170h-3.34l1.16-2.07h4.39v19.74h-2.21Z"/><path d="M962.7,1105.55s-1.32.61-1.32,4.34c0,3,.16,24.79.16,24.79l3.87,2.44,23.79-16s.11-6.41.11-11.36c0-3.55-1.07-4.28-1.07-4.28a32.31,32.31,0,0,1-12.08,2.27C964.93,1107.79,962.7,1105.55,962.7,1105.55Z" style="fill:#ff2929"/><ellipse cx="975.61" cy="1105.52" rx="13.46" ry="4.29" style="fill:#ccc"/><path d="M961.38,1117.84c1.72-.75,1.56,3,13.79-3.23,10.49-5.3,13.9-3.16,13.9-3.16l.24,9.87a13.89,13.89,0,0,1-1.85,3.47,19.93,19.93,0,0,1-6.32,4.64c-1.13.5-2.49.53-3.63,1s-1.68-.1-2.67.45c-3.59,2-13,4.28-13.46,2" style="fill:#ff6161"/><path d="M964.56,1106v0a1.3,1.3,0,0,1,1.12-1.45L970,1104a1.3,1.3,0,0,1,1.46,1.11v0a1.29,1.29,0,0,1-1.12,1.44l-4.35.56A1.28,1.28,0,0,1,964.56,1106Z" style="fill:#b0b0b0"/><path d="M991,1120.87l3.19-2a.5.5,0,0,1,.5,0l25.37,14.79a.31.31,0,0,1,0,.56l-5.77,2.52Z" style="fill:#ffeb14"/><path d="M978.23,1158.08l-2.9,2.24a.64.64,0,0,1-.57,0l-25.59-15.15a.32.32,0,0,1,0-.56l3.3-1.66Z" style="fill:#ffeb14"/><path d="M1001.46,1151.9c-16.39,9-23.23,6.33-23.23,6.33s1.88-6.65,15.47-15.42c15.87-10.24,23.33-7.13,23.33-7.13S1017.19,1143.31,1001.46,1151.9Z" style="fill:#5d7557"/><path d="M952.18,1143.06s1.08-10.1,15.55-17.29c17.93-8.9,23.47-4.83,23.47-4.83l25.11,14.58s-7.72-2.09-22.59,7.43c-10.68,6.83-14.63,13.48-15.42,15a2.51,2.51,0,0,0-.15.31Z" style="fill:#8dad84"/><path d="M970.58,1128.62c1.95-2.94,10-4.92,15.52-1.69,6.1,3.55,8.79,8.69,6.33,13.12s-8.93,5.22-15.23,2C967.15,1137.05,967.66,1133,970.58,1128.62Z" style="fill:#2c14ff;opacity:0.5411764705882353"/><path d="M983,1129c.24-1.19-.81-1.73-2.26-1.93-1.59-1.1-5-.79-6.65,1s0,3.64,2.56,3.9S982.63,1130.77,983,1129Z" style="fill:#f0d400"/><path d="M990.68,1135.4a4,4,0,0,0-.65-2.11,4.55,4.55,0,0,0-.53-1,3.1,3.1,0,0,0-.94-1.63,3.24,3.24,0,0,0-5.16,1.1,5.25,5.25,0,0,0-.46,3.41,9.57,9.57,0,0,0,1.7,3.37,4.69,4.69,0,0,0,2.78,2.16,2.44,2.44,0,0,0,2.59-1.22A7.8,7.8,0,0,0,990.68,1135.4Z" style="fill:#f0d400"/><path d="M982.77,1138.1a2.26,2.26,0,0,0-1.08-1l-.09,0-.26-.23a10.92,10.92,0,0,0-1.79-.82.4.4,0,0,0-.12-.1,2.31,2.31,0,0,1-.66-1.07,3.91,3.91,0,0,0-.52-1.39,2.16,2.16,0,0,0-2.82-.19,4.18,4.18,0,0,0-1.93,2.89,3.68,3.68,0,0,0,1.39,3c1.49,1.44,4.57,3.29,7,1.56A2,2,0,0,0,982.77,1138.1Z" style="fill:#f0d400"/><path d="M672.39,312.7c-1.46,1.75-2.91,4.15-2.32,6.31,1,3.66,1.42,1.66,2.3.93,1.21-1,2.81-1.47,3.94-2.55a3.19,3.19,0,0,1,1.19-.85,5.9,5.9,0,0,0,0,2.11c.32,1.21.91.69,1.24.57a5.13,5.13,0,0,0,2.27-1.61c-.13.5,0,0-.11,1.8,0,1.45.72.64.89.57a5.16,5.16,0,0,0,1.63-1.14,3.66,3.66,0,0,0,.32,2.72,4.13,4.13,0,0,0,1.68.67c.59.16,1.29.5,1.33,1.1.17,2.71.47,2.46,1.41,1.45a10,10,0,0,0,1.72-2.73,8.45,8.45,0,0,0,.4-2.7,23,23,0,0,0-.09-2.87,7.25,7.25,0,0,0-1.63-4.5,4.39,4.39,0,0,0-.82-.66c-2.27-1.51-5.18-1.59-7.91-1.62a12,12,0,0,0-3.12.25,12.32,12.32,0,0,0-1.75.66A6.9,6.9,0,0,0,672.39,312.7Z" style="fill:#735341"/><rect x="630.34" y="300.15" width="99.57" height="98.6" rx="22.9" style="fill:#f9ead1"/><path d="M670.5,331.2s-2.86,1.82-3.64,4.16c-1.23,3.66-1.19,9.89-1.42,13.74A91.6,91.6,0,0,1,664,359.62a12.94,12.94,0,0,0,.33,4.58s4.64.43,4.82-.24a95.68,95.68,0,0,0,2.55-15.32,88.87,88.87,0,0,0,.48-10.81c0-.73-.11-1.46-.2-2.19a6.72,6.72,0,0,0-.63-2.3A20.18,20.18,0,0,1,670.5,331.2Z" style="fill:#d4635b"/><path d="M675.82,329.05c0,1.05.32,1.05.32,1.05a18.66,18.66,0,0,0,2.79,1.33c1.41.31,4.23.54,5.67.72.46.05,1.57-1.87,1.57-1.87s-.45,1.45-.18-3.92c.24-4.71.38-4.37.38-4.37s-1,1.46-5.38,4.84a3.65,3.65,0,0,1-4.71,0A4.72,4.72,0,0,0,675.82,329.05Z" style="fill:#c28461"/><path d="M695.6,335.67a6.54,6.54,0,0,0-2-3.07c-2.27-1.21-5-.85-7.43-.49a35.57,35.57,0,0,1-7.71.36.41.41,0,0,0-.32-.22,10.55,10.55,0,0,1-4.24-1.31c-1.09-.6-1.64-1.57-2.63-.7a11.19,11.19,0,0,0-3.16,7.88c0,5.43.73,8,.77,11.15,0,1.16-.64,5.78-1,8.63-.71,5.31-1.41,5.05-1.25,6.36.13,1.12,24.66.74,25.23-.64a19.16,19.16,0,0,0,1.34-5.24c-.15-2.48.57-3.72.56-6.22s-.61-4.73-.27-7.32c.17-1.27.31-2.56.5-3.84a12.35,12.35,0,0,1,1-3.4C695.4,336.68,695.92,336.68,695.6,335.67Z" style="fill:#ff675c"/><path d="M669.94,352.56l1.51-3.86a2.15,2.15,0,0,1,2.76-1.2l1.3.5a2.11,2.11,0,0,1,1.22,2.73l-1.52,3.86a2.13,2.13,0,0,1-2.75,1.2l-1.3-.5A2.11,2.11,0,0,1,669.94,352.56Z" style="fill:#dedede"/><path d="M690.71,331.51c-2.24,2.28-3.75,5.16-6,7.48-2,2.14-4.8,3.76-7.22,5.42A27.55,27.55,0,0,0,675,347c-.58-2-.51-5.43-.83-8.14a21.39,21.39,0,0,0-1.24-4.26c-.41-1.2-1.23-2.76-.65-4,.32-.72-.14-1.25-.49-.53a4.54,4.54,0,0,0,0,3.75,38.14,38.14,0,0,1,1.6,5.14,37.16,37.16,0,0,1,.45,8.3,1.78,1.78,0,0,0-1.56.12,2.24,2.24,0,0,0-.7,1l-.6,1.26a24.39,24.39,0,0,0-1.08,2.59,9.61,9.61,0,0,0-.36,1.3,1.47,1.47,0,0,0,.23,1.27,2.43,2.43,0,0,0,1,.64,8.64,8.64,0,0,0,1.33.44,6,6,0,0,0,1.4.24,1.54,1.54,0,0,0,1.23-.54,10,10,0,0,0,2.07-4.47,3.29,3.29,0,0,0,0-2.52,2.09,2.09,0,0,0-1.19-.86,25.87,25.87,0,0,1,5.88-5.18,20.52,20.52,0,0,0,3.35-2.68,23.5,23.5,0,0,0,3-3.34,39.58,39.58,0,0,1,3.34-4.3C691.81,331.51,691.37,330.83,690.71,331.51Zm-14.64,17a1.18,1.18,0,0,1,.45.81,2.89,2.89,0,0,1-.13,1.09,12.39,12.39,0,0,1-1.69,4.18,2.55,2.55,0,0,1-.73.77.52.52,0,0,1-.16.06c0-.07.05-.15.08-.22s.12-.28.17-.42c.11-.29.21-.58.29-.87a4.83,4.83,0,0,0,.16-1.81v0a1.19,1.19,0,0,0,.77-.49.7.7,0,0,0,.15-.19.93.93,0,0,0,.1-.37,1.6,1.6,0,0,0-.5-1.39c-.73-.71-2.25-1-2.88,0a1.5,1.5,0,0,0-.17,1,2.8,2.8,0,0,0,.23.69,2.65,2.65,0,0,0-1.11,1.16,8.59,8.59,0,0,0-.8,2,.76.76,0,0,1-.36-.56,3.49,3.49,0,0,1,.23-1.19,19,19,0,0,1,.9-2.38c.18-.39.36-.77.55-1.16s.34-.72.55-1.06a1,1,0,0,1,.71-.54,2.54,2.54,0,0,1,.94.12h0c1,.27.69.2,1.42.39l0,0A1.93,1.93,0,0,1,676.07,348.55Z" style="fill:#736b67"/><path d="M696.24,337.45a56.52,56.52,0,0,0,.19,7.2c.18,4.07.75,5.56-2.16,11.43a69.34,69.34,0,0,1-4.61,8.25s-1.9,0-5.19.4c.91-3.32,1.38-4.57,1.9-6.49.75-2.78,2.12-5.45,2.56-7.08.62-2.29.5-6.61-.31-10.44-.54-2.59.49-6.33,2.5-7.89a4.5,4.5,0,0,1,2.12-.53C695.18,332.25,696.43,335.22,696.24,337.45Z" style="fill:#d4655f"/><path d="M675.76,328.6c-.37-.59-1.89-.77-3-.3s-1.57.69-1.23,1.68c.1.3,3.16,1.91,5.55,2.52a40.82,40.82,0,0,0,9,0c2.28-.36,2.6-.79,4.78-.19.88.24,4,1.38,4.3.54.2-.51-.77-1.78-1.06-2.24-1.59-2.58-.27-.13-6.64-2.85-1.33-.57-1.23-.51-1.43.14s-.71,3-3.26,3.38a16.24,16.24,0,0,1-4.94-.45C675,329.58,676.14,329.19,675.76,328.6Z" style="fill:#a65550"/><path d="M671.64,312.5c-.44,5-.28,7.19,2,13.61a4.11,4.11,0,0,0,2,2.21,4.73,4.73,0,0,0,3.76-.24,43.66,43.66,0,0,0,8.29-7.13,11.08,11.08,0,0,0,1.41-2.37,9.75,9.75,0,0,0,.5-2.15,17.26,17.26,0,0,0,.69-3.25,4.09,4.09,0,0,0-.58-2.81,5.46,5.46,0,0,0-1.5-1.24,14.24,14.24,0,0,0-6-2.56,10.68,10.68,0,0,0-2.26,0,11.77,11.77,0,0,0-4.19,1.26C674.5,308.57,671.74,311.34,671.64,312.5Z" style="fill:#d1926d"/><path d="M661.25,393.1l7.26-8.31c.51-.59,1.85-2.16,2.33-2.87a5,5,0,0,0,1.11-3,3.76,3.76,0,0,0-4-3.85,3.82,3.82,0,0,0-3.31,1.75,4.33,4.33,0,0,0-.66,2.34h-2.21a6.3,6.3,0,0,1,1.49-4.09,6,6,0,0,1,4.72-2,5.86,5.86,0,0,1,6.16,5.89,7,7,0,0,1-1.58,4.23c-.84,1.15-1.92,2.37-2.72,3.28l-4.16,4.65h8.43v2Z"/><path d="M680.13,380.53a1.48,1.48,0,1,1-1.49,1.48A1.5,1.5,0,0,1,680.13,380.53Zm0,10a1.48,1.48,0,1,1-1.49,1.48A1.5,1.5,0,0,1,680.13,390.5Z"/><path d="M691.48,375.44h-3.34l1.16-2.07h4.39V393.1h-2.21Z"/><path d="M672.35,308.87c-1.46,1.77-2.91,4.21-2.32,6.4,1,3.71,1.42,1.68,2.3.94,1.22-1,2.82-1.48,4-2.59a3.06,3.06,0,0,1,1.19-.86,6.07,6.07,0,0,0,0,2.14c.32,1.23.91.7,1.24.58a5.23,5.23,0,0,0,2.29-1.63c-.13.5,0,0-.11,1.82-.06,1.48.72.65.89.58a5.21,5.21,0,0,0,1.64-1.16,3.66,3.66,0,0,0,.32,2.76,3.82,3.82,0,0,0,1.68.68c.6.17,1.3.51,1.34,1.12.17,2.75.47,2.49,1.41,1.47a9.89,9.89,0,0,0,1.73-2.77,8.69,8.69,0,0,0,.41-2.73,25.65,25.65,0,0,0-.1-2.91,7.4,7.4,0,0,0-1.63-4.57,4.43,4.43,0,0,0-.83-.67c-2.28-1.53-5.2-1.61-7.95-1.64a11.62,11.62,0,0,0-3.12.25,11,11,0,0,0-1.76.67A7,7,0,0,0,672.35,308.87Z" style="fill:#735341"/><rect x="863.85" y="1209.54" width="99.57" height="98.6" rx="22.9" style="fill:#f9ead1"/><path d="M894.76,1300.31,902,1292c.51-.59,1.85-2.16,2.33-2.87a5.07,5.07,0,0,0,1.1-3,3.76,3.76,0,0,0-4-3.85,3.86,3.86,0,0,0-3.32,1.74,4.47,4.47,0,0,0-.65,2.34H895.3a6.19,6.19,0,0,1,1.49-4.08,5.92,5.92,0,0,1,4.72-2,5.85,5.85,0,0,1,6.15,5.89,6.89,6.89,0,0,1-1.58,4.23c-.84,1.15-1.91,2.36-2.72,3.28l-4.15,4.65h8.42v2Z"/><path d="M913.64,1287.73a1.48,1.48,0,1,1-1.5,1.48A1.51,1.51,0,0,1,913.64,1287.73Zm0,10a1.48,1.48,0,1,1-1.5,1.48A1.51,1.51,0,0,1,913.64,1297.7Z"/><path d="M925,1282.64h-3.35l1.17-2.07h4.39v19.74H925Z"/><path d="M884.74,1240.73,927.3,1219a.72.72,0,0,1,.64,0l15,7c.09,0-.54.33-.63.38l-41.48,23.81a.71.71,0,0,1-.69,0L884.72,1242A.7.7,0,0,1,884.74,1240.73Z" style="fill:#a0d0de"/><path d="M901.32,1247.94l39.81-22.09a1.43,1.43,0,0,1,2.16,1.21l-.15,15.25a1.4,1.4,0,0,1-.67,1.16l-41,24.92c-1,.58-2.19.2-2.19-.89l1.22-17.13C900.48,1249.88,900.89,1248.19,901.32,1247.94Z" style="fill:#8fbcc9"/><path d="M940.59,1229.17l-.07,9.23c.19.47-.13.85-1.11,1.41l-27.85,16c-1.25.71-.84-.53-1.08-1.13l0-7.65c-.25-.62.35-1.88,1.68-2.59l26.67-15.16C939.53,1228.88,940.45,1228.83,940.59,1229.17Z" style="fill:#accfd9"/><path d="M931.89,1250s-1.65-4.53,1.3-6.53c4.44-3,6.52,1.66,6.52,1.66" style="fill:#1d6c80"/><path d="M906.85,1265.07s-.63-.61-.88-3.94a4.4,4.4,0,0,1,2.86-4.18c4.33-1.36,5.89,3.34,5.89,3.34" style="fill:#1d6c80"/><ellipse cx="910.31" cy="1261.19" rx="4.25" ry="4" transform="translate(-521.28 1869.33) rotate(-77.19)" style="fill:#292929"/><ellipse cx="910.96" cy="1261.71" rx="4.16" ry="3.52" transform="translate(-509.16 1898.12) rotate(-78.31)" style="fill:#666"/><ellipse cx="935.91" cy="1246.95" rx="4.25" ry="4" transform="translate(-487.46 1883.21) rotate(-77.19)" style="fill:#292929"/><ellipse cx="936.56" cy="1247.47" rx="4.16" ry="3.52" transform="translate(-474.8 1911.83) rotate(-78.31)" style="fill:#666"/><path d="M883.54,1259.85v-17.4a1.82,1.82,0,0,1,2.64-1.53l14.13,6.52a1.7,1.7,0,0,1,1,1.53v17.92a1.83,1.83,0,0,1-2.68,1.51l-14.13-7A1.72,1.72,0,0,1,883.54,1259.85Z" style="fill:#7b9ea8"/><path d="M902.47,1266.31l-.26-15.22a3.36,3.36,0,0,1,.3-1.53c.39-.54,3.07-1.41,3.19-1.11.72,1.65,1.4,9,1.28,9.09-2.42,1.86-.87,6.78-.87,6.78Z" style="fill:#6c777a"/><polygon points="898.12 1239.14 902.52 1241.21 902.04 1243.87 897.17 1244.46 892.43 1242.33 892.95 1239.53 898.12 1239.14" style="fill:#cad9e0"/><polygon points="904.87 1235.41 909.27 1237.48 908.79 1240.14 903.92 1240.74 899.18 1238.6 899.7 1235.8 904.87 1235.41" style="fill:#cad9e0"/><polygon points="911.86 1231.92 916.25 1233.99 915.77 1236.65 910.9 1237.25 906.17 1235.11 906.68 1232.31 911.86 1231.92" style="fill:#cad9e0"/><polygon points="918.42 1228.18 922.82 1230.24 922.34 1232.9 917.46 1233.5 912.73 1231.36 913.24 1228.56 918.42 1228.18" style="fill:#cad9e0"/><polygon points="925.13 1224.79 929.52 1226.86 929.04 1229.52 924.17 1230.11 919.43 1227.97 919.95 1225.18 925.13 1224.79" style="fill:#cad9e0"/><polygon points="931.6 1221.26 936 1223.33 935.52 1225.99 930.64 1226.58 925.91 1224.45 926.42 1221.65 931.6 1221.26" style="fill:#cad9e0"/><path d="M885.58,1259.86l11.93,5.93a.52.52,0,0,0,.75-.42l.23-3.36a1.14,1.14,0,0,0-.66-1.12l-11.67-5.39a.4.4,0,0,0-.56.34l-.16,3.79A.27.27,0,0,0,885.58,1259.86Z" style="fill:#6c777a"/><line x1="886.45" y1="1257.47" x2="896.82" y2="1262.25" style="fill:#6c777a;stroke:#000;stroke-linecap:round;stroke-linejoin:round;stroke-width:2.972513885934754px"/><line x1="886.2" y1="1259.38" x2="896.57" y2="1264.17" style="fill:#6c777a;stroke:#000;stroke-linecap:round;stroke-linejoin:round;stroke-width:2.972513885934754px"/><line x1="886.2" y1="1258.27" x2="896.57" y2="1263.05" style="fill:#6c777a;stroke:#000;stroke-linecap:round;stroke-miterlimit:10;stroke-width:1.9816759239565027px"/><path d="M884,1255.16l0,3.4a1,1,0,0,0,.58.87l.68.29.1-4.18a.54.54,0,0,0-.3-.51l-.43-.22A.4.4,0,0,0,884,1255.16Z" style="fill:#ffffe8;stroke:#e6f9ff;stroke-linecap:round;stroke-linejoin:round;stroke-width:0.9908379619782514px"/><path d="M899.87,1262.6l-.17,3.14a.43.43,0,0,1-.57.39l-.63-.22.22-4.07a.23.23,0,0,1,.33-.19l.37.18A.8.8,0,0,1,899.87,1262.6Z" style="fill:#ffffe8;stroke:#e6f9ff;stroke-linecap:round;stroke-linejoin:round;stroke-width:0.9908379619782514px"/><path d="M911.54,1254.38l-.33-7.75a.23.23,0,0,1,.11-.2l8.85-5.11a.23.23,0,0,1,.34.19l.24,7.41a.19.19,0,0,1-.1.19l-8.77,5.45A.22.22,0,0,1,911.54,1254.38Z" style="fill:#8aa4ab;opacity:0.6392156862745098"/><path d="M921.25,1248.91l-.33-7.75a.21.21,0,0,1,.11-.2l8.85-5.1a.21.21,0,0,1,.33.18l.25,7.41a.26.26,0,0,1-.1.2l-8.77,5.44A.22.22,0,0,1,921.25,1248.91Z" style="fill:#8aa4ab;opacity:0.6392156862745098"/><path d="M931,1243.5l-.33-7.75a.23.23,0,0,1,.11-.2l8.85-5.11a.23.23,0,0,1,.34.19l.25,7.41a.23.23,0,0,1-.11.19l-8.76,5.45A.23.23,0,0,1,931,1243.5Z" style="fill:#8aa4ab;opacity:0.6392156862745098"/><path d="M911.32,1249s3.35-.46,5.32-.84a38.86,38.86,0,0,0,8.06-3.09c5.87-2.75,12-5.83,15.4-6.76.55-.72-2.37-.34-3.87.39-9.14,4.44-15.21,7.81-20.53,7.39a18.91,18.91,0,0,0-4.49.88Z" style="fill:#fff;stroke:#fff;stroke-miterlimit:10;stroke-width:0.9908379619782514px;opacity:0.4392156862745098"/><polygon points="930.44 1242.94 930.3 1240.77 930.81 1240.74 930.95 1242.91 930.44 1242.94" style="fill:#fff;stroke:#fff;stroke-miterlimit:10;stroke-width:0.9908379619782514px"/><polygon points="920.73 1246.98 920.59 1244.81 921.11 1244.77 921.24 1246.95 920.73 1246.98" style="fill:#fff;stroke:#fff;stroke-miterlimit:10;stroke-width:0.9908379619782514px"/><path d="M884.51,1244.24l-.16,8.37a1.28,1.28,0,0,0,.77,1.18l12.69,5.52a.93.93,0,0,0,1.3-.82l.14-7.3a2.17,2.17,0,0,0-1-1.9l-13-5.54A.55.55,0,0,0,884.51,1244.24Z" style="fill:#e8e8e8;opacity:0.3686274509803922"/><path d="M888.44,1255.14a18.86,18.86,0,0,1,6.82-.5,8.34,8.34,0,0,0,3.92-.41l0,1.64s-1.77.71-5.57-.14a6.08,6.08,0,0,0-3.54.15Z" style="fill:#accfd9;opacity:0.5411764705882353"/><path d="M895.33,1248.06a7.45,7.45,0,0,1-5.81.42c-1.93-.5-5.17,1.83-5.17,1.83v1.75a16.45,16.45,0,0,1,3.5-1c1.06,0,2.67.8,4,1.17a55,55,0,0,0,7.39.69,8.45,8.45,0,0,0-.18-2.62c-.21-.31-.31-.71-.67-.88C897.09,1248.81,896.4,1248.49,895.33,1248.06Z" style="fill:#accfd9;opacity:0.7019607843137254"/></g></svg>