<svg xmlns="http://www.w3.org/2000/svg" width="1086.4" height="1000" viewBox="0 0 1086.4 1000"><g id="Ports"><path d="M539.52,141.58l52.49-35Z" style="fill:#9e9e9e;stroke:#000;stroke-miterlimit:10;stroke-width:7px;stroke-dasharray:6,6,6,6,6,6"/><path d="M624.2,185.23,623,118.44Z" style="fill:#9e9e9e;stroke:#000;stroke-miterlimit:10;stroke-width:7.545024156570435px;stroke-dasharray:6.467163562774658,6.467163562774658,6.467163562774658,6.467163562774658,6.467163562774658,6.467163562774658"/><line x1="307.17" y1="185.45" x2="306.88" y2="122.34" style="fill:#9e9e9e;stroke:#000;stroke-miterlimit:10;stroke-width:7px;stroke-dasharray:6,6,6,6,6,6"/><polyline points="386.24 137.62 333.91 103.03 386.24 137.62" style="fill:#9e9e9e;stroke:#000;stroke-miterlimit:10;stroke-width:7px;stroke-dasharray:6,6,6,6,6,6"/><line x1="230.03" y1="407.3" x2="158.42" y2="340.85" style="fill:#9e9e9e;stroke:#000;stroke-miterlimit:10;stroke-width:7px;stroke-dasharray:6,6,6,6,6,6"/><polyline points="233.04 309.83 170.32 309.83 233.04 309.83" style="fill:#9e9e9e;stroke:#000;stroke-miterlimit:10;stroke-width:7px;stroke-dasharray:6,6,6,6,6,6"/><line x1="238.38" y1="592.44" x2="182.74" y2="622.21" style="fill:#9e9e9e;stroke:#000;stroke-miterlimit:10;stroke-width:7px;stroke-dasharray:6,6,6,6,6,6"/><polyline points="233.92 684.75 178.61 655.17 233.92 684.75" style="fill:#9e9e9e;stroke:#000;stroke-miterlimit:10;stroke-width:7px;stroke-dasharray:6,6,6,6,6,6"/><line x1="308.71" y1="815.29" x2="310.22" y2="878.38" style="fill:#9e9e9e;stroke:#000;stroke-miterlimit:10;stroke-width:7px;stroke-dasharray:6,6,6,6,6,6"/><polyline points="389.11 860.86 337.79 896.92 389.11 860.86" style="fill:#9e9e9e;stroke:#000;stroke-miterlimit:10;stroke-width:7px;stroke-dasharray:6,6,6,6,6,6"/><line x1="540.05" y1="860.12" x2="592.36" y2="893.44" style="fill:#9e9e9e;stroke:#000;stroke-miterlimit:10;stroke-width:6.915039777755737px;stroke-dasharray:5.9271769523620605,5.9271769523620605,5.9271769523620605,5.9271769523620605,5.9271769523620605,5.9271769523620605"/><polyline points="620.25 817.85 622.23 880.54 620.25 817.85" style="fill:#9e9e9e;stroke:#000;stroke-miterlimit:10;stroke-width:6.915039777755737px;stroke-dasharray:5.9271769523620605,5.9271769523620605,5.9271769523620605,5.9271769523620605,5.9271769523620605,5.9271769523620605"/><line x1="774.06" y1="722.5" x2="826.84" y2="757.1" style="fill:#9e9e9e;stroke:#000;stroke-miterlimit:10;stroke-width:7px;stroke-dasharray:6,6,6,6,6,6"/><polyline points="857.23 682.22 857.75 744.94 857.23 682.22" style="fill:#9e9e9e;stroke:#000;stroke-miterlimit:10;stroke-width:7px;stroke-dasharray:6,6,6,6,6,6"/><line x1="935.7" y1="543.69" x2="1003.48" y2="506.68" style="fill:#9e9e9e;stroke:#000;stroke-miterlimit:10;stroke-width:6.852448225021362px;stroke-dasharray:5.8735270500183105,5.8735270500183105,5.8735270500183105,5.8735270500183105,5.8735270500183105,5.8735270500183105"/><polyline points="936.11 456.76 991.43 485.1 936.11 456.76" style="fill:#9e9e9e;stroke:#000;stroke-miterlimit:10;stroke-width:6.852448225021362px;stroke-dasharray:5.8735270500183105,5.8735270500183105,5.8735270500183105,5.8735270500183105,5.8735270500183105,5.8735270500183105"/><path d="M772.82,275.74l52.49-35Z" style="fill:#9e9e9e;stroke:#000;stroke-miterlimit:10;stroke-width:7px;stroke-dasharray:6,6,6,6,6,6"/><path d="M855.53,314.51l.8-80.25Z" style="fill:#9e9e9e;stroke:#000;stroke-miterlimit:10;stroke-width:6.881020325438165px;stroke-dasharray:5.898017406463623,5.898017406463623,5.898017406463623,5.898017406463623,5.898017406463623,5.898017406463623"/></g><g id="Intern"><rect x="86.63" y="257.15" width="100" height="100" rx="22.9" style="fill:#f9ead1"/><path d="M115.89,308.4s-.12,7.49,21.73,8.74c13.38.77,19.75-7.31,19.75-7.31l-3.33-12-34.61-.72Z" style="fill:#050505"/><path d="M99.72,287.93l35.84-21.37a2.6,2.6,0,0,1,2.64,0l36,21.13a.59.59,0,0,1,0,1l-36.87,21a1.25,1.25,0,0,1-1.24,0L99.73,288.88A.55.55,0,0,1,99.72,287.93Z" style="fill:#524e4e"/><ellipse cx="136.86" cy="285.62" rx="3.93" ry="1.57" style="fill:#252529"/><path d="M157.43,315.7l.38-17.3a.65.65,0,0,0-.3-.57L139.8,286.59a.64.64,0,0,0-.6-.06l-.66.25a.19.19,0,0,0,0,.34L156,298.67a.5.5,0,0,1,.24.46l-.3,16.48Z" style="fill:#ffd942"/><path d="M156,316.73l-2.57,7.37a.52.52,0,0,0,.48.7L159,325a.69.69,0,0,0,.68-.92l-2.59-7.41Z" style="fill:#ffd942"/><circle cx="156.7" cy="316.48" r="1.3" style="fill:#ffd117"/><path d="M117.67,348.17l7.29-8.43c.51-.6,1.86-2.19,2.34-2.91a5.15,5.15,0,0,0,1.11-3.06,3.79,3.79,0,0,0-4-3.9,3.85,3.85,0,0,0-3.33,1.77,4.44,4.44,0,0,0-.66,2.37h-2.22a6.37,6.37,0,0,1,1.5-4.14,6.29,6.29,0,0,1,10.92,3.93,7.06,7.06,0,0,1-1.59,4.29c-.84,1.17-1.92,2.4-2.73,3.33l-4.17,4.71h8.46v2Z"/><path d="M136.63,335.42a1.5,1.5,0,1,1-1.5,1.5A1.52,1.52,0,0,1,136.63,335.42Zm0,10.11a1.5,1.5,0,1,1-1.5,1.5A1.52,1.52,0,0,1,136.63,345.53Z"/><path d="M148,330.26h-3.36l1.17-2.1h4.41v20H148Z"/></g><g id="Server"><rect x="86.63" y="600.65" width="100" height="100" rx="22.9" style="fill:#f9ead1"/><path d="M117.67,694l7.29-8.43c.51-.6,1.86-2.19,2.34-2.91a5.15,5.15,0,0,0,1.11-3.06,3.79,3.79,0,0,0-4-3.9,3.85,3.85,0,0,0-3.33,1.77,4.44,4.44,0,0,0-.66,2.37h-2.22a6.37,6.37,0,0,1,1.5-4.14,6.29,6.29,0,0,1,10.92,3.93,7.06,7.06,0,0,1-1.59,4.29c-.84,1.17-1.92,2.4-2.73,3.33L122.14,692h8.46v2Z"/><path d="M136.63,681.26a1.5,1.5,0,1,1-1.5,1.5A1.52,1.52,0,0,1,136.63,681.26Zm0,10.11a1.5,1.5,0,1,1-1.5,1.5A1.52,1.52,0,0,1,136.63,691.37Z"/><path d="M148,676.1h-3.36l1.17-2.1h4.41v20H148Z"/><path d="M131.44,607.52l-10.68,6.31c-.11.06-.24.22-.13.28l23.1,13.39c.05,0,.08-.24.13-.26l11.54-6c.11-.06,0-.18-.12-.25L131.6,607.52A.15.15,0,0,0,131.44,607.52Z" style="fill:#424242"/><path d="M155.66,621.36l0,39.78a.4.4,0,0,1-.23.37l-11.78,5.82c-.15.08-.94.16-.93,0l.93-39.9a.27.27,0,0,1,.16-.25l11.58-6A.2.2,0,0,1,155.66,621.36Z" style="fill:#262626"/><path d="M120.39,614.38l-.11,39.79a.79.79,0,0,0,.39.68l22,12.59a.41.41,0,0,0,.62-.36l.32-39.73a.34.34,0,0,0-.18-.32l-22.61-12.91A.3.3,0,0,0,120.39,614.38Z" style="fill:#2b2b2b"/><line x1="122.59" y1="619.76" x2="141.05" y2="630.22" style="fill:#424242;stroke:#7f0;stroke-linecap:round;stroke-linejoin:round"/><line x1="122.59" y1="625.49" x2="141.05" y2="635.96" style="fill:#424242;stroke:#7f0;stroke-linecap:round;stroke-linejoin:round"/><line x1="122.59" y1="629.93" x2="141.05" y2="640.4" style="fill:#424242;stroke:#7f0;stroke-linecap:round;stroke-linejoin:round"/><line x1="122.59" y1="634.89" x2="141.05" y2="645.35" style="fill:#424242;stroke:#7f0;stroke-linecap:round;stroke-linejoin:round"/><line x1="122.59" y1="640.83" x2="141.05" y2="651.29" style="fill:#424242;stroke:#7f0;stroke-linecap:round;stroke-linejoin:round"/><line x1="122.59" y1="646.06" x2="141.05" y2="656.53" style="fill:#424242;stroke:#7f0;stroke-linecap:round;stroke-linejoin:round"/><line x1="122.59" y1="651.29" x2="141.05" y2="661.76" style="fill:#424242;stroke:#7f0;stroke-linecap:round;stroke-linejoin:round"/><line x1="122.59" y1="622.44" x2="141.05" y2="632.9" style="fill:#424242;stroke:#0084ff;stroke-linecap:round;stroke-linejoin:round"/><line x1="122.59" y1="627.67" x2="141.05" y2="638.14" style="fill:#424242;stroke:#0084ff;stroke-linecap:round;stroke-linejoin:round"/><line x1="122.73" y1="632.51" x2="141.18" y2="642.98" style="fill:#424242;stroke:#0084ff;stroke-linecap:round;stroke-linejoin:round"/><line x1="122.59" y1="637.75" x2="141.05" y2="648.21" style="fill:#424242;stroke:#0084ff;stroke-linecap:round;stroke-linejoin:round"/><line x1="122.59" y1="643.35" x2="141.05" y2="653.82" style="fill:#424242;stroke:#0084ff;stroke-linecap:round;stroke-linejoin:round"/><line x1="122.59" y1="648.59" x2="141.05" y2="659.05" style="fill:#424242;stroke:#0084ff;stroke-linecap:round;stroke-linejoin:round"/></g><g id="Wilds"><rect x="242.76" y="33.84" width="100" height="100" rx="22.9" style="fill:#f9ead1"/><path d="M276.85,107.34a6.19,6.19,0,0,1,.93-2.94,5.7,5.7,0,0,1,10.29,3.06,4.79,4.79,0,0,1-2.58,4.44c.69.27,2.88,1.38,2.88,4.83a6.09,6.09,0,1,1-12.18.48h2.22a4.49,4.49,0,0,0,.72,2,3.7,3.7,0,0,0,3.09,1.5,4,4,0,0,0,3.93-4,3.55,3.55,0,0,0-2-3.36,5.16,5.16,0,0,0-2.28-.42v-2a4.44,4.44,0,0,0,2.28-.42,3.44,3.44,0,0,0-1.74-6.39,3,3,0,0,0-2.58,1.14,4,4,0,0,0-.78,2.1Z"/><path d="M294.73,109.65a1.5,1.5,0,1,1-1.5,1.5A1.52,1.52,0,0,1,294.73,109.65Zm0,10.11a1.5,1.5,0,1,1-1.5,1.5A1.52,1.52,0,0,1,294.73,119.76Z"/><path d="M306.13,104.49h-3.36l1.17-2.1h4.41v20h-2.22Z"/><path d="M301,56.05c0-3.87-2.41-7-7.08-7a11.14,11.14,0,0,0-8.32,4.17l-3.51-3.14A16.41,16.41,0,0,1,294.62,44c7.37,0,12.26,4.45,12.26,11.68,0,9.56-11.75,13.43-10.58,23.58H291C289.36,68,301,63.79,301,56.05Zm-11.53,34a4.36,4.36,0,0,1,4.3-4.67,4.64,4.64,0,0,1,0,9.27A4.34,4.34,0,0,1,289.44,90.07Z"/><rect x="252.59" y="867.18" width="100" height="100" rx="22.9" style="fill:#f9ead1"/><path d="M286.68,940.67a6.19,6.19,0,0,1,.93-2.94,5.7,5.7,0,0,1,10.29,3.06,4.79,4.79,0,0,1-2.58,4.44c.69.27,2.88,1.38,2.88,4.83a6.09,6.09,0,1,1-12.18.48h2.22a4.49,4.49,0,0,0,.72,2,3.7,3.7,0,0,0,3.09,1.5,4,4,0,0,0,3.93-4,3.55,3.55,0,0,0-2-3.36,5.16,5.16,0,0,0-2.28-.42v-2a4.44,4.44,0,0,0,2.28-.42,3.44,3.44,0,0,0-1.74-6.39,3,3,0,0,0-2.58,1.14,4,4,0,0,0-.78,2.1Z"/><path d="M304.56,943a1.5,1.5,0,1,1-1.5,1.5A1.52,1.52,0,0,1,304.56,943Zm0,10.11a1.5,1.5,0,1,1-1.5,1.5A1.52,1.52,0,0,1,304.56,953.09Z"/><path d="M316,937.82H312.6l1.17-2.1h4.41v20H316Z"/><path d="M310.8,889.39c0-3.87-2.41-7-7.08-7a11.13,11.13,0,0,0-8.32,4.16l-3.51-3.14a16.44,16.44,0,0,1,12.56-6.06c7.37,0,12.26,4.45,12.26,11.68,0,9.56-11.75,13.43-10.58,23.58H300.8C299.19,901.29,310.8,897.12,310.8,889.39Zm-11.53,34a4.37,4.37,0,0,1,4.3-4.67,4.64,4.64,0,0,1,0,9.27A4.34,4.34,0,0,1,299.27,923.4Z"/><rect x="967.66" y="442.44" width="100" height="100" rx="22.9" style="fill:#f9ead1"/><path d="M1001.74,515.93a6.19,6.19,0,0,1,.93-2.94,5.7,5.7,0,0,1,10.29,3.06,4.79,4.79,0,0,1-2.58,4.44c.69.27,2.88,1.38,2.88,4.83a6.09,6.09,0,1,1-12.18.48h2.22a4.49,4.49,0,0,0,.72,2,3.7,3.7,0,0,0,3.09,1.5,4,4,0,0,0,3.93-4,3.55,3.55,0,0,0-2-3.36,5.16,5.16,0,0,0-2.28-.42v-2a4.44,4.44,0,0,0,2.28-.42,3.44,3.44,0,0,0-1.74-6.39,3,3,0,0,0-2.58,1.14,4,4,0,0,0-.78,2.1Z"/><path d="M1019.62,518.24a1.5,1.5,0,1,1-1.5,1.5A1.52,1.52,0,0,1,1019.62,518.24Zm0,10.11a1.5,1.5,0,1,1-1.5,1.5A1.52,1.52,0,0,1,1019.62,528.35Z"/><path d="M1031,513.08h-3.36l1.17-2.1h4.41v20H1031Z"/><path d="M1025.86,464.65c0-3.87-2.41-7-7.08-7a11.13,11.13,0,0,0-8.32,4.16l-3.5-3.14a16.41,16.41,0,0,1,12.55-6.06c7.38,0,12.27,4.45,12.27,11.68,0,9.56-11.76,13.43-10.59,23.58h-5.33C1014.26,476.54,1025.86,472.38,1025.86,464.65Zm-11.53,34a4.37,4.37,0,0,1,4.31-4.67,4.64,4.64,0,0,1,0,9.27A4.35,4.35,0,0,1,1014.33,498.66Z"/><rect x="568.84" y="869.98" width="100" height="100" rx="22.9" style="fill:#f9ead1"/><path d="M602.93,943.48a6.19,6.19,0,0,1,.93-2.94,5.7,5.7,0,0,1,10.29,3.06,4.79,4.79,0,0,1-2.58,4.44c.69.27,2.88,1.38,2.88,4.83a6.09,6.09,0,1,1-12.18.48h2.22a4.49,4.49,0,0,0,.72,2,3.7,3.7,0,0,0,3.09,1.5,4,4,0,0,0,3.93-4.05,3.55,3.55,0,0,0-2-3.36A5.16,5.16,0,0,0,608,949v-2a4.44,4.44,0,0,0,2.28-.42,3.44,3.44,0,0,0-1.74-6.39,3,3,0,0,0-2.58,1.14,4,4,0,0,0-.78,2.1Z"/><path d="M620.81,945.79a1.5,1.5,0,1,1-1.5,1.5A1.52,1.52,0,0,1,620.81,945.79Zm0,10.11a1.5,1.5,0,1,1-1.5,1.5A1.52,1.52,0,0,1,620.81,955.9Z"/><path d="M632.21,940.63h-3.36l1.17-2.1h4.41v20h-2.22Z"/><path d="M627.05,892.19c0-3.87-2.41-7-7.08-7a11.14,11.14,0,0,0-8.32,4.17l-3.51-3.14a16.41,16.41,0,0,1,12.56-6.06c7.37,0,12.26,4.45,12.26,11.68,0,9.56-11.75,13.43-10.58,23.58h-5.33C615.44,904.09,627.05,899.93,627.05,892.19Zm-11.53,34a4.36,4.36,0,0,1,4.3-4.67,4.64,4.64,0,0,1,0,9.27A4.34,4.34,0,0,1,615.52,926.21Z"/></g><g id="Dev"><rect x="578.54" y="21.37" width="100" height="100" rx="22.9" style="fill:#f9ead1"/><path d="M618.87,52.86s-2.87,1.85-3.66,4.22c-1.24,3.71-1.2,10-1.43,13.94a94.8,94.8,0,0,1-1.44,10.67,13,13,0,0,0,.33,4.64s4.66.44,4.84-.24a98.39,98.39,0,0,0,2.56-15.54,91.36,91.36,0,0,0,.49-11c0-.75-.12-1.49-.21-2.23a7,7,0,0,0-.63-2.33A18.52,18.52,0,0,1,618.87,52.86Z" style="fill:#d4635b"/><path d="M624.21,50.68c0,1.07.32,1.07.32,1.07a19.59,19.59,0,0,0,2.8,1.35c1.42.3,4.25.55,5.7.72.46.06,1.57-1.89,1.57-1.89s-.45,1.47-.18-4c.24-4.78.38-4.43.38-4.43s-1,1.48-5.4,4.91a3.64,3.64,0,0,1-4.73,0A4.84,4.84,0,0,0,624.21,50.68Z" style="fill:#c28461"/><path d="M644.07,57.4a6.67,6.67,0,0,0-2-3.12c-2.28-1.23-5-.86-7.47-.49a35.85,35.85,0,0,1-7.74.36.37.37,0,0,0-.32-.22,10.88,10.88,0,0,1-4.26-1.33c-1.09-.61-1.65-1.6-2.64-.71a11.37,11.37,0,0,0-3.18,8c0,5.51.74,8.11.77,11.31,0,1.17-.63,5.86-1,8.75-.72,5.38-1.42,5.12-1.27,6.45.14,1.14,24.77.76,25.35-.65a20,20,0,0,0,1.35-5.31c-.15-2.52.56-3.78.55-6.31s-.61-4.8-.26-7.42c.17-1.3.31-2.6.49-3.9a13.06,13.06,0,0,1,1-3.45C643.87,58.41,644.39,58.42,644.07,57.4Z" style="fill:#ff675c"/><rect x="618.87" y="69.36" width="5.68" height="8.48" rx="2.13" transform="translate(68.82 -220.09) rotate(21.23)" style="fill:#dedede"/><path d="M639.16,53.17c-2.25,2.32-3.77,5.24-6,7.59-2,2.18-4.81,3.81-7.24,5.5a29.38,29.38,0,0,0-2.58,2.65c-.58-2-.5-5.5-.83-8.25a21.94,21.94,0,0,0-1.24-4.32c-.42-1.22-1.24-2.8-.66-4.09.32-.73-.13-1.27-.49-.53a4.64,4.64,0,0,0,0,3.79,38.27,38.27,0,0,1,1.61,5.22,38.23,38.23,0,0,1,.45,8.42,1.77,1.77,0,0,0-1.57.12,2.42,2.42,0,0,0-.7,1c-.2.43-.41.85-.6,1.28a25.11,25.11,0,0,0-1.09,2.63,10.18,10.18,0,0,0-.36,1.31,1.48,1.48,0,0,0,.24,1.29,2.5,2.5,0,0,0,1,.66,9.13,9.13,0,0,0,1.34.44,6.61,6.61,0,0,0,1.41.25,1.61,1.61,0,0,0,1.24-.55A10.19,10.19,0,0,0,625.17,73a3.36,3.36,0,0,0,0-2.55,2.13,2.13,0,0,0-1.2-.88,26.12,26.12,0,0,1,5.91-5.25,20.77,20.77,0,0,0,3.36-2.71,24.53,24.53,0,0,0,3-3.39,38.31,38.31,0,0,1,3.36-4.36C640.26,53.18,639.83,52.49,639.16,53.17Zm-14.7,17.28a1.31,1.31,0,0,1,.46.83,3,3,0,0,1-.14,1.11,12.64,12.64,0,0,1-1.69,4.23,2.63,2.63,0,0,1-.74.78l-.16.07c0-.08,0-.15.08-.22s.12-.29.17-.44a9.06,9.06,0,0,0,.29-.88,4.94,4.94,0,0,0,.17-1.83.08.08,0,0,1,0,0,1.2,1.2,0,0,0,.78-.5.7.7,0,0,0,.15-.19.93.93,0,0,0,.1-.38,1.63,1.63,0,0,0-.51-1.4c-.72-.73-2.25-1-2.88,0a1.5,1.5,0,0,0-.18,1,2.36,2.36,0,0,0,.24.69,2.71,2.71,0,0,0-1.12,1.18,9,9,0,0,0-.8,2.05.73.73,0,0,1-.36-.56,3.37,3.37,0,0,1,.23-1.21,18.32,18.32,0,0,1,.9-2.41c.18-.4.36-.79.55-1.18s.34-.73.55-1.07a1,1,0,0,1,.72-.56,2.55,2.55,0,0,1,.94.13h0c1,.27.69.2,1.42.39l.06,0A2.23,2.23,0,0,1,624.46,70.45Z" style="fill:#736b67"/><path d="M644.72,59.2a60.46,60.46,0,0,0,.18,7.3c.19,4.13.76,5.64-2.17,11.6a71.76,71.76,0,0,1-4.62,8.37s-1.91,0-5.21.4c.91-3.37,1.38-4.64,1.9-6.58.76-2.82,2.14-5.54,2.58-7.19.61-2.32.49-6.7-.31-10.59-.55-2.62.49-6.41,2.5-8A4.43,4.43,0,0,1,641.7,54C643.66,53.93,644.9,56.94,644.72,59.2Z" style="fill:#d4655f"/><path d="M624.15,50.22c-.38-.6-1.9-.78-3-.3s-1.58.7-1.24,1.71c.1.3,3.18,1.93,5.57,2.55a40.61,40.61,0,0,0,9,0c2.29-.35,2.61-.79,4.8-.18.89.24,4,1.4,4.32.54.2-.51-.77-1.8-1.06-2.27-1.6-2.62-.28-.13-6.67-2.89-1.34-.58-1.24-.51-1.43.14s-.72,3.09-3.28,3.43a16.34,16.34,0,0,1-5-.45C623.41,51.22,624.53,50.82,624.15,50.22Z" style="fill:#a65550"/><path d="M620,33.9c-.44,5.1-.28,7.29,2,13.8a4.16,4.16,0,0,0,2,2.24,4.74,4.74,0,0,0,3.78-.24,43.76,43.76,0,0,0,8.33-7.23,10.73,10.73,0,0,0,1.41-2.41,9.36,9.36,0,0,0,.51-2.18,17.83,17.83,0,0,0,.69-3.29,4.14,4.14,0,0,0-.59-2.85,5.18,5.18,0,0,0-1.49-1.26,14.23,14.23,0,0,0-6-2.6,10.13,10.13,0,0,0-2.27.05,11.44,11.44,0,0,0-4.21,1.27C622.89,29.91,620.11,32.72,620,33.9Z" style="fill:#d1926d"/><path d="M620.76,30.09c-1.46,1.78-2.91,4.22-2.32,6.41,1,3.71,1.42,1.68,2.3.94,1.22-1,2.82-1.48,4-2.59a3.1,3.1,0,0,1,1.18-.86,5.82,5.82,0,0,0,0,2.14c.32,1.23.91.7,1.24.58a5.2,5.2,0,0,0,2.28-1.63c-.13.5,0,0-.11,1.82-.05,1.48.72.65.89.58a5,5,0,0,0,1.64-1.16,3.76,3.76,0,0,0,.32,2.76,3.92,3.92,0,0,0,1.69.68c.59.17,1.3.51,1.34,1.12.17,2.75.47,2.49,1.41,1.47a10.12,10.12,0,0,0,1.73-2.77,8.68,8.68,0,0,0,.4-2.73,23.46,23.46,0,0,0-.09-2.91A7.4,7.4,0,0,0,637,29.37a4.93,4.93,0,0,0-.83-.68c-2.28-1.52-5.2-1.6-8-1.63a8.88,8.88,0,0,0-4.89.92A7.07,7.07,0,0,0,620.76,30.09Z" style="fill:#735341"/><path d="M609.58,115.64l7.29-8.43c.51-.6,1.86-2.19,2.34-2.91a5.15,5.15,0,0,0,1.11-3.06,3.79,3.79,0,0,0-4-3.9A3.85,3.85,0,0,0,613,99.11a4.44,4.44,0,0,0-.66,2.37h-2.22a6.37,6.37,0,0,1,1.5-4.14,6.29,6.29,0,0,1,10.92,3.93,7.06,7.06,0,0,1-1.59,4.29c-.84,1.17-1.92,2.4-2.73,3.33l-4.17,4.71h8.46v2Z"/><path d="M628.54,102.89a1.5,1.5,0,1,1-1.5,1.5A1.52,1.52,0,0,1,628.54,102.89Zm0,10.11a1.5,1.5,0,1,1-1.5,1.5A1.52,1.52,0,0,1,628.54,113Z"/><path d="M639.94,97.73h-3.36l1.17-2.1h4.41v20h-2.22Z"/></g><g id="Shuttle"><rect x="814.57" y="144.24" width="100" height="100" rx="22.9" style="fill:#f9ead1"/><path d="M845.61,236.3l7.29-8.43c.51-.6,1.86-2.19,2.34-2.91a5.15,5.15,0,0,0,1.11-3.06,3.79,3.79,0,0,0-4-3.9,3.85,3.85,0,0,0-3.33,1.77,4.44,4.44,0,0,0-.66,2.37h-2.22a6.37,6.37,0,0,1,1.5-4.14,6.29,6.29,0,0,1,10.92,3.93,7.06,7.06,0,0,1-1.59,4.29c-.84,1.17-1.92,2.4-2.73,3.33l-4.17,4.71h8.46v2Z"/><path d="M864.57,223.55a1.5,1.5,0,1,1-1.5,1.5A1.52,1.52,0,0,1,864.57,223.55Zm0,10.11a1.5,1.5,0,1,1-1.5,1.5A1.52,1.52,0,0,1,864.57,233.66Z"/><path d="M876,218.39h-3.36l1.17-2.1h4.41v20H876Z"/><path d="M835.55,175.88l42.74-22.06a.74.74,0,0,1,.65,0l15,7.1c.1.05-.54.33-.63.38l-41.66,24.15a.71.71,0,0,1-.69,0l-15.45-8.33A.7.7,0,0,1,835.55,175.88Z" style="fill:#a0d0de"/><path d="M852.21,183.19l40-22.4a1.43,1.43,0,0,1,2.17,1.22l-.15,15.47a1.39,1.39,0,0,1-.67,1.17l-41.21,25.28c-1,.58-2.2.2-2.2-.9l1.23-17.38C851.36,185.16,851.77,183.44,852.21,183.19Z" style="fill:#8fbcc9"/><path d="M891.64,164.15l-.07,9.36c.19.48-.12.87-1.11,1.44l-28,16.21c-1.25.72-.85-.54-1.09-1.15l0-7.75c-.25-.64.34-1.91,1.68-2.63l26.78-15.37C890.58,163.86,891.5,163.8,891.64,164.15Z" style="fill:#accfd9"/><path d="M882.91,185.23s-1.66-4.6,1.3-6.63c4.46-3.06,6.55,1.68,6.55,1.68" style="fill:#1d6c80"/><path d="M857.76,200.56s-.63-.62-.89-4a4.47,4.47,0,0,1,2.88-4.23c4.35-1.38,5.91,3.38,5.91,3.38" style="fill:#1d6c80"/><ellipse cx="861.23" cy="196.63" rx="4.31" ry="4.02" transform="translate(503.09 1004.17) rotate(-78.94)" style="fill:#292929"/><ellipse cx="861.88" cy="197.15" rx="4.22" ry="3.53" transform="translate(503.11 1005.23) rotate(-78.94)" style="fill:#666"/><ellipse cx="886.94" cy="182.19" rx="4.31" ry="4.02" transform="translate(538.05 1017.73) rotate(-78.94)" style="fill:#292929"/><ellipse cx="887.59" cy="182.71" rx="4.22" ry="3.53" transform="translate(538.06 1018.79) rotate(-78.94)" style="fill:#666"/><path d="M834.35,195.27V177.62a1.84,1.84,0,0,1,2.65-1.56l14.19,6.62a1.74,1.74,0,0,1,1,1.56v18.17a1.84,1.84,0,0,1-2.7,1.53l-14.19-7.14A1.74,1.74,0,0,1,834.35,195.27Z" style="fill:#7b9ea8"/><path d="M853.36,201.82l-.27-15.44a3.49,3.49,0,0,1,.31-1.55c.39-.55,3.08-1.42,3.21-1.12.71,1.67,1.4,9.12,1.28,9.22-2.43,1.88-.87,6.88-.87,6.88Z" style="fill:#6c777a"/><polygon points="849 174.26 853.41 176.36 852.92 179.06 848.03 179.66 843.28 177.49 843.79 174.66 849 174.26" style="fill:#cad9e0"/><polygon points="855.77 170.49 860.19 172.58 859.71 175.28 854.81 175.88 850.06 173.72 850.57 170.88 855.77 170.49" style="fill:#cad9e0"/><polygon points="862.79 166.94 867.2 169.04 866.72 171.74 861.83 172.34 857.07 170.18 857.59 167.34 862.79 166.94" style="fill:#cad9e0"/><polygon points="869.38 163.14 873.79 165.24 873.31 167.94 868.42 168.54 863.66 166.37 864.18 163.54 869.38 163.14" style="fill:#cad9e0"/><polygon points="876.11 159.71 880.53 161.81 880.04 164.5 875.15 165.11 870.4 162.94 870.91 160.1 876.11 159.71" style="fill:#cad9e0"/><polygon points="882.62 156.13 887.03 158.23 886.55 160.93 881.65 161.53 876.9 159.36 877.42 156.52 882.62 156.13" style="fill:#cad9e0"/><path d="M836.39,195.27l12,6a.52.52,0,0,0,.75-.43l.24-3.4a1.17,1.17,0,0,0-.67-1.13L837,190.86a.4.4,0,0,0-.57.34l-.15,3.84A.24.24,0,0,0,836.39,195.27Z" style="fill:#6c777a"/><line x1="837.27" y1="192.85" x2="847.68" y2="197.7" style="fill:#6c777a;stroke:#000;stroke-linecap:round;stroke-linejoin:round;stroke-width:3px"/><line x1="837.02" y1="194.8" x2="847.44" y2="199.65" style="fill:#6c777a;stroke:#000;stroke-linecap:round;stroke-linejoin:round;stroke-width:3px"/><line x1="837.02" y1="193.66" x2="847.44" y2="198.51" style="fill:#6c777a;stroke:#000;stroke-linecap:round;stroke-miterlimit:10;stroke-width:2px"/><path d="M834.77,190.51l0,3.45a1,1,0,0,0,.58.88l.68.3.11-4.25a.56.56,0,0,0-.31-.51l-.43-.22A.4.4,0,0,0,834.77,190.51Z" style="fill:#ffffe8;stroke:#e6f9ff;stroke-linecap:round;stroke-linejoin:round"/><path d="M850.75,198.06l-.17,3.18a.43.43,0,0,1-.58.39l-.63-.21.22-4.13a.24.24,0,0,1,.34-.2l.36.18A.83.83,0,0,1,850.75,198.06Z" style="fill:#ffffe8;stroke:#e6f9ff;stroke-linecap:round;stroke-linejoin:round"/><path d="M862.47,189.72l-.33-7.86a.23.23,0,0,1,.11-.2l8.89-5.18a.22.22,0,0,1,.33.19l.25,7.51a.25.25,0,0,1-.1.2l-8.81,5.52A.22.22,0,0,1,862.47,189.72Z" style="fill:#8aa4ab;opacity:0.6392156862745098"/><path d="M872.22,184.18l-.33-7.86a.22.22,0,0,1,.11-.21l8.88-5.18a.23.23,0,0,1,.34.19l.25,7.52a.21.21,0,0,1-.11.19l-8.8,5.53A.22.22,0,0,1,872.22,184.18Z" style="fill:#8aa4ab;opacity:0.6392156862745098"/><path d="M882,178.69l-.34-7.87a.22.22,0,0,1,.12-.2l8.88-5.18a.23.23,0,0,1,.34.19l.25,7.51a.23.23,0,0,1-.11.2l-8.8,5.53A.22.22,0,0,1,882,178.69Z" style="fill:#8aa4ab;opacity:0.6392156862745098"/><path d="M871.6,180.71a15,15,0,0,1-5,.56,18.52,18.52,0,0,0-4.51.88l.11,2.06s3.36-.46,5.34-.85a21.82,21.82,0,0,0,4.1-1.33Z" style="fill:#fff;opacity:0.4392156862745098"/><path d="M887.26,173.77c-1.93.94-3.72,1.84-5.4,2.67l0,.82a69.44,69.44,0,0,1,9.24-3.89C891.7,172.64,888.77,173,887.26,173.77Z" style="fill:#fff;opacity:0.4392156862745098"/><path d="M881.36,176.68a61.46,61.46,0,0,1-9.25,3.89l.08,1.25c1.17-.5,2.36-1,3.5-1.59l5.72-2.74Z" style="fill:#fff;opacity:0.4392156862745098"/><path d="M835.32,179.43l-.16,8.49a1.29,1.29,0,0,0,.78,1.2l12.74,5.6a.93.93,0,0,0,1.3-.83l.14-7.4a2.18,2.18,0,0,0-1-1.93l-13-5.62A.55.55,0,0,0,835.32,179.43Z" style="fill:#e8e8e8;opacity:0.3686274509803922"/><path d="M839.27,190.49a18.89,18.89,0,0,1,6.85-.51,8.42,8.42,0,0,0,3.94-.41l0,1.66s-1.78.72-5.6-.15a6.19,6.19,0,0,0-3.56.16Z" style="fill:#accfd9;opacity:0.5411764705882353"/><path d="M846.19,183.32a7.44,7.44,0,0,1-5.84.42c-1.93-.51-5.19,1.85-5.19,1.85v1.78a16.29,16.29,0,0,1,3.52-1c1.06,0,2.67.81,4,1.19a54,54,0,0,0,7.41.7,8.39,8.39,0,0,0-.18-2.66c-.21-.31-.31-.72-.67-.89C848,184.07,847.26,183.75,846.19,183.32Z" style="fill:#accfd9;opacity:0.7019607843137254"/></g><g id="Snacks"><rect x="812.46" y="732.28" width="100" height="100" rx="22.9" style="fill:#f9ead1"/><path d="M843.5,827.59l7.29-8.43c.51-.6,1.86-2.19,2.34-2.91a5.15,5.15,0,0,0,1.11-3.06,3.79,3.79,0,0,0-4-3.9,3.85,3.85,0,0,0-3.33,1.77,4.44,4.44,0,0,0-.66,2.37H844a6.37,6.37,0,0,1,1.5-4.14,6.29,6.29,0,0,1,10.92,3.93,7.06,7.06,0,0,1-1.59,4.29c-.84,1.17-1.92,2.4-2.73,3.33L848,825.55h8.46v2Z"/><path d="M862.46,814.84a1.5,1.5,0,1,1-1.5,1.5A1.52,1.52,0,0,1,862.46,814.84Zm0,10.11a1.5,1.5,0,1,1-1.5,1.5A1.52,1.52,0,0,1,862.46,825Z"/><path d="M873.86,809.68H870.5l1.17-2.1h4.41v20h-2.22Z"/><path d="M844,744.34s-1.33.62-1.33,4.4c0,3,.16,25.14.16,25.14l3.89,2.47,23.89-16.19s.12-6.5.12-11.51c0-3.61-1.08-4.35-1.08-4.35a32.21,32.21,0,0,1-12.14,2.3C846.28,746.6,844,744.34,844,744.34Z" style="fill:#ff2929"/><ellipse cx="857.01" cy="744.3" rx="13.51" ry="4.35" style="fill:#ccc"/><path d="M842.71,756.8c1.74-.76,1.57,3,13.85-3.27,10.54-5.38,14-3.21,14-3.21l.25,10a14.25,14.25,0,0,1-1.86,3.52,19.93,19.93,0,0,1-6.35,4.7c-1.14.51-2.5.54-3.64,1.05s-1.69-.09-2.69.47c-3.61,2-13.08,4.33-13.52,2" style="fill:#ff6161"/><rect x="845.87" y="742.99" width="7.01" height="2.63" rx="1.31" transform="translate(-89.5 116.66) rotate(-7.47)" style="fill:#b0b0b0"/><path d="M872.49,759.87l3.2-2.06a.49.49,0,0,1,.51,0l25.47,15a.31.31,0,0,1,0,.56l-5.8,2.56Z" style="fill:#ffeb14"/><path d="M859.63,797.62l-2.91,2.26a.61.61,0,0,1-.57,0l-25.7-15.37a.32.32,0,0,1,0-.56l3.32-1.68Z" style="fill:#ffeb14"/><path d="M883,791.35c-16.46,9.09-23.34,6.41-23.34,6.41s1.89-6.74,15.54-15.63c15.94-10.39,23.44-7.23,23.44-7.23S898.76,782.63,883,791.35Z" style="fill:#5d7557"/><path d="M833.48,782.38s1.08-10.25,15.61-17.54c18-9,23.57-4.9,23.57-4.9l25.22,14.79s-7.75-2.12-22.69,7.53c-10.72,6.94-14.69,13.68-15.48,15.19-.11.2-.16.31-.16.31Z" style="fill:#8dad84"/><path d="M852,767.74c2-3,10-5,15.59-1.72,6.13,3.6,8.83,8.82,6.36,13.31s-9,5.29-15.3,2.07C848.51,776.28,849,772.2,852,767.74Z" style="fill:#2c14ff;opacity:0.5411764705882353"/><path d="M864.42,768.08c.25-1.21-.81-1.75-2.27-2-1.59-1.12-5-.8-6.68,1s0,3.68,2.58,3.95S864.06,769.92,864.42,768.08Z" style="fill:#f0d400"/><path d="M872.14,774.61a4.13,4.13,0,0,0-.65-2.14,4.84,4.84,0,0,0-.53-1,3.17,3.17,0,0,0-1-1.65,3.23,3.23,0,0,0-5.18,1.11,5.3,5.3,0,0,0-.46,3.45,9.74,9.74,0,0,0,1.71,3.42,4.68,4.68,0,0,0,2.78,2.19,2.46,2.46,0,0,0,2.61-1.24A8,8,0,0,0,872.14,774.61Z" style="fill:#f0d400"/><path d="M864.2,777.35a2.32,2.32,0,0,0-1.09-1l-.09,0a2,2,0,0,0-.26-.24,10.93,10.93,0,0,0-1.79-.83.41.41,0,0,0-.13-.1,2.38,2.38,0,0,1-.66-1.09,4.44,4.44,0,0,0-.52-1.41,2.16,2.16,0,0,0-2.84-.19,4.25,4.25,0,0,0-1.93,2.93,3.73,3.73,0,0,0,1.39,3.06c1.5,1.46,4.59,3.33,7.07,1.58A2.09,2.09,0,0,0,864.2,777.35Z" style="fill:#f0d400"/></g></svg>