<svg xmlns="http://www.w3.org/2000/svg" width="1200" height="1500" viewBox="0 0 1200 1500"><g id="Layer_15" data-name="Layer 15"><path d="M596.24,418l48.42-32.32Z" style="fill:#fff;stroke:#fff;stroke-miterlimit:10;stroke-width:6.457498128070746px;stroke-dasharray:5.534998416900635,5.534998416900635,5.534998416900635,5.534998416900635,5.534998416900635,5.534998416900635"/><path d="M674.36,458.29l-1.09-61.62Z" style="fill:#fff;stroke:#fff;stroke-miterlimit:10;stroke-width:6.960282766757449px;stroke-dasharray:5.965956687927246,5.965956687927246,5.965956687927246,5.965956687927246,5.965956687927246,5.965956687927246"/><line x1="381.89" y1="458.5" x2="381.63" y2="400.28" style="fill:#fff;stroke:#fff;stroke-miterlimit:10;stroke-width:6.457498128070746px;stroke-dasharray:5.534998416900635,5.534998416900635,5.534998416900635,5.534998416900635,5.534998416900635,5.534998416900635"/><polyline points="454.83 414.37 406.56 382.46 454.83 414.37" style="fill:#fff;stroke:#fff;stroke-miterlimit:10;stroke-width:6.457498128070746px;stroke-dasharray:5.534998416900635,5.534998416900635,5.534998416900635,5.534998416900635,5.534998416900635,5.534998416900635"/><line x1="310.73" y1="663.15" x2="244.67" y2="601.85" style="fill:#fff;stroke:#fff;stroke-miterlimit:10;stroke-width:6.457498128070746px;stroke-dasharray:5.534998416900635,5.534998416900635,5.534998416900635,5.534998416900635,5.534998416900635,5.534998416900635"/><polyline points="313.51 573.24 255.65 573.24 313.51 573.24" style="fill:#fff;stroke:#fff;stroke-miterlimit:10;stroke-width:6.457498128070746px;stroke-dasharray:5.534998416900635,5.534998416900635,5.534998416900635,5.534998416900635,5.534998416900635,5.534998416900635"/><line x1="318.44" y1="833.94" x2="267.1" y2="861.41" style="fill:#fff;stroke:#fff;stroke-miterlimit:10;stroke-width:6.457498128070746px;stroke-dasharray:5.534998416900635,5.534998416900635,5.534998416900635,5.534998416900635,5.534998416900635,5.534998416900635"/><polyline points="314.32 919.09 263.29 891.81 314.32 919.09" style="fill:#fff;stroke:#fff;stroke-miterlimit:10;stroke-width:6.457498128070746px;stroke-dasharray:5.534998416900635,5.534998416900635,5.534998416900635,5.534998416900635,5.534998416900635,5.534998416900635"/><line x1="383.32" y1="1039.52" x2="384.71" y2="1097.72" style="fill:#fff;stroke:#fff;stroke-miterlimit:10;stroke-width:6.457498128070746px;stroke-dasharray:5.534998416900635,5.534998416900635,5.534998416900635,5.534998416900635,5.534998416900635,5.534998416900635"/><polyline points="457.48 1081.56 410.14 1114.82 457.48 1081.56" style="fill:#fff;stroke:#fff;stroke-miterlimit:10;stroke-width:6.457498128070746px;stroke-dasharray:5.534998416900635,5.534998416900635,5.534998416900635,5.534998416900635,5.534998416900635,5.534998416900635"/><line x1="596.73" y1="1080.87" x2="644.98" y2="1111.61" style="fill:#fff;stroke:#fff;stroke-miterlimit:10;stroke-width:6.379122345770346px;stroke-dasharray:5.4678192138671875,5.4678192138671875,5.4678192138671875,5.4678192138671875,5.4678192138671875,5.4678192138671875"/><polyline points="670.71 1041.88 672.54 1099.71 670.71 1041.88" style="fill:#fff;stroke:#fff;stroke-miterlimit:10;stroke-width:6.379122345770346px;stroke-dasharray:5.4678192138671875,5.4678192138671875,5.4678192138671875,5.4678192138671875,5.4678192138671875,5.4678192138671875"/><line x1="812.6" y1="953.92" x2="861.29" y2="985.84" style="fill:#fff;stroke:#fff;stroke-miterlimit:10;stroke-width:6.457498128070746px;stroke-dasharray:5.534998416900635,5.534998416900635,5.534998416900635,5.534998416900635,5.534998416900635,5.534998416900635"/><polyline points="889.32 916.76 889.81 974.62 889.32 916.76" style="fill:#fff;stroke:#fff;stroke-miterlimit:10;stroke-width:6.457498128070746px;stroke-dasharray:5.534998416900635,5.534998416900635,5.534998416900635,5.534998416900635,5.534998416900635,5.534998416900635"/><line x1="961.71" y1="788.97" x2="1024.24" y2="754.83" style="fill:#fff;stroke:#fff;stroke-miterlimit:10;stroke-width:6.321381655111022px;stroke-dasharray:5.418327331542969,5.418327331542969,5.418327331542969,5.418327331542969,5.418327331542969,5.418327331542969"/><polyline points="962.09 708.78 1013.12 734.92 962.09 708.78" style="fill:#fff;stroke:#fff;stroke-miterlimit:10;stroke-width:6.321381655111022px;stroke-dasharray:5.418327331542969,5.418327331542969,5.418327331542969,5.418327331542969,5.418327331542969,5.418327331542969"/><path d="M811.46,541.78l48.42-32.32Z" style="fill:#fff;stroke:#fff;stroke-miterlimit:10;stroke-width:6.457498128070746px;stroke-dasharray:5.534998416900635,5.534998416900635,5.534998416900635,5.534998416900635,5.534998416900635,5.534998416900635"/><path d="M887.75,577.55l.74-74Z" style="fill:#fff;stroke:#fff;stroke-miterlimit:10;stroke-width:6.347739410104816px;stroke-dasharray:5.440919399261475,5.440919399261475,5.440919399261475,5.440919399261475,5.440919399261475,5.440919399261475"/><rect x="178.45" y="524.64" width="92.25" height="92.25" rx="22.9" style="fill:#f9ead1"/><path d="M205.44,571.92s-.11,6.9,20,8.06c12.35.7,18.23-6.74,18.23-6.74l-3.08-11.07-31.93-.67Z" style="fill:#050505"/><path d="M190.52,553l33.06-19.71a2.4,2.4,0,0,1,2.44,0l33.18,19.5a.54.54,0,0,1,0,.94l-34,19.34a1.13,1.13,0,0,1-1.14,0l-33.51-19.17A.51.51,0,0,1,190.52,553Z" style="fill:#524e4e"/><ellipse cx="224.79" cy="550.9" rx="3.63" ry="1.45" style="fill:#252529"/><path d="M243.76,578.65l.35-16a.61.61,0,0,0-.28-.53L227.5,551.79a.65.65,0,0,0-.56,0l-.61.23a.18.18,0,0,0,0,.31l16.15,10.66a.47.47,0,0,1,.22.42l-.27,15.2Z" style="fill:#ffd942"/><path d="M242.45,579.6l-2.37,6.8a.49.49,0,0,0,.44.65l4.67.2a.63.63,0,0,0,.62-.84l-2.39-6.84Z" style="fill:#ffd942"/><circle cx="243.09" cy="579.36" r="1.2" style="fill:#ffd117"/><path d="M207.08,608.6l6.72-7.78c.48-.55,1.72-2,2.16-2.68a4.78,4.78,0,0,0,1-2.82,3.5,3.5,0,0,0-3.68-3.6,3.58,3.58,0,0,0-3.08,1.63,4,4,0,0,0-.6,2.19h-2a5.85,5.85,0,0,1,1.38-3.82A5.81,5.81,0,0,1,219,595.34a6.51,6.51,0,0,1-1.47,4c-.78,1.08-1.77,2.22-2.52,3.07l-3.85,4.35H219v1.88Z"/><path d="M224.57,596.84a1.39,1.39,0,1,1-1.38,1.38A1.4,1.4,0,0,1,224.57,596.84Zm0,9.33a1.38,1.38,0,1,1-1.38,1.38A1.4,1.4,0,0,1,224.57,606.17Z"/><path d="M235.09,592.08H232l1.08-1.94h4.06V608.6h-2Z"/><rect x="178.45" y="841.52" width="92.25" height="92.25" rx="22.9" style="fill:#f9ead1"/><path d="M207.08,927.64l6.73-7.78c.47-.55,1.71-2,2.16-2.68a4.76,4.76,0,0,0,1-2.83,3.69,3.69,0,0,0-6.75-2,4,4,0,0,0-.61,2.18h-2a5.87,5.87,0,0,1,1.38-3.82A5.81,5.81,0,0,1,219,914.38a6.51,6.51,0,0,1-1.47,4c-.77,1.08-1.77,2.21-2.52,3.07l-3.85,4.35H219v1.88Z"/><path d="M224.57,915.87a1.39,1.39,0,1,1-1.38,1.39A1.4,1.4,0,0,1,224.57,915.87Zm0,9.33a1.39,1.39,0,1,1-1.38,1.39A1.4,1.4,0,0,1,224.57,925.2Z"/><path d="M235.09,911.11H232l1.08-1.93h4.07v18.46h-2Z"/><path d="M219.78,847.85l-9.85,5.82c-.1.06-.22.2-.12.26l21.31,12.35s.08-.21.12-.24l10.65-5.57c.1-.05,0-.17-.12-.22l-21.84-12.4A.14.14,0,0,0,219.78,847.85Z" style="fill:#424242"/><path d="M242.12,860.62v36.7a.37.37,0,0,1-.21.34L231,903c-.13.07-.86.14-.85,0l.86-36.81a.26.26,0,0,1,.14-.23l10.69-5.52A.17.17,0,0,1,242.12,860.62Z" style="fill:#262626"/><path d="M209.59,854.18l-.1,36.71a.69.69,0,0,0,.36.62l20.31,11.62a.38.38,0,0,0,.57-.33l.3-36.66a.34.34,0,0,0-.16-.29L210,853.94A.27.27,0,0,0,209.59,854.18Z" style="fill:#2b2b2b"/><line x1="211.62" y1="859.14" x2="228.64" y2="868.79" style="fill:#424242;stroke:#7f0;stroke-linecap:round;stroke-linejoin:round;stroke-width:0.9224997325815352px"/><line x1="211.62" y1="864.43" x2="228.64" y2="874.09" style="fill:#424242;stroke:#7f0;stroke-linecap:round;stroke-linejoin:round;stroke-width:0.9224997325815352px"/><line x1="211.62" y1="868.53" x2="228.64" y2="878.18" style="fill:#424242;stroke:#7f0;stroke-linecap:round;stroke-linejoin:round;stroke-width:0.9224997325815352px"/><line x1="211.62" y1="873.1" x2="228.64" y2="882.75" style="fill:#424242;stroke:#7f0;stroke-linecap:round;stroke-linejoin:round;stroke-width:0.9224997325815352px"/><line x1="211.62" y1="878.58" x2="228.64" y2="888.23" style="fill:#424242;stroke:#7f0;stroke-linecap:round;stroke-linejoin:round;stroke-width:0.9224997325815352px"/><line x1="211.62" y1="883.4" x2="228.64" y2="893.06" style="fill:#424242;stroke:#7f0;stroke-linecap:round;stroke-linejoin:round;stroke-width:0.9224997325815352px"/><line x1="211.62" y1="888.23" x2="228.64" y2="897.89" style="fill:#424242;stroke:#7f0;stroke-linecap:round;stroke-linejoin:round;stroke-width:0.9224997325815352px"/><line x1="211.62" y1="861.61" x2="228.64" y2="871.27" style="fill:#424242;stroke:#0084ff;stroke-linecap:round;stroke-linejoin:round;stroke-width:0.9224997325815352px"/><line x1="211.62" y1="866.44" x2="228.64" y2="876.1" style="fill:#424242;stroke:#0084ff;stroke-linecap:round;stroke-linejoin:round;stroke-width:0.9224997325815352px"/><line x1="211.75" y1="870.91" x2="228.77" y2="880.56" style="fill:#424242;stroke:#0084ff;stroke-linecap:round;stroke-linejoin:round;stroke-width:0.9224997325815352px"/><line x1="211.62" y1="875.74" x2="228.64" y2="885.39" style="fill:#424242;stroke:#0084ff;stroke-linecap:round;stroke-linejoin:round;stroke-width:0.9224997325815352px"/><line x1="211.62" y1="880.91" x2="228.64" y2="890.57" style="fill:#424242;stroke:#0084ff;stroke-linecap:round;stroke-linejoin:round;stroke-width:0.9224997325815352px"/><line x1="211.62" y1="885.74" x2="228.64" y2="895.39" style="fill:#424242;stroke:#0084ff;stroke-linecap:round;stroke-linejoin:round;stroke-width:0.9224997325815352px"/><rect x="322.48" y="318.64" width="92.25" height="92.25" rx="22.9" style="fill:#f9ead1"/><path d="M353.92,386.43a5.75,5.75,0,0,1,.86-2.71,5.25,5.25,0,0,1,9.49,2.82,4.4,4.4,0,0,1-2.38,4.1,4.39,4.39,0,0,1,2.66,4.45,5.62,5.62,0,1,1-11.24.45h2.05a4.12,4.12,0,0,0,.67,1.85,3.38,3.38,0,0,0,2.85,1.38A3.66,3.66,0,0,0,362.5,395a3.27,3.27,0,0,0-1.82-3.1,4.73,4.73,0,0,0-2.11-.39v-1.83a4.13,4.13,0,0,0,2.11-.38,3.17,3.17,0,0,0-1.61-5.9,2.81,2.81,0,0,0-2.38,1.05,3.73,3.73,0,0,0-.72,1.94Z"/><path d="M370.42,388.56a1.39,1.39,0,1,1-1.39,1.38A1.41,1.41,0,0,1,370.42,388.56Zm0,9.33a1.39,1.39,0,1,1-1.39,1.38A1.41,1.41,0,0,1,370.42,397.89Z"/><path d="M380.93,383.8h-3.1l1.08-1.94H383v18.46h-2.05Z"/><path d="M376.17,339.13c0-3.57-2.22-6.47-6.53-6.47A10.29,10.29,0,0,0,362,336.5l-3.23-2.9A15.15,15.15,0,0,1,370.31,328c6.8,0,11.32,4.1,11.32,10.77,0,8.82-10.85,12.39-9.77,21.75H367C365.46,350.1,376.17,346.26,376.17,339.13ZM365.53,370.5a4,4,0,0,1,4-4.3,4.28,4.28,0,0,1,0,8.55A4,4,0,0,1,365.53,370.5Z"/><rect x="331.55" y="1087.39" width="92.25" height="92.25" rx="22.9" style="fill:#f9ead1"/><path d="M363,1155.18a5.75,5.75,0,0,1,.86-2.71,5.25,5.25,0,0,1,9.49,2.82,4.89,4.89,0,0,0,.28,8.55,5.62,5.62,0,1,1-11.24.45h2.05a4.12,4.12,0,0,0,.67,1.85,3.38,3.38,0,0,0,2.85,1.38,3.65,3.65,0,0,0,3.62-3.73,3.27,3.27,0,0,0-1.82-3.1,4.73,4.73,0,0,0-2.11-.39v-1.83a4.13,4.13,0,0,0,2.11-.38,3.17,3.17,0,0,0-1.61-5.9,2.81,2.81,0,0,0-2.38,1,3.73,3.73,0,0,0-.72,1.94Z"/><path d="M379.49,1157.31a1.39,1.39,0,1,1-1.39,1.38A1.41,1.41,0,0,1,379.49,1157.31Zm0,9.33a1.39,1.39,0,1,1-1.39,1.38A1.41,1.41,0,0,1,379.49,1166.64Z"/><path d="M390,1152.55h-3.1l1.08-1.94h4.07v18.46H390Z"/><path d="M385.24,1107.88c0-3.57-2.22-6.47-6.53-6.47a10.29,10.29,0,0,0-7.68,3.84l-3.23-2.9a15.15,15.15,0,0,1,11.58-5.58c6.8,0,11.32,4.1,11.32,10.77,0,8.82-10.85,12.39-9.77,21.75H376C374.53,1118.85,385.24,1115,385.24,1107.88Zm-10.64,31.38a4,4,0,0,1,4-4.31,4.28,4.28,0,0,1,0,8.55A4,4,0,0,1,374.6,1139.26Z"/><rect x="991.19" y="695.56" width="92.25" height="92.25" rx="22.9" style="fill:#f9ead1"/><path d="M1022.64,763.36a5.67,5.67,0,0,1,.85-2.72,5.26,5.26,0,0,1,9.5,2.83,4.41,4.41,0,0,1-2.38,4.09,4.42,4.42,0,0,1,2.66,4.46,5.62,5.62,0,1,1-11.24.44h2a4.11,4.11,0,0,0,.66,1.86,3.43,3.43,0,0,0,2.85,1.38,3.66,3.66,0,0,0,3.63-3.73,3.27,3.27,0,0,0-1.83-3.1,4.66,4.66,0,0,0-2.1-.39v-1.83a4,4,0,0,0,2.1-.39,3.17,3.17,0,0,0-1.61-5.89,2.82,2.82,0,0,0-2.38,1,3.73,3.73,0,0,0-.72,1.94Z"/><path d="M1039.13,765.49a1.39,1.39,0,1,1-1.38,1.38A1.4,1.4,0,0,1,1039.13,765.49Zm0,9.33a1.38,1.38,0,1,1-1.38,1.38A1.4,1.4,0,0,1,1039.13,774.82Z"/><path d="M1049.65,760.73h-3.1l1.08-1.94h4.07v18.46h-2Z"/><path d="M1044.88,716.05c0-3.57-2.22-6.46-6.53-6.46a10.26,10.26,0,0,0-7.67,3.84l-3.24-2.9a15.16,15.16,0,0,1,11.59-5.59c6.8,0,11.31,4.11,11.31,10.78,0,8.82-10.84,12.39-9.76,21.75h-4.92C1034.18,727,1044.88,723.19,1044.88,716.05Zm-10.63,31.38a4,4,0,0,1,4-4.31,4.28,4.28,0,0,1,0,8.55A4,4,0,0,1,1034.25,747.43Z"/><rect x="623.29" y="1089.97" width="92.25" height="92.25" rx="22.9" style="fill:#f9ead1"/><path d="M654.73,1157.77a5.71,5.71,0,0,1,.86-2.71,5.25,5.25,0,0,1,9.49,2.82,4.89,4.89,0,0,0,.28,8.55,5.62,5.62,0,1,1-11.24.45h2a4.11,4.11,0,0,0,.66,1.85,3.4,3.4,0,0,0,2.85,1.38,3.66,3.66,0,0,0,3.63-3.73,3.25,3.25,0,0,0-1.83-3.1,4.66,4.66,0,0,0-2.1-.39v-1.83a4.07,4.07,0,0,0,2.1-.38,3.17,3.17,0,0,0-1.6-5.9,2.81,2.81,0,0,0-2.38,1,3.64,3.64,0,0,0-.72,1.94Z"/><path d="M671.22,1159.9a1.39,1.39,0,1,1-1.38,1.38A1.41,1.41,0,0,1,671.22,1159.9Zm0,9.33a1.39,1.39,0,1,1-1.38,1.38A1.4,1.4,0,0,1,671.22,1169.23Z"/><path d="M681.74,1155.14h-3.1l1.08-1.94h4.07v18.46h-2Z"/><path d="M677,1110.46c0-3.56-2.22-6.46-6.53-6.46a10.29,10.29,0,0,0-7.68,3.84l-3.23-2.9a15.16,15.16,0,0,1,11.58-5.59c6.8,0,11.31,4.11,11.31,10.78,0,8.82-10.84,12.39-9.76,21.75h-4.91C666.27,1121.44,677,1117.6,677,1110.46Zm-10.64,31.38a4,4,0,0,1,4-4.31,4.29,4.29,0,0,1,0,8.56A4,4,0,0,1,666.34,1141.84Z"/><rect x="632.23" y="307.13" width="92.25" height="92.25" rx="22.9" style="fill:#f9ead1"/><path d="M669.43,336.18s-2.65,1.71-3.37,3.9c-1.14,3.41-1.11,9.25-1.32,12.85a86,86,0,0,1-1.33,9.84,12.06,12.06,0,0,0,.31,4.28s4.29.41,4.46-.22a89.06,89.06,0,0,0,2.36-14.33,83.59,83.59,0,0,0,.45-10.12c0-.68-.1-1.37-.19-2.05a6.35,6.35,0,0,0-.58-2.15A17.33,17.33,0,0,1,669.43,336.18Z" style="fill:#d4635b"/><path d="M674.36,334.16c0,1,.3,1,.3,1a18,18,0,0,0,2.58,1.25c1.31.28,3.92.5,5.26.67.42.05,1.45-1.75,1.45-1.75s-.42,1.35-.17-3.67c.23-4.41.35-4.08.35-4.08s-.94,1.36-5,4.52a3.34,3.34,0,0,1-4.36,0A4.46,4.46,0,0,0,674.36,334.16Z" style="fill:#c28461"/><path d="M692.68,340.36a6,6,0,0,0-1.85-2.87c-2.1-1.14-4.62-.79-6.88-.46a33,33,0,0,1-7.15.34.35.35,0,0,0-.29-.21,9.91,9.91,0,0,1-3.93-1.22c-1-.56-1.52-1.48-2.43-.66a10.47,10.47,0,0,0-2.93,7.37c0,5.09.68,7.48.71,10.43,0,1.09-.59,5.42-.94,8.08-.66,5-1.31,4.72-1.17,5.95.13,1.05,22.85.7,23.38-.6a18.12,18.12,0,0,0,1.25-4.9c-.14-2.32.52-3.48.51-5.82s-.56-4.42-.24-6.84c.15-1.2.28-2.4.45-3.6a11.78,11.78,0,0,1,1-3.18C692.5,341.3,693,341.31,692.68,340.36Z" style="fill:#ff675c"/><rect x="669.44" y="351.4" width="5.24" height="7.82" rx="2.13" transform="translate(174.22 -219.21) rotate(21.23)" style="fill:#dedede"/><path d="M688.16,336.47c-2.08,2.14-3.48,4.83-5.53,7-1.89,2-4.44,3.51-6.68,5.07a25.06,25.06,0,0,0-2.38,2.45c-.53-1.89-.47-5.08-.77-7.61a20,20,0,0,0-1.14-4c-.39-1.13-1.14-2.58-.61-3.77.3-.67-.12-1.18-.45-.5a4.29,4.29,0,0,0,0,3.51,26.08,26.08,0,0,1,1.91,12.58,1.7,1.7,0,0,0-1.46.1,2.29,2.29,0,0,0-.64.9c-.19.39-.38.79-.56,1.18a24.34,24.34,0,0,0-1,2.43,9.84,9.84,0,0,0-.34,1.21,1.43,1.43,0,0,0,.22,1.19,2.36,2.36,0,0,0,1,.6,7.72,7.72,0,0,0,1.23.41,6.45,6.45,0,0,0,1.3.23,1.43,1.43,0,0,0,1.14-.5,9.4,9.4,0,0,0,1.92-4.19,3.07,3.07,0,0,0,0-2.36,2,2,0,0,0-1.1-.81,24.13,24.13,0,0,1,5.45-4.84,20.08,20.08,0,0,0,3.1-2.5,22,22,0,0,0,2.74-3.13,35.53,35.53,0,0,1,3.1-4C689.17,336.47,688.77,335.84,688.16,336.47Zm-13.57,15.94a1.12,1.12,0,0,1,.42.76,2.53,2.53,0,0,1-.12,1,11.88,11.88,0,0,1-1.56,3.91,2.59,2.59,0,0,1-.68.72.94.94,0,0,1-.15.06c0-.07,0-.14.07-.21s.11-.26.16-.4.19-.53.27-.81a4.59,4.59,0,0,0,.15-1.69.08.08,0,0,0,0,0,1.05,1.05,0,0,0,.72-.45.49.49,0,0,0,.14-.18,1,1,0,0,0,.09-.35,1.5,1.5,0,0,0-.46-1.29c-.67-.68-2.08-.94-2.66,0a1.44,1.44,0,0,0-.17.95,1.08,1.08,0,0,1-.81,1.73,8.14,8.14,0,0,0-.74,1.9.71.71,0,0,1-.33-.52,3.05,3.05,0,0,1,.21-1.12,17.41,17.41,0,0,1,.83-2.22c.16-.37.33-.73.51-1.09a10.31,10.31,0,0,1,.51-1,.93.93,0,0,1,.66-.51,2.11,2.11,0,0,1,.86.12h0l1.32.36h0A1.92,1.92,0,0,1,674.59,352.41Z" style="fill:#736b67"/><path d="M693.28,342a55.55,55.55,0,0,0,.17,6.74c.17,3.81.7,5.21-2,10.7a66.4,66.4,0,0,1-4.26,7.72s-1.77,0-4.81.37c.84-3.11,1.27-4.28,1.75-6.07.7-2.6,2-5.1,2.38-6.63.57-2.14.46-6.18-.29-9.77-.5-2.42.45-5.92,2.31-7.37a4.15,4.15,0,0,1,2-.5C692.3,337.16,693.45,339.94,693.28,342Z" style="fill:#d4655f"/><path d="M674.31,333.75c-.35-.56-1.75-.73-2.81-.28s-1.46.64-1.14,1.57a16.1,16.1,0,0,0,5.14,2.35,36.72,36.72,0,0,0,8.32,0c2.11-.33,2.41-.74,4.43-.17.82.23,3.67,1.29,4,.5.19-.47-.71-1.66-1-2.1-1.47-2.41-.25-.11-6.15-2.66-1.24-.53-1.14-.47-1.32.13s-.66,2.85-3,3.16a14.78,14.78,0,0,1-4.58-.42C673.62,334.66,674.65,334.3,674.31,333.75Z" style="fill:#a65550"/><path d="M670.49,318.69c-.41,4.7-.26,6.72,1.82,12.73a3.78,3.78,0,0,0,1.87,2.06,4.33,4.33,0,0,0,3.49-.22,39.92,39.92,0,0,0,7.68-6.67,10,10,0,0,0,1.3-2.22,8.92,8.92,0,0,0,.47-2,16.78,16.78,0,0,0,.64-3,3.92,3.92,0,0,0-.54-2.63,5,5,0,0,0-1.39-1.16,13.22,13.22,0,0,0-5.52-2.4,9.12,9.12,0,0,0-2.09.05,10.83,10.83,0,0,0-3.89,1.17C673.14,315,670.58,317.6,670.49,318.69Z" style="fill:#d1926d"/><path d="M671.18,315.18c-1.35,1.64-2.69,3.89-2.14,5.9.93,3.43,1.31,1.56,2.12.88,1.12-.95,2.6-1.38,3.66-2.39a2.86,2.86,0,0,1,1.1-.8,5.35,5.35,0,0,0,0,2c.3,1.14.84.65,1.14.54a4.86,4.86,0,0,0,2.11-1.5c-.12.46,0,0-.1,1.68-.05,1.36.66.6.82.53a4.57,4.57,0,0,0,1.51-1.07,3.42,3.42,0,0,0,.3,2.55,3.89,3.89,0,0,0,1.55.63c.55.15,1.2.46,1.24,1,.16,2.53.43,2.3,1.3,1.36a9.2,9.2,0,0,0,1.59-2.56,8,8,0,0,0,.38-2.52,24.1,24.1,0,0,0-.09-2.69,6.84,6.84,0,0,0-1.5-4.21,4.19,4.19,0,0,0-.77-.62c-2.1-1.41-4.8-1.49-7.33-1.51a10.76,10.76,0,0,0-2.89.23,10.55,10.55,0,0,0-1.62.61A6.6,6.6,0,0,0,671.18,315.18Z" style="fill:#735341"/><path d="M660.86,394.09l6.73-7.77c.47-.56,1.71-2,2.16-2.69a4.73,4.73,0,0,0,1-2.82,3.49,3.49,0,0,0-3.68-3.6,3.55,3.55,0,0,0-3.07,1.63,4.15,4.15,0,0,0-.61,2.19h-2a5.85,5.85,0,0,1,1.39-3.82,5.8,5.8,0,0,1,10.07,3.63,6.48,6.48,0,0,1-1.47,4c-.77,1.08-1.77,2.22-2.52,3.08L665,392.21h7.8v1.88Z"/><path d="M678.35,382.33a1.39,1.39,0,1,1-1.38,1.38A1.41,1.41,0,0,1,678.35,382.33Zm0,9.33A1.39,1.39,0,1,1,677,393,1.4,1.4,0,0,1,678.35,391.66Z"/><path d="M688.87,377.57h-3.1l1.08-1.94h4.07v18.46h-2Z"/><rect x="849.97" y="420.48" width="92.25" height="92.25" rx="22.9" style="fill:#f9ead1"/><path d="M878.6,505.4l6.73-7.78c.47-.55,1.72-2,2.16-2.68a4.75,4.75,0,0,0,1-2.82,3.49,3.49,0,0,0-3.68-3.6,3.55,3.55,0,0,0-3.07,1.63,4.12,4.12,0,0,0-.61,2.19h-2a5.9,5.9,0,0,1,1.39-3.82,5.79,5.79,0,0,1,10.07,3.62,6.51,6.51,0,0,1-1.47,4c-.77,1.08-1.77,2.22-2.51,3.07l-3.85,4.35h7.8v1.88Z"/><path d="M896.09,493.64a1.39,1.39,0,1,1-1.38,1.38A1.4,1.4,0,0,1,896.09,493.64Zm0,9.33a1.38,1.38,0,1,1-1.38,1.38A1.4,1.4,0,0,1,896.09,503Z"/><path d="M906.61,488.88h-3.1l1.08-1.94h4.07V505.4h-2Z"/><path d="M869.32,449.66l39.43-20.35a.7.7,0,0,1,.6,0l13.87,6.55c.08.05-.5.31-.58.35L884.2,458.49a.64.64,0,0,1-.64,0l-14.25-7.68A.66.66,0,0,1,869.32,449.66Z" style="fill:#a0d0de"/><path d="M884.69,456.41l36.88-20.67a1.33,1.33,0,0,1,2,1.13l-.14,14.27a1.27,1.27,0,0,1-.62,1.08l-38,23.32c-.89.54-2,.19-2-.83l1.13-16C883.9,458.22,884.29,456.64,884.69,456.41Z" style="fill:#8fbcc9"/><path d="M921.07,438.85l-.07,8.63c.18.44-.11.8-1,1.32l-25.81,15c-1.15.66-.78-.49-1-1.06l0-7.15c-.23-.59.32-1.76,1.55-2.43l24.71-14.18C920.09,438.57,920.94,438.52,921.07,438.85Z" style="fill:#accfd9"/><path d="M913,458.29s-1.53-4.24,1.2-6.12c4.12-2.82,6,1.56,6,1.56" style="fill:#1d6c80"/><path d="M889.81,472.43s-.58-.57-.82-3.68a4.13,4.13,0,0,1,2.66-3.91c4-1.27,5.45,3.12,5.45,3.12" style="fill:#1d6c80"/><ellipse cx="893.02" cy="468.81" rx="3.98" ry="3.71" transform="translate(261.66 1255.35) rotate(-78.94)" style="fill:#292929"/><ellipse cx="893.61" cy="469.29" rx="3.89" ry="3.26" transform="translate(261.67 1256.32) rotate(-78.94)" style="fill:#666"/><ellipse cx="916.73" cy="455.48" rx="3.98" ry="3.71" transform="translate(293.91 1267.86) rotate(-78.94)" style="fill:#292929"/><ellipse cx="917.33" cy="455.96" rx="3.89" ry="3.26" transform="translate(293.92 1268.83) rotate(-78.94)" style="fill:#666"/><path d="M868.22,467.55V451.27a1.69,1.69,0,0,1,2.44-1.44l13.09,6.11a1.6,1.6,0,0,1,.94,1.43v16.77a1.7,1.7,0,0,1-2.49,1.41L869.11,469A1.59,1.59,0,0,1,868.22,467.55Z" style="fill:#7b9ea8"/><path d="M885.76,473.6l-.25-14.25a3.27,3.27,0,0,1,.28-1.43c.36-.51,2.84-1.31,3-1,.66,1.54,1.29,8.41,1.18,8.5-2.24,1.73-.8,6.35-.8,6.35Z" style="fill:#6c777a"/><polygon points="881.73 448.17 885.8 450.11 885.35 452.6 880.84 453.15 876.45 451.15 876.93 448.54 881.73 448.17" style="fill:#cad9e0"/><polygon points="887.98 444.69 892.05 446.62 891.61 449.11 887.09 449.67 882.71 447.67 883.18 445.05 887.98 444.69" style="fill:#cad9e0"/><polygon points="894.45 441.42 898.52 443.36 898.08 445.84 893.56 446.4 889.18 444.4 889.65 441.78 894.45 441.42" style="fill:#cad9e0"/><polygon points="900.53 437.92 904.6 439.85 904.16 442.34 899.64 442.89 895.26 440.89 895.73 438.28 900.53 437.92" style="fill:#cad9e0"/><polygon points="906.74 434.75 910.82 436.68 910.37 439.17 905.86 439.73 901.47 437.73 901.94 435.11 906.74 434.75" style="fill:#cad9e0"/><polygon points="912.74 431.45 916.82 433.38 916.37 435.87 911.86 436.43 907.47 434.43 907.95 431.81 912.74 431.45" style="fill:#cad9e0"/><path d="M870.1,467.56l11,5.55a.49.49,0,0,0,.7-.4l.22-3.13a1.07,1.07,0,0,0-.62-1.05l-10.81-5a.37.37,0,0,0-.52.32l-.15,3.54A.26.26,0,0,0,870.1,467.56Z" style="fill:#6c777a"/><line x1="870.91" y1="465.32" x2="880.51" y2="469.8" style="fill:#6c777a;stroke:#000;stroke-linecap:round;stroke-linejoin:round;stroke-width:2.7674991977446055px"/><line x1="870.68" y1="467.11" x2="880.29" y2="471.59" style="fill:#6c777a;stroke:#000;stroke-linecap:round;stroke-linejoin:round;stroke-width:2.7674991977446055px"/><line x1="870.68" y1="466.07" x2="880.29" y2="470.54" style="fill:#6c777a;stroke:#000;stroke-linecap:round;stroke-miterlimit:10;stroke-width:1.8449994651630703px"/><path d="M868.6,463.16l0,3.18a.9.9,0,0,0,.53.82l.63.27.1-3.91a.51.51,0,0,0-.28-.48l-.4-.21A.38.38,0,0,0,868.6,463.16Z" style="fill:#ffffe8;stroke:#e6f9ff;stroke-linecap:round;stroke-linejoin:round;stroke-width:0.9224997325815352px"/><path d="M883.35,470.12l-.16,2.94a.4.4,0,0,1-.53.36l-.59-.2.21-3.81a.21.21,0,0,1,.31-.18l.33.17A.76.76,0,0,1,883.35,470.12Z" style="fill:#ffffe8;stroke:#e6f9ff;stroke-linecap:round;stroke-linejoin:round;stroke-width:0.9224997325815352px"/><path d="M894.16,462.43l-.31-7.25a.23.23,0,0,1,.1-.19l8.2-4.77a.2.2,0,0,1,.31.17l.23,6.93a.18.18,0,0,1-.1.18l-8.11,5.1A.21.21,0,0,1,894.16,462.43Z" style="fill:#8aa4ab;opacity:0.6392156862745098"/><path d="M903.15,457.32l-.31-7.25a.21.21,0,0,1,.11-.19l8.19-4.78a.21.21,0,0,1,.31.17l.23,6.94a.19.19,0,0,1-.09.18l-8.12,5.1A.21.21,0,0,1,903.15,457.32Z" style="fill:#8aa4ab;opacity:0.6392156862745098"/><path d="M912.14,452.25l-.3-7.25a.19.19,0,0,1,.1-.19l8.2-4.77a.21.21,0,0,1,.31.17l.23,6.93a.22.22,0,0,1-.1.18l-8.12,5.1A.21.21,0,0,1,912.14,452.25Z" style="fill:#8aa4ab;opacity:0.6392156862745098"/><path d="M917,447.71l-5,2.47.05.75a63.77,63.77,0,0,1,8.53-3.58C921.12,446.68,918.42,447,917,447.71Z" style="fill:#fff;opacity:0.4392156862745098"/><path d="M902.58,454.12a13.44,13.44,0,0,1-4.57.51,17.63,17.63,0,0,0-4.16.82l.11,1.9s3.09-.43,4.92-.78a21.18,21.18,0,0,0,3.78-1.23Z" style="fill:#fff;opacity:0.4392156862745098"/><path d="M911.58,450.4a56.61,56.61,0,0,1-8.53,3.59l.07,1.15c1.09-.46,2.18-1,3.23-1.46l5.28-2.53Z" style="fill:#fff;opacity:0.4392156862745098"/><path d="M869.12,452.94l-.15,7.84a1.18,1.18,0,0,0,.71,1.1L881.43,467a.86.86,0,0,0,1.21-.76l.13-6.83a2,2,0,0,0-1-1.78l-12-5.19A.5.5,0,0,0,869.12,452.94Z" style="fill:#e8e8e8;opacity:0.3686274509803922"/><path d="M872.75,463.14a17.5,17.5,0,0,1,6.33-.47,7.75,7.75,0,0,0,3.63-.37l0,1.53s-1.64.66-5.16-.14a5.65,5.65,0,0,0-3.29.15Z" style="fill:#accfd9;opacity:0.5411764705882353"/><path d="M879.14,456.52a6.85,6.85,0,0,1-5.39.39c-1.78-.47-4.78,1.72-4.78,1.72v1.63a15.66,15.66,0,0,1,3.24-.93,19.76,19.76,0,0,1,3.71,1.1,50.4,50.4,0,0,0,6.85.65,8,8,0,0,0-.17-2.46c-.2-.28-.29-.66-.62-.82C880.77,457.22,880.13,456.92,879.14,456.52Z" style="fill:#accfd9;opacity:0.7019607843137254"/><rect x="848.02" y="962.94" width="92.25" height="92.25" rx="22.9" style="fill:#f9ead1"/><path d="M876.65,1050.87l6.73-7.78c.47-.56,1.72-2,2.16-2.69a4.73,4.73,0,0,0,1-2.82,3.49,3.49,0,0,0-3.68-3.6,3.55,3.55,0,0,0-3.07,1.63,4.15,4.15,0,0,0-.61,2.19h-2.05a5.87,5.87,0,0,1,1.39-3.82,5.8,5.8,0,0,1,10.07,3.63,6.53,6.53,0,0,1-1.47,4c-.77,1.07-1.77,2.21-2.51,3.07l-3.85,4.34h7.8v1.89Z"/><path d="M894.14,1039.1a1.39,1.39,0,1,1-1.38,1.39A1.41,1.41,0,0,1,894.14,1039.1Zm0,9.33a1.39,1.39,0,1,1-1.38,1.38A1.41,1.41,0,0,1,894.14,1048.43Z"/><path d="M904.66,1034.34h-3.1l1.08-1.94h4.07v18.47h-2.05Z"/><path d="M877.15,974.07s-1.22.57-1.22,4.06c0,2.77.15,23.19.15,23.19l3.58,2.28,22.05-14.93s.1-6,.1-10.63c0-3.32-1-4-1-4a29.56,29.56,0,0,1-11.19,2.13C879.22,976.16,877.15,974.07,877.15,974.07Z" style="fill:#ff2929"/><ellipse cx="889.12" cy="974.03" rx="12.47" ry="4.01" style="fill:#ccc"/><path d="M875.93,985.57c1.6-.71,1.45,2.76,12.78-3,9.72-5,12.88-2.95,12.88-2.95l.22,9.23a13,13,0,0,1-1.71,3.24,18.63,18.63,0,0,1-5.86,4.35c-1,.47-2.31.49-3.36,1s-1.56-.09-2.48.43c-3.33,1.87-12.07,4-12.47,1.88" style="fill:#ff6161"/><rect x="878.85" y="972.82" width="6.47" height="2.43" rx="1.21" transform="translate(-119.07 122.86) rotate(-7.47)" style="fill:#b0b0b0"/><path d="M903.4,988.4l3-1.91a.46.46,0,0,1,.47,0l23.5,13.84a.29.29,0,0,1,0,.52l-5.35,2.36Z" style="fill:#ffeb14"/><path d="M891.54,1023.21l-2.68,2.09a.57.57,0,0,1-.54,0l-23.7-14.17a.29.29,0,0,1,0-.52l3.06-1.55Z" style="fill:#ffeb14"/><path d="M913.07,1017.43c-15.19,8.39-21.53,5.92-21.53,5.92s1.74-6.22,14.33-14.42c14.71-9.58,21.62-6.67,21.62-6.67S927.64,1009.39,913.07,1017.43Z" style="fill:#5d7557"/><path d="M867.41,1009.16s1-9.45,14.4-16.18c16.61-8.32,21.75-4.52,21.75-4.52l23.26,13.65s-7.14-2-20.93,6.94c-9.89,6.4-13.55,12.62-14.28,14l-.15.29Z" style="fill:#8dad84"/><path d="M884.45,995.65c1.81-2.75,9.23-4.61,14.39-1.58,5.65,3.32,8.14,8.13,5.86,12.27s-8.27,4.89-14.11,1.92C881.28,1003.53,881.75,999.77,884.45,995.65Z" style="fill:#2c14ff;opacity:0.5411764705882353"/><path d="M896,996c.22-1.11-.75-1.61-2.09-1.8-1.47-1-4.6-.74-6.17.89s0,3.4,2.38,3.65S895.62,997.66,896,996Z" style="fill:#f0d400"/><path d="M903.08,1002a3.73,3.73,0,0,0-.61-2,4.87,4.87,0,0,0-.48-1,2.94,2.94,0,0,0-.88-1.52,3,3,0,0,0-4.77,1,4.85,4.85,0,0,0-.43,3.19,8.88,8.88,0,0,0,1.57,3.15,4.36,4.36,0,0,0,2.57,2,2.25,2.25,0,0,0,2.41-1.14A7.32,7.32,0,0,0,903.08,1002Z" style="fill:#f0d400"/><path d="M895.75,1004.52a2.06,2.06,0,0,0-1-.95l-.08,0-.24-.22a9.73,9.73,0,0,0-1.66-.76.58.58,0,0,0-.12-.1,2.37,2.37,0,0,1-.61-1,4,4,0,0,0-.47-1.3A2,2,0,0,0,889,1000a3.92,3.92,0,0,0-1.79,2.7,3.49,3.49,0,0,0,1.29,2.83c1.38,1.34,4.23,3.07,6.52,1.45A1.92,1.92,0,0,0,895.75,1004.52Z" style="fill:#f0d400"/></g></svg>