<svg xmlns="http://www.w3.org/2000/svg" width="300" height="300" viewBox="0 0 300 300"><g id="Layer_15" data-name="Layer 15"><polygon points="15.13 96.6 15.13 211.79 153.91 290.23 153.91 166.6 15.13 96.6" style="fill:#c6c6c6;opacity:0.57"/><polygon points="283.71 105.24 284.87 217.24 153.91 290.23 153.91 166.6 283.71 105.24" style="fill:#949494;opacity:0.5"/><polygon points="15.13 96.6 83.27 96.6 153.91 166.6 15.13 96.6" style="fill:#c2c2c2;opacity:0.38823529411764707"/><polygon points="15.13 96.6 123.61 33.55 211.82 22.99 83.27 96.6 15.13 96.6" style="fill:#dedede;opacity:0.38823529411764707"/><polygon points="82.91 96.6 212.35 22.99 283.14 105.24 153.91 166.6 82.91 96.6" style="fill:#b8b8b8;opacity:0.38823529411764707"/><polygon points="30.64 221.08 30.64 128.6 131.97 185.7 131.56 277.77 30.64 221.08" style="fill:#969696"/><line x1="35.96" y1="141.07" x2="126.65" y2="191.79" style="fill:#ccc;stroke:#636262;stroke-linecap:round;stroke-miterlimit:10;stroke-width:0.8908082842826843px"/><line x1="35.96" y1="153.32" x2="126.65" y2="204.04" style="fill:#ccc;stroke:#636262;stroke-linecap:round;stroke-miterlimit:10;stroke-width:0.8908082842826843px"/><line x1="35.96" y1="165.58" x2="126.65" y2="216.3" style="fill:#ccc;stroke:#636262;stroke-linecap:round;stroke-miterlimit:10;stroke-width:0.8908082842826843px"/><line x1="35.96" y1="177.83" x2="126.65" y2="228.55" style="fill:#ccc;stroke:#636262;stroke-linecap:round;stroke-miterlimit:10;stroke-width:0.8908082842826843px"/><line x1="35.96" y1="190.08" x2="126.65" y2="240.8" style="fill:#ccc;stroke:#636262;stroke-linecap:round;stroke-miterlimit:10;stroke-width:0.8908082842826843px"/><line x1="35.96" y1="202.34" x2="126.65" y2="253.06" style="fill:#ccc;stroke:#636262;stroke-linecap:round;stroke-miterlimit:10;stroke-width:0.8908082842826843px"/><line x1="35.96" y1="214.59" x2="126.65" y2="265.31" style="fill:#ccc;stroke:#636262;stroke-linecap:round;stroke-miterlimit:10;stroke-width:0.8908082842826843px"/></g></svg>