<svg xmlns="http://www.w3.org/2000/svg" width="300" height="300" viewBox="0 0 300 300"><g id="Layer_21" data-name="Layer 21"><path d="M73.5,70.42S63,179.66,59.92,227.66c-2.8,44.08,68.55,49.5,75.77,2.64,6.43-41.63,6.75-84.92,14.78-119.08,9.85-41.95,64.27-38,67.84,0,5,53.26-3.21,107.77-3.21,107.77" style="fill:none;stroke:#919191;stroke-miterlimit:10;stroke-width:23.41258478164673px"/><line x1="57.19" y1="30.52" x2="103.76" y2="35.61" style="fill:none;stroke:#f7c80a;stroke-miterlimit:10;stroke-width:11.706292390823364px;stroke-dasharray:3.902097463607788,3.902097463607788,3.902097463607788,3.902097463607788,3.902097463607788,3.902097463607788"/><rect x="51.86" y="38.46" width="45.85" height="70.24" transform="translate(8.14 -7.44) rotate(6.03)" style="fill:#bababa;opacity:0.6705882352941176"/><polyline points="62.02 36.83 57.81 91.38 61.84 106.28" style="fill:none;stroke:#f94144;stroke-miterlimit:10;stroke-width:3.902097463607788px"/><polyline points="77.78 38.48 71.85 93.24 70 111.22" style="fill:none;stroke:#f9c74f;stroke-miterlimit:10;stroke-width:3.902097463607788px"/><polyline points="68.85 37.73 64.64 93.2 68.67 108.36" style="fill:none;stroke:#f3722c;stroke-miterlimit:10;stroke-width:3.902097463607788px"/><polyline points="92.81 40.22 87.12 93.66 78.52 111.19" style="fill:none;stroke:#577590;stroke-miterlimit:10;stroke-width:3.902097463607788px"/><polyline points="85.7 39.56 79.92 93.48 71.29 111.18" style="fill:none;stroke:#90be6d;stroke-miterlimit:10;stroke-width:3.902097463607788px"/><path d="M50.49,22.72,41.07,112l58.21,6.15,9.42-89.25Zm41.92,86.14-42.69-4.51,1-9.7,42.68,4.51ZM94,94.19,51.27,89.68l1.64-15.52,42.69,4.5ZM97.74,60,55.05,55.44l3.18-30.11,42.68,4.51Z" style="fill:#ededed"/><line x1="233.96" y1="263.46" x2="187.29" y2="259.42" style="fill:none;stroke:#f7c80a;stroke-miterlimit:10;stroke-width:11.706292390823364px;stroke-dasharray:3.902097463607788,3.902097463607788,3.902097463607788,3.902097463607788,3.902097463607788,3.902097463607788"/><rect x="192.47" y="185.69" width="45.85" height="70.24" transform="translate(411.83 458.64) rotate(-175.27)" style="fill:#bababa;opacity:0.6705882352941176"/><polyline points="228.98 257.26 231.96 202.63 227.59 187.82" style="fill:none;stroke:#f94144;stroke-miterlimit:10;stroke-width:3.902097463607788px"/><polyline points="213.18 255.96 217.88 201.09 219.33 183.07" style="fill:none;stroke:#f9c74f;stroke-miterlimit:10;stroke-width:3.902097463607788px"/><polyline points="222.13 256.51 225.09 200.96 220.72 185.9" style="fill:none;stroke:#f3722c;stroke-miterlimit:10;stroke-width:3.902097463607788px"/><polyline points="198.13 254.56 202.61 201.01 210.81 183.29" style="fill:none;stroke:#577590;stroke-miterlimit:10;stroke-width:3.902097463607788px"/><polyline points="205.25 255.07 209.81 201.03 218.04 183.14" style="fill:none;stroke:#90be6d;stroke-miterlimit:10;stroke-width:3.902097463607788px"/><path d="M189.9,176.84l-7.41,89.44,58.33,4.83,7.41-89.44ZM233,268.67l-42.77-3.54,2.5-30.18,42.77,3.55Zm4.22-48.93-42.78-3.54,1.29-15.56,42.78,3.54ZM239,199.2l-42.78-3.54.81-9.73,42.77,3.55Z" style="fill:#ededed"/></g></svg>