<svg xmlns="http://www.w3.org/2000/svg" width="25" height="25" viewBox="0 0 25 25"><g id="Intern_copy" data-name="Intern copy"><path d="M6.88,15.91s0,2,5.8,2.33a6.32,6.32,0,0,0,5.26-1.95l-.88-3.2L7.83,12.9Z" style="fill:#050505"/><path d="M2.57,10.45l9.56-5.7a.68.68,0,0,1,.7,0l9.59,5.64a.15.15,0,0,1,0,.27l-9.83,5.59a.32.32,0,0,1-.33,0L2.57,10.7A.15.15,0,0,1,2.57,10.45Z" style="fill:#524e4e"/><ellipse cx="12.48" cy="9.84" rx="1.05" ry="0.42" style="fill:#252529"/><path d="M18,17.86l.1-4.62a.18.18,0,0,0-.08-.15l-4.72-3a.18.18,0,0,0-.16,0l-.18.07a0,0,0,0,0,0,.08l4.67,3.09a.14.14,0,0,1,.07.12l-.08,4.39Z" style="fill:#ffd942"/><path d="M17.58,18.13l-.68,2a.13.13,0,0,0,.12.18l1.35.06a.18.18,0,0,0,.18-.24l-.69-2Z" style="fill:#ffd942"/><circle cx="17.77" cy="18.06" r="0.35" style="fill:#ffd117"/></g></svg>