<svg xmlns="http://www.w3.org/2000/svg" width="25" height="25" viewBox="0 0 25 25"><g id="Dev_copy" data-name="Dev copy"><path d="M9.23,11.1A3.42,3.42,0,0,0,8,12.51a21.06,21.06,0,0,0-.47,4.64,33.14,33.14,0,0,1-.48,3.56,4.36,4.36,0,0,0,.11,1.55s1.55.14,1.61-.08A31.44,31.44,0,0,0,9.63,17a29.89,29.89,0,0,0,.17-3.66c0-.24,0-.49-.07-.74a2.57,2.57,0,0,0-.21-.78A5.43,5.43,0,0,1,9.23,11.1Z" style="fill:#d4635b"/><path d="M11,10.37c0,.36.11.36.11.36a7.08,7.08,0,0,0,.94.45c.47.1,1.41.18,1.89.24.16,0,.53-.63.53-.63s-.15.49-.06-1.33c.08-1.59.12-1.47.12-1.47a9.53,9.53,0,0,1-1.8,1.64,1.21,1.21,0,0,1-1.57,0A1.54,1.54,0,0,0,11,10.37Z" style="fill:#c28461"/><path d="M17.63,12.61a2.19,2.19,0,0,0-.66-1,3.93,3.93,0,0,0-2.49-.17,11.75,11.75,0,0,1-2.58.12.12.12,0,0,0-.11-.07A3.58,3.58,0,0,1,10.37,11c-.36-.2-.55-.53-.88-.23a3.78,3.78,0,0,0-1.06,2.66c0,1.84.25,2.7.26,3.77,0,.39-.21,2-.34,2.92-.24,1.79-.47,1.7-.42,2.15s8.26.25,8.45-.22a6.87,6.87,0,0,0,.45-1.77c0-.84.19-1.26.18-2.1a18.76,18.76,0,0,1-.09-2.48c.06-.43.11-.86.17-1.29a4.37,4.37,0,0,1,.34-1.15C17.57,13,17.74,13,17.63,12.61Z" style="fill:#ff675c"/><rect x="9.24" y="16.6" width="1.89" height="2.83" rx="0.95" transform="translate(7.21 -2.46) rotate(21.23)" style="fill:#dedede"/><path d="M16,11.21c-.75.77-1.26,1.74-2,2.52a14.36,14.36,0,0,1-2.41,1.84,8.93,8.93,0,0,0-.86.88,24.44,24.44,0,0,1-.28-2.75A7.37,7.37,0,0,0,10,12.26c-.14-.41-.41-.93-.22-1.36.11-.24-.05-.43-.16-.18a1.52,1.52,0,0,0,0,1.27,13,13,0,0,1,.53,1.74,12.47,12.47,0,0,1,.15,2.8.59.59,0,0,0-.52,0,.85.85,0,0,0-.24.32c-.06.15-.13.29-.2.43s-.26.58-.36.88c0,.14-.09.29-.12.44a.51.51,0,0,0,.08.43.89.89,0,0,0,.35.21,3.26,3.26,0,0,0,.44.15,1.85,1.85,0,0,0,.47.08.49.49,0,0,0,.41-.18,3.38,3.38,0,0,0,.7-1.51,1.14,1.14,0,0,0,0-.85.69.69,0,0,0-.4-.29,8.91,8.91,0,0,1,2-1.76A6.41,6.41,0,0,0,14,14a8.18,8.18,0,0,0,1-1.13,12.17,12.17,0,0,1,1.12-1.45C16.37,11.21,16.22,11,16,11.21ZM11.1,17a.41.41,0,0,1,.15.27.94.94,0,0,1,0,.37A4.23,4.23,0,0,1,10.64,19a1,1,0,0,1-.24.26l-.06,0,0-.07a1.21,1.21,0,0,0,.05-.14c0-.1.07-.2.1-.3a1.81,1.81,0,0,0,.06-.61h0a.39.39,0,0,0,.26-.17l.05-.06a.5.5,0,0,0,0-.13.57.57,0,0,0-.17-.47c-.24-.24-.75-.34-1,0a.48.48,0,0,0-.06.35.7.7,0,0,0,.08.23.89.89,0,0,0-.38.39,2.88,2.88,0,0,0-.26.69.26.26,0,0,1-.12-.19,1.41,1.41,0,0,1,.07-.41,7.71,7.71,0,0,1,.3-.8c.06-.13.12-.26.19-.39s.11-.25.18-.36a.34.34,0,0,1,.24-.18.65.65,0,0,1,.31,0h0l.48.13h0A.79.79,0,0,1,11.1,17Z" style="fill:#736b67"/><path d="M17.85,13.21a19.55,19.55,0,0,0,.06,2.44,5.75,5.75,0,0,1-.72,3.86,24.59,24.59,0,0,1-1.54,2.79s-.64,0-1.74.14c.3-1.13.46-1.55.63-2.2.26-.94.72-1.84.86-2.39a8.91,8.91,0,0,0-.1-3.53,3,3,0,0,1,.84-2.67,1.53,1.53,0,0,1,.71-.18C17.5,11.46,17.91,12.46,17.85,13.21Z" style="fill:#d4655f"/><path d="M11,10.22c-.13-.2-.64-.26-1-.1s-.53.23-.41.57a5.91,5.91,0,0,0,1.86.85,13.07,13.07,0,0,0,3,0c.76-.12.87-.27,1.6-.07.3.09,1.33.47,1.44.18s-.26-.6-.35-.75c-.54-.87-.09,0-2.23-1-.44-.2-.41-.18-.47,0a1.36,1.36,0,0,1-1.09,1.15A5.6,5.6,0,0,1,11.67,11C10.75,10.55,11.12,10.42,11,10.22Z" style="fill:#a65550"/><path d="M9.61,4.78a8.92,8.92,0,0,0,.66,4.6,1.43,1.43,0,0,0,.68.75,1.58,1.58,0,0,0,1.26-.08A14.8,14.8,0,0,0,15,7.64a3.46,3.46,0,0,0,.48-.81,4,4,0,0,0,.17-.72A7.08,7.08,0,0,0,15.71,5a1.21,1.21,0,0,0-.13-.88,1.69,1.69,0,0,0-.42-.46,4.76,4.76,0,0,0-2-.87,3.76,3.76,0,0,0-.75,0A4,4,0,0,0,11,3.21,3.81,3.81,0,0,0,9.61,4.78Z" style="fill:#d1926d"/><path d="M9.86,3.51a2.64,2.64,0,0,0-.77,2.14c.34,1.23.47.56.77.31s.94-.49,1.32-.86a1,1,0,0,1,.4-.29,1.85,1.85,0,0,0,0,.71c.11.42.3.24.41.2a1.66,1.66,0,0,0,.76-.55c0,.17,0,0,0,.61S13,6,13,6a1.75,1.75,0,0,0,.55-.38,1.26,1.26,0,0,0,.11.92,1.26,1.26,0,0,0,.56.22c.2.06.43.17.44.38.06.91.16.83.47.49a3.08,3.08,0,0,0,.58-.93,3.09,3.09,0,0,0,.14-.91c0-.32,0-.64,0-1a2.51,2.51,0,0,0-.54-1.52A1.86,1.86,0,0,0,15,3.05a4.81,4.81,0,0,0-2.65-.55,4.61,4.61,0,0,0-1,.08,4.12,4.12,0,0,0-.58.23A2.32,2.32,0,0,0,9.86,3.51Z" style="fill:#735341"/></g></svg>