<svg xmlns="http://www.w3.org/2000/svg" width="300" height="300" viewBox="0 0 300 300"><g id="Layer_23" data-name="Layer 23"><ellipse cx="152.57" cy="82.14" rx="127.6" ry="25.64" style="fill:none;stroke:#ffe91f;stroke-miterlimit:10;stroke-width:9.322132110595703px"/><ellipse cx="152.57" cy="78.42" rx="127.6" ry="25.64" style="fill:none;stroke:#fff494;stroke-miterlimit:10;stroke-width:9.322132110595703px"/><polygon points="43.13 238.89 61.66 216.13 230.22 216.13 216.1 238.89 43.13 238.89" style="fill:#90be6d;stroke:#8ab36b;stroke-miterlimit:10;stroke-width:3.6496695470735645px"/><polygon points="45.77 232.39 64.31 209.63 232.87 209.63 218.75 232.39 45.77 232.39" style="fill:#90be6d;stroke:#8ab36b;stroke-miterlimit:10;stroke-width:3.6496695470735645px"/><polygon points="48.42 225.88 66.95 203.13 235.52 203.13 221.4 225.88 48.42 225.88" style="fill:#90be6d;stroke:#8ab36b;stroke-miterlimit:10;stroke-width:3.6496695470735645px"/><polygon points="50.92 219.38 69.45 196.62 238.01 196.62 223.89 219.38 50.92 219.38" style="fill:#90be6d;stroke:#8ab36b;stroke-miterlimit:10;stroke-width:3.6496695470735645px"/><polygon points="53.72 212.88 72.25 190.12 240.81 190.12 226.69 212.88 53.72 212.88" style="fill:#90be6d;stroke:#8ab36b;stroke-miterlimit:10;stroke-width:3.6496695470735645px"/><polygon points="56.92 204.75 75.45 181.99 244.02 181.99 229.9 204.75 56.92 204.75" style="fill:#90be6d;stroke:#8ab36b;stroke-miterlimit:10;stroke-width:3.6496695470735645px"/><polygon points="59.01 198.93 77.54 176.17 246.11 176.17 231.99 198.93 59.01 198.93" style="fill:#90be6d;stroke:#8ab36b;stroke-miterlimit:10;stroke-width:3.6496695470735645px"/><polygon points="61.67 193.37 80.2 170.61 248.77 170.61 234.65 193.37 61.67 193.37" style="fill:#90be6d;stroke:#8ab36b;stroke-miterlimit:10;stroke-width:3.6496695470735645px"/><polygon points="110.03 238.89 146.97 170.61 172.35 170.61 138.91 238.89 110.03 238.89" style="fill:#fffce0;stroke:#fffce0;stroke-miterlimit:10;stroke-width:3.6496695470735645px"/></g></svg>