<svg xmlns="http://www.w3.org/2000/svg" width="300" height="300" viewBox="0 0 300 300"><g id="Layer_16" data-name="Layer 16"><polygon points="88.52 260.26 90.48 35 150.94 73.86 150.47 298.46 88.52 260.26" style="fill:#fff;opacity:0.23137254901960785"/><polygon points="211.48 260.26 211.4 35 150.94 73.86 151.41 298.46 211.48 260.26" style="fill:#8c8c8c;opacity:0.30196078431372547"/><polygon points="97.24 99.59 97.54 64.31 107.01 70.4 106.94 105.58 97.24 99.59" style="fill:#e0cea4"/><polygon points="97.24 146.08 97.54 110.8 107.01 116.89 106.94 152.06 97.24 146.08" style="fill:#e0cea4"/><polygon points="97.24 192.57 97.54 157.29 107.01 163.38 106.94 198.55 97.24 192.57" style="fill:#e0cea4"/><polygon points="97.24 239.05 97.54 203.78 107.01 209.86 106.94 245.03 97.24 239.05" style="fill:#e0cea4"/><polygon points="205.2 100.66 204.89 65.38 195.42 71.47 195.5 106.64 205.2 100.66" style="fill:#a89c7e"/><polygon points="205.2 147.15 204.89 111.87 195.42 117.96 195.5 153.13 205.2 147.15" style="fill:#a89c7e"/><polygon points="205.2 193.63 204.89 158.36 195.42 164.44 195.5 199.62 205.2 193.63" style="fill:#a89c7e"/><polygon points="205.2 240.12 204.89 204.84 195.42 210.93 195.5 246.1 205.2 240.12" style="fill:#a89c7e"/><polygon points="189.34 111.85 189.04 76.57 179.57 82.66 179.64 117.83 189.34 111.85" style="fill:#a89c7e"/><polygon points="189.34 157.34 189.04 122.06 179.57 128.15 179.64 163.32 189.34 157.34" style="fill:#a89c7e"/><polygon points="189.34 204.82 189.04 169.54 179.57 175.63 179.64 210.81 189.34 204.82" style="fill:#a89c7e"/><polygon points="189.34 251.31 189.04 216.03 179.57 222.12 179.64 257.29 189.34 251.31" style="fill:#a89c7e"/><polygon points="171.09 120.33 170.78 85.05 161.31 91.13 161.38 126.31 171.09 120.33" style="fill:#a89c7e"/><polygon points="171.09 166.81 170.78 131.53 161.31 137.62 161.38 172.79 171.09 166.81" style="fill:#a89c7e"/><polygon points="171.09 213.3 170.78 178.02 161.31 184.11 161.38 219.28 171.09 213.3" style="fill:#a89c7e"/><polygon points="171.09 259.78 170.78 224.51 161.31 230.59 161.38 265.77 171.09 259.78" style="fill:#a89c7e"/><polygon points="114.8 111.65 115.1 76.37 124.57 82.46 124.5 117.63 114.8 111.65" style="fill:#e0cea4"/><polygon points="114.8 158.14 115.1 122.86 124.57 128.94 124.5 164.12 114.8 158.14" style="fill:#e0cea4"/><polygon points="114.8 204.62 115.1 169.34 124.57 175.43 124.5 210.6 114.8 204.62" style="fill:#e0cea4"/><polygon points="114.8 251.11 115.1 215.83 124.57 221.92 124.5 257.09 114.8 251.11" style="fill:#e0cea4"/><polygon points="132.87 122.84 133.18 87.56 142.64 93.65 142.57 128.82 132.87 122.84" style="fill:#e0cea4"/><polygon points="132.87 169.32 133.18 134.04 142.64 140.13 142.57 175.31 132.87 169.32" style="fill:#e0cea4"/><polygon points="132.87 215.81 133.18 180.53 142.64 186.62 142.57 221.79 132.87 215.81" style="fill:#e0cea4"/><polygon points="132.87 262.3 133.18 227.02 142.64 233.1 142.57 268.28 132.87 262.3" style="fill:#e0cea4"/><polygon points="90.48 35 152.14 0 211.4 35 150.94 73.86 90.48 35" style="fill:#fff;opacity:0.10980392156862745"/></g></svg>