<svg id="Intern" xmlns="http://www.w3.org/2000/svg" width="325" height="325" viewBox="0 0 325 325"><path d="M79.19,240.93s-.48,29.95,86.93,34.95c53.52,3.06,79-29.23,79-29.23l-13.32-48-138.45-2.9Z" style="fill:#050505"/><path d="M14.53,159,157.86,73.57a10.37,10.37,0,0,1,10.57,0L312.3,158.09a2.34,2.34,0,0,1,0,4L164.79,246a5,5,0,0,1-4.94,0L14.56,162.83A2.2,2.2,0,0,1,14.53,159Z" style="fill:#524e4e"/><ellipse cx="163.09" cy="149.8" rx="15.73" ry="6.29" style="fill:#252529"/><path d="M245.35,270.11l1.54-69.2a2.65,2.65,0,0,0-1.22-2.29l-70.82-45a2.67,2.67,0,0,0-2.41-.24l-2.64,1a.75.75,0,0,0-.14,1.33l70,46.23a2.1,2.1,0,0,1,1,1.81l-1.2,65.92Z" style="fill:#ffd942"/><path d="M239.67,274.24,229.4,303.71a2.13,2.13,0,0,0,1.91,2.82l20.25.89a2.74,2.74,0,0,0,2.71-3.65L243.9,274.1Z" style="fill:#ffd942"/><circle cx="242.45" cy="273.22" r="5.21" style="fill:#ffd117"/></svg>