<svg xmlns="http://www.w3.org/2000/svg" width="300" height="300" viewBox="0 0 300 300"><g id="Layer_19" data-name="Layer 19"><polygon points="24.14 78.43 24.14 222.94 149.29 295.19 274.43 222.94 274.43 78.43 149.29 6.18 24.14 78.43" style="fill:#577590"/><path d="M157.39,43.37l-17,10c-.17.1-.37.35-.2.44L177,75.15c.07,0,.13-.37.2-.41l18.36-9.61c.17-.09,0-.29-.2-.39L157.65,43.37A.3.3,0,0,0,157.39,43.37Z" style="fill:#424242"/><path d="M195.91,65.39l0,63.26a.65.65,0,0,1-.37.59l-18.74,9.26a.37.37,0,0,1-.52-.33L176.79,75a.47.47,0,0,1,.25-.41l18.41-9.52A.32.32,0,0,1,195.91,65.39Z" style="fill:#262626"/><path d="M139.82,54.28l-.17,63.29a1.24,1.24,0,0,0,.62,1.07l35,20a.67.67,0,0,0,1-.57l.51-63.19a.57.57,0,0,0-.29-.5l-36-20.54A.48.48,0,0,0,139.82,54.28Z" style="fill:#2b2b2b"/><line x1="143.33" y1="62.83" x2="172.68" y2="79.48" style="fill:#424242;stroke:#7f0;stroke-linecap:round;stroke-linejoin:round;stroke-width:1.2894213199615479px"/><line x1="143.33" y1="71.96" x2="172.68" y2="88.61" style="fill:#424242;stroke:#7f0;stroke-linecap:round;stroke-linejoin:round;stroke-width:1.2894213199615479px"/><line x1="143.33" y1="79.01" x2="172.68" y2="95.66" style="fill:#424242;stroke:#7f0;stroke-linecap:round;stroke-linejoin:round;stroke-width:1.2894213199615479px"/><line x1="143.33" y1="86.9" x2="172.68" y2="103.54" style="fill:#424242;stroke:#7f0;stroke-linecap:round;stroke-linejoin:round;stroke-width:1.2894213199615479px"/><line x1="143.33" y1="96.34" x2="172.68" y2="112.99" style="fill:#424242;stroke:#7f0;stroke-linecap:round;stroke-linejoin:round;stroke-width:1.2894213199615479px"/><line x1="143.33" y1="104.66" x2="172.68" y2="121.31" style="fill:#424242;stroke:#7f0;stroke-linecap:round;stroke-linejoin:round;stroke-width:1.2894213199615479px"/><line x1="143.33" y1="112.99" x2="172.68" y2="129.63" style="fill:#424242;stroke:#7f0;stroke-linecap:round;stroke-linejoin:round;stroke-width:1.2894213199615479px"/><line x1="143.33" y1="67.1" x2="172.68" y2="83.74" style="fill:#424242;stroke:#0084ff;stroke-linecap:round;stroke-linejoin:round;stroke-width:1.2894213199615479px"/><line x1="143.33" y1="75.42" x2="172.68" y2="92.07" style="fill:#424242;stroke:#0084ff;stroke-linecap:round;stroke-linejoin:round;stroke-width:1.2894213199615479px"/><line x1="143.55" y1="83.12" x2="172.89" y2="99.77" style="fill:#424242;stroke:#0084ff;stroke-linecap:round;stroke-linejoin:round;stroke-width:1.2894213199615479px"/><line x1="143.33" y1="91.44" x2="172.68" y2="108.09" style="fill:#424242;stroke:#0084ff;stroke-linecap:round;stroke-linejoin:round;stroke-width:1.2894213199615479px"/><line x1="143.33" y1="100.36" x2="172.68" y2="117.01" style="fill:#424242;stroke:#0084ff;stroke-linecap:round;stroke-linejoin:round;stroke-width:1.2894213199615479px"/><line x1="143.33" y1="108.69" x2="172.68" y2="125.33" style="fill:#424242;stroke:#0084ff;stroke-linecap:round;stroke-linejoin:round;stroke-width:1.2894213199615479px"/><path d="M107.85,93.47s-4.07,2.63-5.19,6c-1.75,5.25-1.7,14.22-2,19.76-.46,7.86-1.69,12.1-2,15.14a18.48,18.48,0,0,0,.47,6.57s6.61.63,6.87-.33a139.31,139.31,0,0,0,3.63-22.05c.33-5.18,1-10.36.69-15.55q-.09-1.58-.3-3.15a9.68,9.68,0,0,0-.89-3.31A27.52,27.52,0,0,1,107.85,93.47Z" style="fill:#d4635b"/><path d="M115.42,90.38c0,1.52.47,1.52.47,1.52a27.79,27.79,0,0,0,4,1.91c2,.44,6,.78,8.07,1,.66.08,2.24-2.68,2.24-2.68s-.64,2.08-.26-5.65c.35-6.77.54-6.28.54-6.28s-1.44,2.1-7.66,7a5.16,5.16,0,0,1-6.71,0A6.93,6.93,0,0,0,115.42,90.38Z" style="fill:#c28461"/><path d="M143.6,99.91c-.41-1.3-1.67-3.78-2.85-4.42-3.23-1.75-7.11-1.22-10.59-.7a50.49,50.49,0,0,1-11,.51.52.52,0,0,0-.45-.31,15.17,15.17,0,0,1-6-1.88c-1.55-.86-2.34-2.27-3.74-1a16.16,16.16,0,0,0-4.51,11.34c0,7.82,1,11.5,1.1,16,0,1.67-.9,8.32-1.45,12.42-1,7.63-2,7.26-1.79,9.14.2,1.62,35.14,1.07,36-.91.62-1.54,2-5.9,1.91-7.54-.21-3.57.8-5.36.79-9,0-3.77-.86-6.8-.37-10.53.24-1.84.44-3.68.7-5.52a18.56,18.56,0,0,1,1.45-4.9C143.31,101.35,144.06,101.36,143.6,99.91Z" style="fill:#ff675c"/><rect x="107.86" y="116.88" width="8.06" height="12.02" rx="2.27" transform="translate(52.08 -32.17) rotate(21.23)" style="fill:#dedede"/><path d="M136.64,93.92c-3.2,3.29-5.35,7.43-8.5,10.76-2.91,3.09-6.83,5.41-10.27,7.8-1.18.82-2.63,2.77-3.66,3.76-.82-2.89-.71-7.8-1.18-11.7a30.18,30.18,0,0,0-1.76-6.13c-.59-1.73-1.75-4-.93-5.8.45-1-.19-1.8-.69-.76-.93,1.91-.66,3.45-.05,5.39.68,2.14,2,5.18,2.29,7.4a54.79,54.79,0,0,1,.64,11.94,2.53,2.53,0,0,0-2.23.17,3.37,3.37,0,0,0-1,1.38c-.29.6-.57,1.2-.85,1.81a35.67,35.67,0,0,0-1.54,3.73,14.77,14.77,0,0,0-.52,1.87,2.16,2.16,0,0,0,.34,1.83,3.53,3.53,0,0,0,1.47.92,13.09,13.09,0,0,0,1.89.63,9.12,9.12,0,0,0,2,.35,2.24,2.24,0,0,0,1.76-.77c1.64-1.76,2.36-4.16,3-6.44.3-1.15.7-2.51,0-3.62a3,3,0,0,0-1.7-1.25,37.56,37.56,0,0,1,8.38-7.45,29.29,29.29,0,0,0,4.77-3.84,33.75,33.75,0,0,0,4.21-4.81,57.24,57.24,0,0,1,4.77-6.19C138.2,93.93,137.58,93,136.64,93.92Zm-20.85,24.51a1.8,1.8,0,0,1,.64,1.16,4.21,4.21,0,0,1-.19,1.58,18.12,18.12,0,0,1-2.4,6,3.6,3.6,0,0,1-1,1.11.67.67,0,0,1-.23.1l.12-.32.24-.61c.15-.41.29-.83.41-1.25a7.15,7.15,0,0,0,.24-2.6.13.13,0,0,1,0-.06,1.65,1.65,0,0,0,1.1-.7.9.9,0,0,0,.21-.27A1.24,1.24,0,0,0,115,122a2.28,2.28,0,0,0-.71-2c-1-1-3.2-1.45-4.09,0a2.1,2.1,0,0,0-.25,1.47,3.5,3.5,0,0,0,.33,1,3.83,3.83,0,0,0-1.59,1.67,13,13,0,0,0-1.13,2.91,1.08,1.08,0,0,1-.51-.8,5.14,5.14,0,0,1,.32-1.73,28,28,0,0,1,1.28-3.41c.25-.56.52-1.12.79-1.67s.48-1,.77-1.52a1.45,1.45,0,0,1,1-.79,3.52,3.52,0,0,1,1.32.18h0l2,.56.08,0A3.07,3.07,0,0,1,115.79,118.43Z" style="fill:#736b67"/><path d="M144.52,102.46a83.58,83.58,0,0,0,.26,10.37c.26,5.84,1.07,8-3.08,16.44a101.54,101.54,0,0,1-6.55,11.87s-2.72,0-7.39.57c1.28-4.78,2-6.58,2.69-9.33,1.08-4,3-7.85,3.65-10.2.88-3.28.71-9.51-.43-15-.77-3.72.69-9.11,3.55-11.34a6.33,6.33,0,0,1,3-.77C143,95,144.78,99.26,144.52,102.46Z" style="fill:#d4635b"/><path d="M115.35,89.73c-.54-.84-2.7-1.1-4.32-.43s-2.24,1-1.76,2.42c.15.44,4.51,2.75,7.91,3.62,2.06.54,10.06.41,12.79,0,3.24-.51,3.7-1.14,6.81-.27,1.26.35,5.65,2,6.13.77.28-.73-1.1-2.56-1.51-3.22-2.27-3.71-.39-.18-9.46-4.1-1.9-.82-2.06-1-2.34-.07-.33,1.08-.71,4.65-4.34,5.14-1.15.15-5.74-.06-7-.65C114.29,91.14,115.88,90.58,115.35,89.73Z" style="fill:#ba5b56"/><path d="M109.47,66.58c-.63,7.23-.4,10.34,2.8,19.57a5.83,5.83,0,0,0,2.88,3.18,6.67,6.67,0,0,0,5.36-.34,61.61,61.61,0,0,0,11.81-10.25,16,16,0,0,0,2-3.42c.53-1,.41-2,.72-3.1a27.46,27.46,0,0,0,.37-4.81c.12-1.4.26-2.58-.56-3.72a7.14,7.14,0,0,0-1.79-2c-2.62-1.68-5.4-3.35-8.5-3.68a13.79,13.79,0,0,0-3.21.06,16.48,16.48,0,0,0-6,1.81C113.55,60.93,109.61,64.91,109.47,66.58Z" style="fill:#d1926d"/><path d="M110.54,61.19c-2.08,2.51-4.14,6-3.3,9.08,1.43,5.26,2,2.39,3.27,1.34,1.72-1.45,4-2.11,5.62-3.68a4.5,4.5,0,0,1,1.69-1.22,8.43,8.43,0,0,0,.05,3c.45,1.75,1.29,1,1.76.83a7.43,7.43,0,0,0,3.24-2.31c-.19.71-.06,0-.16,2.58-.08,2.09,1,.92,1.26.82A7,7,0,0,0,126.3,70c-.31,1.34-.19,3.16.45,3.91a5.77,5.77,0,0,0,2.4,1c.84.23,1.83.72,1.89,1.59.25,3.89.67,3.53,2,2.08a14.64,14.64,0,0,0,2.45-3.93,12.41,12.41,0,0,0,.57-3.88,33.53,33.53,0,0,0-.14-4.13c-.21-2.29-.67-4.8-2.31-6.47a7.21,7.21,0,0,0-1.17-1c-3.23-2.17-7.38-2.28-11.27-2.32a17.35,17.35,0,0,0-4.44.35,17.59,17.59,0,0,0-2.5,1A10,10,0,0,0,110.54,61.19Z" style="fill:#735341"/><path d="M95.24,137.32l73.18-37.76a1.21,1.21,0,0,1,1.11,0l25.73,12.16c.17.08-.92.56-1.08.65l-71.32,41.34a1.2,1.2,0,0,1-1.19,0L95.22,139.48A1.22,1.22,0,0,1,95.24,137.32Z" style="fill:#a0d0de"/><path d="M123.76,149.84l68.44-38.35a2.46,2.46,0,0,1,3.71,2.09l-.25,26.48a2.38,2.38,0,0,1-1.15,2L124,185.35c-1.64,1-3.77.35-3.77-1.54l2.11-29.75C122.3,153.21,123,150.28,123.76,149.84Z" style="fill:#8fbcc9"/><path d="M191.27,117.25l-.12,16c.33.83-.21,1.49-1.9,2.46l-47.89,27.76c-2.14,1.23-1.45-.92-1.86-2l0-13.28c-.43-1.08.59-3.27,2.88-4.51l45.85-26.31C189.46,116.75,191,116.66,191.27,117.25Z" style="fill:#accfd9"/><path d="M176.32,153.34s-2.84-7.88,2.23-11.35c7.64-5.25,11.22,2.88,11.22,2.88" style="fill:#1d6c80"/><path d="M133.27,179.58s-1.09-1.05-1.53-6.84a7.66,7.66,0,0,1,4.93-7.25c7.45-2.36,10.13,5.79,10.13,5.79" style="fill:#1d6c80"/><ellipse cx="139.21" cy="172.86" rx="7.38" ry="6.89" transform="translate(-57.13 276.34) rotate(-78.94)" style="fill:#292929"/><ellipse cx="140.32" cy="173.75" rx="7.22" ry="6.05" transform="translate(-57.11 278.15) rotate(-78.94)" style="fill:#666"/><ellipse cx="183.23" cy="148.13" rx="7.38" ry="6.89" transform="translate(2.71 299.55) rotate(-78.94)" style="fill:#292929"/><ellipse cx="184.34" cy="149.02" rx="7.22" ry="6.05" transform="translate(2.74 301.36) rotate(-78.94)" style="fill:#666"/><path d="M93.19,170.52V140.31a3.13,3.13,0,0,1,4.53-2.66L122,149a3,3,0,0,1,1.75,2.67v31.11a3.14,3.14,0,0,1-4.62,2.62L94.85,173.14A2.94,2.94,0,0,1,93.19,170.52Z" style="fill:#7b9ea8"/><path d="M125.74,181.75l-.46-26.44a6.06,6.06,0,0,1,.52-2.66c.67-.94,5.27-2.44,5.49-1.92,1.23,2.87,2.4,15.63,2.2,15.78-4.17,3.23-1.5,11.78-1.5,11.78Z" style="fill:#6c777a"/><polygon points="118.26 134.56 125.82 138.15 124.99 142.77 116.61 143.81 108.47 140.09 109.35 135.24 118.26 134.56" style="fill:#cad9e0"/><polygon points="129.87 128.09 137.42 131.68 136.59 136.3 128.22 137.34 120.08 133.62 120.96 128.77 129.87 128.09" style="fill:#cad9e0"/><polygon points="141.88 122.03 149.43 125.62 148.6 130.24 140.23 131.27 132.09 127.56 132.97 122.7 141.88 122.03" style="fill:#cad9e0"/><polygon points="153.16 115.52 160.72 119.11 159.89 123.73 151.51 124.77 143.38 121.05 144.25 116.2 153.16 115.52" style="fill:#cad9e0"/><polygon points="164.69 109.65 172.25 113.23 171.42 117.85 163.04 118.89 154.9 115.18 155.78 110.32 164.69 109.65" style="fill:#cad9e0"/><polygon points="175.82 103.52 183.38 107.11 182.55 111.73 174.18 112.76 166.04 109.05 166.92 104.19 175.82 103.52" style="fill:#cad9e0"/><path d="M96.68,170.53l20.52,10.31a.89.89,0,0,0,1.29-.74l.41-5.82a2,2,0,0,0-1.15-1.95L97.68,163a.67.67,0,0,0-1,.59l-.27,6.57A.41.41,0,0,0,96.68,170.53Z" style="fill:#6c777a"/><line x1="98.18" y1="166.39" x2="116.01" y2="174.69" style="fill:#6c777a;stroke:#000;stroke-linecap:round;stroke-linejoin:round;stroke-width:0.32235532999038696px"/><line x1="97.76" y1="169.72" x2="115.59" y2="178.02" style="fill:#6c777a;stroke:#000;stroke-linecap:round;stroke-linejoin:round;stroke-width:0.32235532999038696px"/><line x1="97.76" y1="167.77" x2="115.59" y2="176.08" style="fill:#6c777a;stroke:#000;stroke-linecap:round;stroke-miterlimit:10;stroke-width:0.32235532999038696px"/><path d="M93.9,162.39l-.06,5.89a1.66,1.66,0,0,0,1,1.52l1.17.5.18-7.26a1,1,0,0,0-.52-.89l-.74-.38A.7.7,0,0,0,93.9,162.39Z" style="fill:#ffffe8;stroke:#e6f9ff;stroke-linecap:round;stroke-linejoin:round;stroke-width:0.32235532999038696px"/><path d="M121.26,175.3l-.28,5.46a.74.74,0,0,1-1,.66l-1.09-.37.38-7.07a.4.4,0,0,1,.58-.34l.62.31A1.42,1.42,0,0,1,121.26,175.3Z" style="fill:#ffffe8;stroke:#e6f9ff;stroke-linecap:round;stroke-linejoin:round;stroke-width:0.32235532999038696px"/><path d="M141.33,161l-.57-13.46a.41.41,0,0,1,.19-.35l15.22-8.86a.38.38,0,0,1,.57.32l.43,12.86a.38.38,0,0,1-.18.34l-15.07,9.46A.38.38,0,0,1,141.33,161Z" style="fill:#8aa4ab;opacity:0.6392156862745098"/><path d="M158.05,150.89l-.6-12.82a.39.39,0,0,1,.19-.34l15.22-8.87a.38.38,0,0,1,.57.32l.43,12.87a.39.39,0,0,1-.18.34l-15.07,8.81A.36.36,0,0,1,158.05,150.89Z" style="fill:#8aa4ab;opacity:0.6392156862745098"/><path d="M174.58,141.23l-.44-12.56a.42.42,0,0,1,.19-.35l15.22-8.86a.38.38,0,0,1,.57.32l.43,12.87a.4.4,0,0,1-.18.33L175,141.8C174.79,142,174.59,141.53,174.58,141.23Z" style="fill:#8aa4ab;opacity:0.6392156862745098"/><path d="M94.85,143.41,94.58,158A2.18,2.18,0,0,0,95.9,160l21.81,9.58a1.59,1.59,0,0,0,2.24-1.41l.24-12.68c0-1.16-.7-2.89-1.8-3.3l-22.27-9.63A.94.94,0,0,0,94.85,143.41Z" style="fill:#e8e8e8;opacity:0.3686274509803922"/><path d="M101.6,162.34s6.33-1.74,11.74-.86a14.43,14.43,0,0,0,6.74-.71l-.07,2.84s-3.05,1.23-9.59-.25a10.42,10.42,0,0,0-6.08.27Z" style="fill:#accfd9;opacity:0.5411764705882353"/><path d="M113.46,150.06c-3.93,1.87-6.52,1.63-10,.72-3.31-.87-8.88,3.18-8.88,3.18v3s4.43-1.73,6-1.72c1.82,0,4.59,1.39,6.9,2,3,.86,12.7,1.2,12.7,1.2s.22-3.79-.31-4.56c-.36-.53-.53-1.22-1.15-1.52C116.49,151.36,115.3,150.8,113.46,150.06Z" style="fill:#accfd9;opacity:0.7019607843137254"/><path d="M166.27,172s-.1,6.24,18.1,7.28c11.14.64,16.45-6.09,16.45-6.09l-2.77-10-28.83-.6Z" style="fill:#050505"/><path d="M152.81,154.92l29.84-17.79a2.14,2.14,0,0,1,2.2,0l30,17.6a.49.49,0,0,1,0,.85L184.09,173a1,1,0,0,1-1,0l-30.26-17.32A.46.46,0,0,1,152.81,154.92Z" style="fill:#524e4e"/><ellipse cx="183.74" cy="153" rx="3.28" ry="1.31" style="fill:#252529"/><path d="M200.87,178.05l.32-14.41a.56.56,0,0,0-.26-.48l-14.74-9.36a.59.59,0,0,0-.5-.05l-.55.22a.15.15,0,0,0,0,.27l14.58,9.63a.43.43,0,0,1,.2.38L199.64,178Z" style="fill:#ffd942"/><path d="M199.69,178.91,197.55,185a.44.44,0,0,0,.39.59l4.22.19a.58.58,0,0,0,.57-.76l-2.16-6.18Z" style="fill:#ffd942"/><circle cx="200.26" cy="178.7" r="1.09" style="fill:#ffd117"/><path d="M166.27,172s-.1,6.24,18.1,7.28c11.14.64,16.45-6.09,16.45-6.09l-2.77-10-28.83-.6Z" style="fill:#050505"/><path d="M152.81,154.92l29.84-17.79a2.14,2.14,0,0,1,2.2,0l30,17.6a.49.49,0,0,1,0,.85L184.09,173a1,1,0,0,1-1,0l-30.26-17.32A.46.46,0,0,1,152.81,154.92Z" style="fill:#524e4e"/><ellipse cx="183.74" cy="153" rx="3.28" ry="1.31" style="fill:#252529"/><path d="M200.87,178.05l.32-14.41a.56.56,0,0,0-.26-.48l-14.74-9.36a.59.59,0,0,0-.5-.05l-.55.22a.15.15,0,0,0,0,.27l14.58,9.63a.43.43,0,0,1,.2.38L199.64,178Z" style="fill:#ffd942"/><path d="M199.69,178.91,197.55,185a.44.44,0,0,0,.39.59l4.22.19a.58.58,0,0,0,.57-.76l-2.16-6.18Z" style="fill:#ffd942"/><circle cx="200.26" cy="178.7" r="1.09" style="fill:#ffd117"/><path d="M57.75,207h9.3a20.81,20.81,0,0,1,5.15.67,13.33,13.33,0,0,1,4.67,2.21,11.48,11.48,0,0,1,3.38,4,13.4,13.4,0,0,1,1.29,6.2,12.69,12.69,0,0,1-1.29,5.93,12.09,12.09,0,0,1-3.38,4.08,14,14,0,0,1-4.67,2.35,18.1,18.1,0,0,1-5.15.76h-9.3Zm8.56,22.17a15.52,15.52,0,0,0,3.63-.43,9.33,9.33,0,0,0,3.28-1.44,7.63,7.63,0,0,0,2.39-2.77,9.3,9.3,0,0,0,.93-4.41,9.88,9.88,0,0,0-.93-4.59,7.43,7.43,0,0,0-2.39-2.78,8.7,8.7,0,0,0-3.28-1.37,17.89,17.89,0,0,0-3.63-.37H62.42v18.16Z" style="fill:#fff"/><path d="M85.29,209.43a2.56,2.56,0,0,1,.79-1.87,2.75,2.75,0,0,1,2-.8,3,3,0,0,1,2.06.76,2.47,2.47,0,0,1,.83,1.91,2.44,2.44,0,0,1-.83,1.91,2.93,2.93,0,0,1-2.06.76,2.71,2.71,0,0,1-2-.8A2.55,2.55,0,0,1,85.29,209.43Zm.63,6h4.44v17.79H85.92Z" style="fill:#fff"/><path d="M105.52,220.22a5.19,5.19,0,0,0-1.63-1.36,4.6,4.6,0,0,0-2.26-.57,4.25,4.25,0,0,0-2,.45,1.51,1.51,0,0,0-.89,1.48,1.47,1.47,0,0,0,1,1.46,16.61,16.61,0,0,0,2.87.87,15.93,15.93,0,0,1,2,.6,7,7,0,0,1,1.85,1,4.84,4.84,0,0,1,1.36,1.52,4.42,4.42,0,0,1,.52,2.2,5.69,5.69,0,0,1-.62,2.76,5.09,5.09,0,0,1-1.63,1.84,6.87,6.87,0,0,1-2.37,1,12.26,12.26,0,0,1-2.8.31,11.05,11.05,0,0,1-4-.76,8.58,8.58,0,0,1-3.26-2.16l2.93-2.75a5.75,5.75,0,0,0,1.93,1.6,5.5,5.5,0,0,0,2.63.63,4.75,4.75,0,0,0,1-.11,3.74,3.74,0,0,0,.93-.36,1.84,1.84,0,0,0,.68-.65,1.75,1.75,0,0,0,.26-1,1.64,1.64,0,0,0-1-1.59,16.6,16.6,0,0,0-3-1,14.14,14.14,0,0,1-2-.58,6.4,6.4,0,0,1-1.69-.92,4.31,4.31,0,0,1-1.18-1.43,4.48,4.48,0,0,1-.45-2.11,5.18,5.18,0,0,1,.61-2.56,5.26,5.26,0,0,1,1.62-1.76,7.05,7.05,0,0,1,2.26-1,10.17,10.17,0,0,1,2.59-.34,11,11,0,0,1,3.76.67,6.36,6.36,0,0,1,2.91,2Z" style="fill:#fff"/><path d="M112.23,215.47h4.26v3h.08a6.4,6.4,0,0,1,2.07-2.52,5.2,5.2,0,0,1,3.11-1l.56,0a2.4,2.4,0,0,1,.52.1v4.07c-.3-.07-.55-.12-.76-.15l-.61,0a4.73,4.73,0,0,0-2.45.55,4.34,4.34,0,0,0-1.44,1.34,4.87,4.87,0,0,0-.71,1.59,6.46,6.46,0,0,0-.18,1.3v9.52h-4.45Z" style="fill:#fff"/><path d="M142,233.26h-4.22v-2.85h-.08a5.73,5.73,0,0,1-2.05,2.35,5.92,5.92,0,0,1-3.47,1,6.66,6.66,0,0,1-3-.61,5.84,5.84,0,0,1-2-1.61,6.59,6.59,0,0,1-1.17-2.3,9.89,9.89,0,0,1-.37-2.67V215.47H130v9.86a13.26,13.26,0,0,0,.11,1.63,4.71,4.71,0,0,0,.48,1.54,3.17,3.17,0,0,0,1,1.13,3,3,0,0,0,1.73.45,3.75,3.75,0,0,0,1.83-.43,4,4,0,0,0,1.3-1.09,5.15,5.15,0,0,0,.76-1.54,6.25,6.25,0,0,0,.26-1.76v-9.79H142Z" style="fill:#fff"/><path d="M151.55,215.47V218h.11a7.25,7.25,0,0,1,.87-1.06,5.61,5.61,0,0,1,1.32-1,8.51,8.51,0,0,1,1.76-.71,8.74,8.74,0,0,1,5.69.45,8.24,8.24,0,0,1,2.74,2,8.88,8.88,0,0,1,1.78,3,10.46,10.46,0,0,1,.63,3.66,10.86,10.86,0,0,1-.61,3.69,9.25,9.25,0,0,1-1.74,3,8.32,8.32,0,0,1-6.4,2.79,7.68,7.68,0,0,1-3.46-.78,5.85,5.85,0,0,1-2.43-2.11h-.07v11.27h-4.45V215.47Zm10.38,8.82a6.9,6.9,0,0,0-.32-2,5.83,5.83,0,0,0-.94-1.84,4.74,4.74,0,0,0-1.59-1.31,4.8,4.8,0,0,0-2.26-.5,4.49,4.49,0,0,0-2.19.52,5.62,5.62,0,0,0-1.65,1.33,5.71,5.71,0,0,0-1,1.85,6.63,6.63,0,0,0-.35,2.08,6.41,6.41,0,0,0,.35,2.06,5.72,5.72,0,0,0,1,1.83,5.59,5.59,0,0,0,1.65,1.32,4.71,4.71,0,0,0,2.19.5,4.8,4.8,0,0,0,2.26-.52,4.94,4.94,0,0,0,1.59-1.34,5.67,5.67,0,0,0,.94-1.85A7.1,7.1,0,0,0,161.93,224.29Z" style="fill:#fff"/><path d="M168.19,219v-3.56h3.12v-5.15h4.37v5.15h4.45V219h-4.45v8.27a4,4,0,0,0,.43,2c.28.52.92.78,1.91.78a5.72,5.72,0,0,0,1-.09,4.22,4.22,0,0,0,.93-.28l.14,3.48a7.28,7.28,0,0,1-1.4.36,10.93,10.93,0,0,1-1.56.13,7,7,0,0,1-2.89-.51,4.35,4.35,0,0,1-1.76-1.37,4.92,4.92,0,0,1-.89-2,11.64,11.64,0,0,1-.24-2.43V219Z" style="fill:#fff"/><path d="M182.31,224.29a9.52,9.52,0,0,1,.76-3.83,9.16,9.16,0,0,1,2.06-3,9.27,9.27,0,0,1,3.08-1.89,11,11,0,0,1,7.56,0,9.22,9.22,0,0,1,3.07,1.89,9,9,0,0,1,2.06,3,9.35,9.35,0,0,1,.76,3.83,9.5,9.5,0,0,1-.76,3.86,9,9,0,0,1-2.06,3,9.36,9.36,0,0,1-3.07,2,10.56,10.56,0,0,1-7.56,0,9.41,9.41,0,0,1-3.08-2,9.18,9.18,0,0,1-2.06-3A9.67,9.67,0,0,1,182.31,224.29Zm4.53,0a7.09,7.09,0,0,0,.31,2.08,5.69,5.69,0,0,0,.95,1.85,4.94,4.94,0,0,0,1.59,1.34,5.35,5.35,0,0,0,4.6,0,4.94,4.94,0,0,0,1.59-1.34,5.67,5.67,0,0,0,.94-1.85,7.1,7.1,0,0,0,.32-2.08,6.9,6.9,0,0,0-.32-2,5.83,5.83,0,0,0-.94-1.84,4.74,4.74,0,0,0-1.59-1.31,5.54,5.54,0,0,0-4.6,0,4.74,4.74,0,0,0-1.59,1.31,5.85,5.85,0,0,0-.95,1.84A6.89,6.89,0,0,0,186.84,224.29Z" style="fill:#fff"/><path d="M206,215.47h4.26v3h.08a6.4,6.4,0,0,1,2.07-2.52,5.21,5.21,0,0,1,3.12-1l.55,0a2.4,2.4,0,0,1,.52.1v4.07c-.3-.07-.55-.12-.76-.15l-.61,0a4.75,4.75,0,0,0-2.45.55,4.34,4.34,0,0,0-1.44,1.34,4.87,4.87,0,0,0-.71,1.59,6.46,6.46,0,0,0-.18,1.3v9.52H206Z" style="fill:#fff"/><path d="M229.2,220.22a5.3,5.3,0,0,0-1.63-1.36,4.63,4.63,0,0,0-2.26-.57,4.32,4.32,0,0,0-2,.45,1.53,1.53,0,0,0-.89,1.48,1.48,1.48,0,0,0,1,1.46,16.61,16.61,0,0,0,2.87.87,15.93,15.93,0,0,1,2,.6,7.12,7.12,0,0,1,1.85,1,4.69,4.69,0,0,1,1.35,1.52,4.32,4.32,0,0,1,.52,2.2,5.69,5.69,0,0,1-.61,2.76,5.18,5.18,0,0,1-1.63,1.84,6.87,6.87,0,0,1-2.37,1,12.32,12.32,0,0,1-2.8.31,11.05,11.05,0,0,1-4-.76,8.51,8.51,0,0,1-3.26-2.16l2.93-2.75a5.71,5.71,0,0,0,1.92,1.6,5.53,5.53,0,0,0,2.64.63,4.82,4.82,0,0,0,1-.11,3.53,3.53,0,0,0,.92-.36,1.8,1.8,0,0,0,.69-.65,1.83,1.83,0,0,0,.26-1,1.64,1.64,0,0,0-1-1.59,16.5,16.5,0,0,0-3.06-1,14.43,14.43,0,0,1-1.94-.58,6.25,6.25,0,0,1-1.69-.92,4.47,4.47,0,0,1-1.19-1.43,4.61,4.61,0,0,1-.44-2.11,5.08,5.08,0,0,1,.61-2.56,5.34,5.34,0,0,1,1.61-1.76,7.15,7.15,0,0,1,2.26-1,10.24,10.24,0,0,1,2.6-.34,11,11,0,0,1,3.76.67,6.46,6.46,0,0,1,2.91,2Z" style="fill:#fff"/></g></svg>