<svg xmlns="http://www.w3.org/2000/svg" width="300" height="300" viewBox="0 0 300 300"><g id="Layer_23" data-name="Layer 23"><ellipse cx="151.11" cy="81.99" rx="79.08" ry="22.17" style="fill:none;stroke:#ffe91f;stroke-miterlimit:10;stroke-width:6.824701701655904px"/><ellipse cx="151.11" cy="78.78" rx="79.08" ry="22.17" style="fill:none;stroke:#fff494;stroke-miterlimit:10;stroke-width:6.824701701655904px"/><polygon points="48.28 234.92 66.82 212.16 235.38 212.16 221.26 234.92 48.28 234.92" style="fill:#90be6d;stroke:#8ab36b;stroke-miterlimit:10;stroke-width:3.6496695470735645px"/><polygon points="50.93 228.41 69.47 205.66 238.03 205.66 223.91 228.41 50.93 228.41" style="fill:#90be6d;stroke:#8ab36b;stroke-miterlimit:10;stroke-width:3.6496695470735645px"/><polygon points="53.58 221.91 72.11 199.15 240.68 199.15 226.56 221.91 53.58 221.91" style="fill:#90be6d;stroke:#8ab36b;stroke-miterlimit:10;stroke-width:3.6496695470735645px"/><polygon points="56.08 215.41 74.61 192.65 243.17 192.65 229.05 215.41 56.08 215.41" style="fill:#90be6d;stroke:#8ab36b;stroke-miterlimit:10;stroke-width:3.6496695470735645px"/><polygon points="58.88 208.91 77.41 186.15 245.97 186.15 231.85 208.91 58.88 208.91" style="fill:#90be6d;stroke:#8ab36b;stroke-miterlimit:10;stroke-width:3.6496695470735645px"/><polygon points="62.08 200.78 80.61 178.02 249.18 178.02 235.06 200.78 62.08 200.78" style="fill:#90be6d;stroke:#8ab36b;stroke-miterlimit:10;stroke-width:3.6496695470735645px"/><polygon points="64.17 194.96 82.7 172.2 251.27 172.2 237.15 194.96 64.17 194.96" style="fill:#90be6d;stroke:#8ab36b;stroke-miterlimit:10;stroke-width:3.6496695470735645px"/><polygon points="66.83 189.4 85.36 166.64 253.93 166.64 239.81 189.4 66.83 189.4" style="fill:#90be6d;stroke:#8ab36b;stroke-miterlimit:10;stroke-width:3.6496695470735645px"/><polygon points="115.19 234.92 152.13 166.64 177.51 166.64 144.07 234.92 115.19 234.92" style="fill:#fffce0;stroke:#fffce0;stroke-miterlimit:10;stroke-width:3.6496695470735645px"/></g></svg>