<svg xmlns="http://www.w3.org/2000/svg" width="325" height="325" viewBox="0 0 325 325"><g id="Soda"><path d="M70.13,58.28s-5.56,2.59-5.56,18.45c0,12.63.68,105.43.68,105.43l16.3,10.38,100.21-67.9s.48-27.26.48-48.28c0-15.14-4.54-18.24-4.54-18.24s-21.31,9.65-50.88,9.65C79.54,67.77,70.13,58.28,70.13,58.28Z" style="fill:#ff2929"/><ellipse cx="124.54" cy="58.12" rx="56.68" ry="18.23" style="fill:#ccc"/><path d="M64.57,110.55c7.28-3.21,6.59,12.55,58.1-13.74,44.19-22.54,58.55-13.43,58.55-13.43l1,42s-4.06,10.86-7.79,14.76c-7.86,8.23-16.25,15.1-26.63,19.74-4.79,2.14-10.51,2.27-15.29,4.41-4.38,1.95-7.06-.4-11.25,1.95-15.13,8.51-54.87,18.17-56.71,8.57" style="fill:#ff6161"/><rect x="77.84" y="52.61" width="29.41" height="11.03" rx="5.51" transform="translate(-6.77 12.52) rotate(-7.47)" style="fill:#b0b0b0"/></g><g id="Chips"><path d="M189.46,123.42l13.43-8.66a2,2,0,0,1,2.11,0l106.85,62.91a1.32,1.32,0,0,1-.14,2.35l-24.32,10.75Z" style="fill:#ffeb14"/><path d="M135.54,281.7l-12.2,9.5a2.59,2.59,0,0,1-2.42,0L13.15,226.8a1.32,1.32,0,0,1,.14-2.35l13.9-7.07Z" style="fill:#ffeb14"/><path d="M233.41,255.43c-69,38.12-97.87,26.89-97.87,26.89s7.93-28.28,65.17-65.57C267.54,173.2,299,186.43,299,186.43S299.63,218.86,233.41,255.43Z" style="fill:#5d7557"/><path d="M25.84,217.81s4.54-43,65.49-73.54c75.5-37.86,98.85-20.56,98.85-20.56l105.74,62s-32.48-8.91-95.12,31.58c-45,29.08-61.61,57.35-64.94,63.68-.45.86-.66,1.32-.66,1.32Z" style="fill:#8dad84"/><path d="M103.33,156.4c8.23-12.5,41.94-21,65.39-7.18,25.67,15.08,37,37,26.64,55.79s-37.6,22.19-64.15,8.71C88.91,192.24,91,175.1,103.33,156.4Z" style="fill:#2c14ff;opacity:0.5411764705882353"/><path d="M155.64,157.82c1-5.06-3.41-7.33-9.52-8.2-6.68-4.68-20.91-3.35-28,4s0,15.46,10.81,16.58C140.25,171.43,154.09,165.54,155.64,157.82Z" style="fill:#f0d400"/><path d="M188,185.23a17,17,0,0,0-2.74-9,20.47,20.47,0,0,0-2.22-4.38,13.2,13.2,0,0,0-4-6.92c-6.89-6.38-17.08-4.23-21.7,4.68a22.3,22.3,0,0,0-2,14.47c1.13,5.42,4.27,10.15,7.18,14.35,3,4.41,6.86,8.28,11.67,9.17a10.23,10.23,0,0,0,10.93-5.18C188,197.67,188.18,190.9,188,185.23Z" style="fill:#f0d400"/><path d="M154.68,196.7a9.65,9.65,0,0,0-4.56-4.3l-.37-.15a13,13,0,0,0-1.09-1c-2-1.56-5.09-2.27-7.53-3.47a2.18,2.18,0,0,0-.53-.43,10.14,10.14,0,0,1-2.77-4.55c-.61-2-.86-4.19-2.17-5.92-2.56-3.36-7.85-3.31-11.9-.81a17.78,17.78,0,0,0-8.12,12.28c-.61,5.1,2.29,9.36,5.85,12.84,6.28,6.11,19.24,14,29.64,6.62C155.23,204.92,156.55,200.42,154.68,196.7Z" style="fill:#f0d400"/></g></svg>