<svg xmlns="http://www.w3.org/2000/svg" width="325" height="325" viewBox="0 0 325 325"><g id="Layer_10" data-name="Layer 10"><path d="M23.82,144.51,237.55,34.23a3.57,3.57,0,0,1,3.23,0l75.16,35.51c.47.24-2.7,1.64-3.16,1.9L104.48,192.38a3.53,3.53,0,0,1-3.46.05L23.77,150.8A3.56,3.56,0,0,1,23.82,144.51Z" style="fill:#a0d0de"/><path d="M107.12,181.08,307,69.07a7.17,7.17,0,0,1,10.84,6.1l-.74,77.34a7,7,0,0,1-3.37,5.88l-206,126.37c-4.79,2.94-11,1-11-4.48l6.15-86.9C102.86,190.91,105,182.34,107.12,181.08Z" style="fill:#8fbcc9"/><path d="M304.28,85.89l-.35,46.8c1,2.4-.62,4.33-5.54,7.17l-139.87,81c-6.26,3.62-4.22-2.66-5.43-5.71L153,176.42c-1.25-3.16,1.74-9.54,8.43-13.16l133.9-76.84C299,84.42,303.58,84.15,304.28,85.89Z" style="fill:#accfd9"/><path d="M260.63,191.27s-8.32-23,6.49-33.14c22.32-15.31,32.76,8.42,32.76,8.42" style="fill:#1d6c80"/><path d="M134.88,267.93s-3.17-3.09-4.45-20c-.52-6.76,4.44-18,14.39-21.18,21.74-6.88,29.58,16.92,29.58,16.92" style="fill:#1d6c80"/><ellipse cx="152.25" cy="248.29" rx="21.56" ry="20.11" transform="translate(-120.63 350.1) rotate(-78.94)" style="fill:#292929"/><ellipse cx="155.49" cy="250.9" rx="21.09" ry="17.66" transform="translate(-120.57 355.39) rotate(-78.94)" style="fill:#666"/><ellipse cx="280.8" cy="176.07" rx="21.56" ry="20.11" transform="matrix(0.19, -0.98, 0.98, 0.19, 54.15, 417.9)" style="fill:#292929"/><ellipse cx="284.04" cy="178.67" rx="21.09" ry="17.66" transform="translate(54.21 423.18) rotate(-78.94)" style="fill:#666"/><path d="M17.84,241.47V153.23c0-6.43,7.13-10.62,13.23-7.78L102,178.54a8.63,8.63,0,0,1,5.11,7.77v90.85c0,6.55-7.38,10.73-13.49,7.66L22.7,249.12A8.62,8.62,0,0,1,17.84,241.47Z" style="fill:#7b9ea8"/><path d="M112.9,274.25,111.55,197s-.06-5.58,1.51-7.76c2-2.74,15.41-7.11,16.06-5.6,3.58,8.37,7,45.63,6.41,46.09-12.17,9.41-4.37,34.4-4.37,34.4Z" style="fill:#6c777a"/><polygon points="91.05 136.45 113.13 146.93 110.71 160.42 86.24 163.44 62.48 152.6 65.05 138.41 91.05 136.45" style="fill:#cad9e0"/><polygon points="124.95 117.56 147.02 128.03 144.6 141.53 120.14 144.55 96.38 133.71 98.94 119.52 124.95 117.56" style="fill:#cad9e0"/><polygon points="160.03 99.85 182.1 110.33 179.68 123.82 155.21 126.84 131.45 116 134.02 101.82 160.03 99.85" style="fill:#cad9e0"/><polygon points="192.98 80.85 215.05 91.33 212.63 104.81 188.17 107.84 164.4 97 166.97 82.81 192.98 80.85" style="fill:#cad9e0"/><polygon points="226.64 63.68 248.72 74.16 246.29 87.65 221.83 90.67 198.07 79.83 200.64 65.64 226.64 63.68" style="fill:#cad9e0"/><polygon points="259.17 45.79 281.24 56.27 278.82 69.76 254.35 72.78 230.59 61.94 233.16 47.75 259.17 45.79" style="fill:#cad9e0"/><path d="M28,241.5,88,271.6a2.62,2.62,0,0,0,3.78-2.16l1.17-17a5.83,5.83,0,0,0-3.35-5.69L31,219.44a2,2,0,0,0-2.82,1.71l-.79,19.19A1.26,1.26,0,0,0,28,241.5Z" style="fill:#6c777a"/><line x1="32.41" y1="229.39" x2="84.48" y2="253.64" style="fill:#6c777a;stroke:#000;stroke-linecap:round;stroke-linejoin:round;stroke-width:3px"/><line x1="31.18" y1="239.11" x2="83.25" y2="263.36" style="fill:#6c777a;stroke:#000;stroke-linecap:round;stroke-linejoin:round;stroke-width:3px"/><line x1="31.18" y1="233.44" x2="83.25" y2="257.69" style="fill:#6c777a;stroke:#000;stroke-linecap:round;stroke-miterlimit:10;stroke-width:2px"/><path d="M19.92,217.7l-.17,17.21a4.8,4.8,0,0,0,2.88,4.44L26,240.83l.54-21.22A2.85,2.85,0,0,0,25.05,217l-2.15-1.11A2,2,0,0,0,19.92,217.7Z" style="fill:#ffffe8;stroke:#e6f9ff;stroke-linecap:round;stroke-linejoin:round"/><path d="M99.83,255.41,99,271.35a2.18,2.18,0,0,1-2.89,1.95l-3.18-1.09L94,251.57a1.17,1.17,0,0,1,1.69-1l1.82.91A4.12,4.12,0,0,1,99.83,255.41Z" style="fill:#ffffe8;stroke:#e6f9ff;stroke-linecap:round;stroke-linejoin:round"/><path d="M158.43,213.75l-1.66-39.32a1.14,1.14,0,0,1,.56-1l44.43-25.89a1.11,1.11,0,0,1,1.68.93L204.69,186a1.14,1.14,0,0,1-.53,1l-44,27.62A1.12,1.12,0,0,1,158.43,213.75Z" style="fill:#8aa4ab;opacity:0.6392156862745098"/><path d="M207.17,186l-1.66-39.31a1.14,1.14,0,0,1,.56-1L250.5,119.8a1.11,1.11,0,0,1,1.68.93l1.25,37.58a1.13,1.13,0,0,1-.53,1l-44,27.62A1.12,1.12,0,0,1,207.17,186Z" style="fill:#8aa4ab;opacity:0.6392156862745098"/><path d="M255.91,158.56l-1.66-39.31a1.14,1.14,0,0,1,.56-1l44.43-25.89a1.12,1.12,0,0,1,1.68.93l1.25,37.58a1.13,1.13,0,0,1-.53,1l-44,27.62A1.12,1.12,0,0,1,255.91,158.56Z" style="fill:#8aa4ab;opacity:0.6392156862745098"/><path d="M22.7,162.29l-.8,42.46a6.42,6.42,0,0,0,3.86,6l63.7,28A4.63,4.63,0,0,0,96,234.6l.72-37c.06-3.4-2-8.42-5.27-9.62l-65-28.13A2.74,2.74,0,0,0,22.7,162.29Z" style="fill:#e8e8e8;opacity:0.3686274509803922"/><path d="M42.41,217.57s18.49-5.08,34.28-2.52A42.06,42.06,0,0,0,96.38,213l-.21,8.3s-8.91,3.57-28-.74c-10.57-2.38-17.78.79-17.78.79Z" style="fill:#accfd9;opacity:0.5411764705882353"/><path d="M77,181.71c-11.46,5.47-19,4.76-29.19,2.1-9.68-2.54-25.94,9.29-25.94,9.29V202s13-5.07,17.56-5c5.31,0,13.39,4.06,20.15,6,8.87,2.49,37.08,3.49,37.08,3.49s.64-11.08-.9-13.3c-1.06-1.55-1.56-3.58-3.35-4.44C85.88,185.5,82.4,183.86,77,181.71Z" style="fill:#accfd9;opacity:0.7019607843137254"/></g></svg>