<svg xmlns="http://www.w3.org/2000/svg" width="300" height="300" viewBox="0 0 300 300"><g id="Layer_17" data-name="Layer 17"><path d="M50.17,44.16A134.69,134.69,0,0,0,99,40.74c34.79-9.16,52.71-27.95,52.71-27.95a118.67,118.67,0,0,0,45.58,25.66,188.13,188.13,0,0,0,56.26,6.71S259,125.67,252.84,162c-14.63,86.79-101.18,116.86-101.18,116.86S62.45,245.63,51,166.75C45.67,130,50.17,44.16,50.17,44.16Z" style="fill:#43aa8b"/><path d="M59.39,53.36a122.52,122.52,0,0,0,44.36-3.11c31.64-8.34,47.95-25.43,47.95-25.43a108,108,0,0,0,41.45,23.35,171.3,171.3,0,0,0,51.17,6.1s5,73.22-.6,106.26c-13.3,78.94-92,106.29-92,106.29s-81.14-30.22-91.55-102C55.3,131.42,59.39,53.36,59.39,53.36Z" style="fill:#fffff2"/><path d="M72.41,66.35a105.21,105.21,0,0,0,38.13-2.67c27.2-7.17,41.21-21.86,41.21-21.86a92.83,92.83,0,0,0,35.63,20.07,147,147,0,0,0,44,5.24s4.27,62.94-.52,91.34c-11.43,67.85-79.09,91.35-79.09,91.35s-69.74-26-78.68-87.64C68.9,133.44,72.41,66.35,72.41,66.35Z" style="fill:#577590"/></g></svg>