<svg xmlns="http://www.w3.org/2000/svg" width="325" height="325" viewBox="0 0 325 325"><g id="Server"><path d="M131.74,12.61,78.35,44.18c-.53.31-1.18,1.08-.65,1.38l115.52,67c.24.13.41-1.17.65-1.29L251.57,81c.56-.29-.08-.92-.62-1.24L132.54,12.61A.77.77,0,0,0,131.74,12.61Z" style="fill:#424242"/><path d="M252.85,81.82l-.09,198.92a2.06,2.06,0,0,1-1.14,1.86l-58.93,29.09a1.13,1.13,0,0,1-1.63-1l1.66-198.54a1.46,1.46,0,0,1,.78-1.28l57.9-29.92A1,1,0,0,1,252.85,81.82Z" style="fill:#262626"/><path d="M76.49,46.91l-.53,199a3.86,3.86,0,0,0,2,3.38l110.11,63a2.06,2.06,0,0,0,3.09-1.77l1.62-198.7a1.8,1.8,0,0,0-.9-1.56L78.75,45.61A1.51,1.51,0,0,0,76.49,46.91Z" style="fill:#2b2b2b"/><line x1="87.52" y1="73.8" x2="179.79" y2="126.13" style="fill:#424242;stroke:#7f0;stroke-linecap:round;stroke-linejoin:round;stroke-width:4px"/><line x1="87.52" y1="102.49" x2="179.79" y2="154.83" style="fill:#424242;stroke:#7f0;stroke-linecap:round;stroke-linejoin:round;stroke-width:4px"/><line x1="87.52" y1="124.67" x2="179.79" y2="177" style="fill:#424242;stroke:#7f0;stroke-linecap:round;stroke-linejoin:round;stroke-width:4px"/><line x1="87.52" y1="149.45" x2="179.79" y2="201.79" style="fill:#424242;stroke:#7f0;stroke-linecap:round;stroke-linejoin:round;stroke-width:4px"/><line x1="87.52" y1="179.15" x2="179.79" y2="231.48" style="fill:#424242;stroke:#7f0;stroke-linecap:round;stroke-linejoin:round;stroke-width:4px"/><line x1="87.52" y1="205.32" x2="179.79" y2="257.65" style="fill:#424242;stroke:#7f0;stroke-linecap:round;stroke-linejoin:round;stroke-width:4px"/><line x1="87.52" y1="231.48" x2="179.79" y2="283.82" style="fill:#424242;stroke:#7f0;stroke-linecap:round;stroke-linejoin:round;stroke-width:4px"/><line x1="87.52" y1="87.21" x2="179.79" y2="139.54" style="fill:#424242;stroke:#0084ff;stroke-linecap:round;stroke-linejoin:round;stroke-width:4px"/><line x1="87.52" y1="113.37" x2="179.79" y2="165.71" style="fill:#424242;stroke:#0084ff;stroke-linecap:round;stroke-linejoin:round;stroke-width:4px"/><line x1="88.21" y1="137.58" x2="180.48" y2="189.92" style="fill:#424242;stroke:#0084ff;stroke-linecap:round;stroke-linejoin:round;stroke-width:4px"/><line x1="87.52" y1="163.75" x2="179.79" y2="216.08" style="fill:#424242;stroke:#0084ff;stroke-linecap:round;stroke-linejoin:round;stroke-width:4px"/><line x1="87.52" y1="191.79" x2="179.79" y2="244.13" style="fill:#424242;stroke:#0084ff;stroke-linecap:round;stroke-linejoin:round;stroke-width:4px"/><line x1="87.52" y1="217.96" x2="179.79" y2="270.29" style="fill:#424242;stroke:#0084ff;stroke-linecap:round;stroke-linejoin:round;stroke-width:4px"/></g></svg>