<svg xmlns="http://www.w3.org/2000/svg" width="300" height="300" viewBox="0 0 300 300"><g id="Layer_14" data-name="Layer 14"><path d="M220.62,161.77C218,184.7,214.42,195,205.1,206.19c-11.93,14.56-28.65,21.72-51.09,21.72-46.8,0-80.95-35.57-80.95-84.28,0-47.28,34.63-84,79.28-84,17.9,0,27.93,3.58,46.56,16.48l4.77-14.33h17v65.18H202.48c-2.87-17.66-6-25.54-12.9-33.42a41.48,41.48,0,0,0-32.23-14.57c-29.37,0-47,24.83-47,65.66,0,19.82,3.82,34.39,11.94,44.89s21,16.72,35.34,16.72c11.94,0,22.2-4.3,29.37-12.18,6.92-7.64,10-15,13.37-32.24Z" style="fill:#90be6d"/><path d="M127.62,37.13l-2.11,37.79Z" style="fill:#90be6d;stroke:#90be6d;stroke-miterlimit:10;stroke-width:12.02461850643158px"/><path d="M170.56,37.13l-2.11,37.79Z" style="fill:#90be6d;stroke:#90be6d;stroke-miterlimit:10;stroke-width:12.02461850643158px"/><path d="M126.56,221.69l-2.11,37.79Z" style="fill:#90be6d;stroke:#90be6d;stroke-miterlimit:10;stroke-width:12.02461850643158px"/><path d="M171.61,221.69l-2.1,37.79Z" style="fill:#90be6d;stroke:#90be6d;stroke-miterlimit:10;stroke-width:12.02461850643158px"/></g></svg>