<svg xmlns="http://www.w3.org/2000/svg" width="25" height="25" viewBox="0 0 25 25"><g id="Layer_10_copy" data-name="Layer 10 copy"><path d="M2.9,11.47,17.15,4.12a.2.2,0,0,1,.21,0l5,2.36s-.18.11-.21.13L8.28,14.66a.24.24,0,0,1-.23,0L2.9,11.89A.24.24,0,0,1,2.9,11.47Z" style="fill:#a0d0de"/><path d="M8.45,13.91,21.78,6.44a.48.48,0,0,1,.72.41L22.45,12a.47.47,0,0,1-.22.39L8.49,20.82c-.32.19-.73.07-.73-.3l.41-5.79C8.17,14.56,8.31,14,8.45,13.91Z" style="fill:#8fbcc9"/><path d="M21.6,7.56l0,3.12c.07.16,0,.29-.37.48l-9.32,5.4c-.42.24-.28-.18-.36-.38V13.6c-.08-.22.11-.64.56-.88L21,7.6C21.24,7.46,21.55,7.44,21.6,7.56Z" style="fill:#accfd9"/><path d="M18.69,14.59s-.56-1.54.43-2.21a1.38,1.38,0,0,1,2.18.56" style="fill:#1d6c80"/><path d="M10.3,19.7s-.21-.21-.29-1.34A1.47,1.47,0,0,1,11,17c1.45-.46,2,1.13,2,1.13" style="fill:#1d6c80"/><ellipse cx="11.46" cy="18.39" rx="1.44" ry="1.34" transform="translate(-8.78 26.11) rotate(-78.94)" style="fill:#292929"/><ellipse cx="11.68" cy="18.56" rx="1.41" ry="1.18" transform="translate(-8.78 26.46) rotate(-78.94)" style="fill:#666"/><ellipse cx="20.03" cy="13.57" rx="1.44" ry="1.34" transform="translate(2.87 30.63) rotate(-78.94)" style="fill:#292929"/><ellipse cx="20.25" cy="13.75" rx="1.41" ry="1.18" transform="translate(2.87 30.98) rotate(-78.94)" style="fill:#666"/><path d="M2.5,17.93V12.05a.61.61,0,0,1,.88-.52l4.73,2.21a.57.57,0,0,1,.34.52v6a.61.61,0,0,1-.9.51L2.82,18.44A.56.56,0,0,1,2.5,17.93Z" style="fill:#7b9ea8"/><path d="M8.84,20.12,8.75,15a1.12,1.12,0,0,1,.1-.52c.13-.18,1-.47,1.07-.37a15.47,15.47,0,0,1,.43,3.07c-.81.63-.29,2.29-.29,2.29Z" style="fill:#6c777a"/><polygon points="7.38 10.93 8.85 11.63 8.69 12.53 7.06 12.73 5.48 12.01 5.65 11.06 7.38 10.93" style="fill:#cad9e0"/><polygon points="9.64 9.67 11.11 10.37 10.95 11.27 9.32 11.47 7.74 10.75 7.91 9.8 9.64 9.67" style="fill:#cad9e0"/><polygon points="11.98 8.49 13.45 9.19 13.29 10.09 11.66 10.29 10.07 9.57 10.24 8.62 11.98 8.49" style="fill:#cad9e0"/><polygon points="14.18 7.22 15.65 7.92 15.49 8.82 13.86 9.02 12.27 8.3 12.44 7.36 14.18 7.22" style="fill:#cad9e0"/><polygon points="16.42 6.08 17.89 6.78 17.73 7.68 16.1 7.88 14.52 7.16 14.69 6.21 16.42 6.08" style="fill:#cad9e0"/><polygon points="18.59 4.89 20.06 5.58 19.9 6.49 18.27 6.69 16.68 5.96 16.86 5.02 18.59 4.89" style="fill:#cad9e0"/><path d="M3.18,17.93l4,2a.18.18,0,0,0,.26-.14l.08-1.14a.39.39,0,0,0-.23-.38l-3.9-1.82a.13.13,0,0,0-.19.12l-.06,1.28A.08.08,0,0,0,3.18,17.93Z" style="fill:#6c777a"/><line x1="3.47" y1="17.13" x2="6.94" y2="18.74" style="fill:#6c777a;stroke:#000;stroke-linecap:round;stroke-linejoin:round;stroke-width:0.25px"/><line x1="3.39" y1="17.77" x2="6.86" y2="19.39" style="fill:#6c777a;stroke:#000;stroke-linecap:round;stroke-linejoin:round;stroke-width:0.25px"/><line x1="3.39" y1="17.4" x2="6.86" y2="19.01" style="fill:#6c777a;stroke:#000;stroke-linecap:round;stroke-miterlimit:10;stroke-width:0.25px"/><path d="M2.64,16.35v1.14a.32.32,0,0,0,.19.3l.23.1,0-1.42A.19.19,0,0,0,3,16.3l-.14-.07A.14.14,0,0,0,2.64,16.35Z" style="fill:#ffffe8;stroke:#e6f9ff;stroke-linecap:round;stroke-linejoin:round;stroke-width:0.25px"/><path d="M8,18.86l-.06,1.06a.14.14,0,0,1-.19.13L7.51,20l.07-1.37a.07.07,0,0,1,.11-.07l.12.06A.29.29,0,0,1,8,18.86Z" style="fill:#ffffe8;stroke:#e6f9ff;stroke-linecap:round;stroke-linejoin:round;stroke-width:0.25px"/><path d="M11.87,16.08l-.11-2.62a.08.08,0,0,1,0-.06l3-1.73a.07.07,0,0,1,.11.06L15,14.24a.08.08,0,0,1,0,.06L12,16.14A.08.08,0,0,1,11.87,16.08Z" style="fill:#8aa4ab;opacity:0.6392156862745098"/><path d="M15.12,14.24,15,11.61a.08.08,0,0,1,0-.06l3-1.73a.07.07,0,0,1,.11.06l.09,2.51a.08.08,0,0,1,0,.06L15.24,14.3A.08.08,0,0,1,15.12,14.24Z" style="fill:#8aa4ab;opacity:0.6392156862745098"/><path d="M18.37,12.4l-.11-2.62a.06.06,0,0,1,0-.06l3-1.73a.07.07,0,0,1,.11.06l.09,2.51a.08.08,0,0,1,0,.06l-2.93,1.84A.07.07,0,0,1,18.37,12.4Z" style="fill:#8aa4ab;opacity:0.6392156862745098"/><path d="M2.82,12.65l0,2.83a.43.43,0,0,0,.26.4l4.24,1.87a.31.31,0,0,0,.44-.28l0-2.47a.75.75,0,0,0-.35-.64L3.07,12.49A.18.18,0,0,0,2.82,12.65Z" style="fill:#e8e8e8;opacity:0.3686274509803922"/><path d="M4.14,16.34a6.29,6.29,0,0,1,2.28-.17A2.83,2.83,0,0,0,7.74,16l0,.56a3.4,3.4,0,0,1-1.86-.05,2.06,2.06,0,0,0-1.19.05Z" style="fill:#accfd9;opacity:0.5411764705882353"/><path d="M6.45,14a2.49,2.49,0,0,1-1.95.14c-.65-.17-1.73.62-1.73.62v.59A5.55,5.55,0,0,1,3.94,15a7.29,7.29,0,0,1,1.34.4,17.56,17.56,0,0,0,2.48.23,2.85,2.85,0,0,0-.06-.88c-.07-.11-.11-.24-.23-.3C7,14.2,6.8,14.09,6.45,14Z" style="fill:#accfd9;opacity:0.7019607843137254"/></g></svg>